SplineFontDB: 3.0
FontName: GNUTypewriter
FullName: GNUTypewriter
FamilyName: GNUTypewriter
Weight: Standard
Copyright: Created by Lukasz Komsta (www.komsta.net) with FontForge 2.0 (http://fontforge.sf.net)
UComments: "2011-6-5: Created." 
Version: 001.000
DefaultBaseFilename: gtw
ItalicAngle: 0
UnderlinePosition: -100
UnderlineWidth: 50
Ascent: 800
Descent: 200
LayerCount: 2
Layer: 0 0 "Warstwa t+AUIA-a"  1
Layer: 1 0 "Plan pierwszy"  0
NeedsXUIDChange: 1
XUID: [1021 310 1107089062 15273259]
FSType: 0
OS2Version: 0
OS2_WeightWidthSlopeOnly: 0
OS2_UseTypoMetrics: 1
CreationTime: 1307267785
ModificationTime: 1308949919
PfmFamily: 17
TTFWeight: 400
TTFWidth: 5
LineGap: 90
VLineGap: 0
OS2TypoAscent: 0
OS2TypoAOffset: 1
OS2TypoDescent: 0
OS2TypoDOffset: 1
OS2TypoLinegap: 90
OS2WinAscent: 0
OS2WinAOffset: 1
OS2WinDescent: 0
OS2WinDOffset: 1
HheadAscent: 0
HheadAOffset: 1
HheadDescent: 0
HheadDOffset: 1
OS2Vendor: 'PfEd'
DEI: 91125

StartChar: one
Encoding: 49 49 0
Width: 620
VWidth: -225
Flags: W
HStem: 216 38<314 324>
VStem: 324 142<160 197 208.167 216 254 292> 324 124<66.0175 93 301.888 368> 334 122<254.141 291.703 301 329.355> 334 46<13.0301 26.6725> 344 112<330.297 348.343 377 404.537 405.793 434.6 444.075 475.167 519 522.639>
LayerCount: 2
Fore
SplineSet
362 689 m 1x84
 390 689 l 1
 404 672 416 668 438 661 c 1
 456 642 l 1x84
 456 618 460 599 466 576 c 1xc0
 456 561 458 563 448 557 c 1xa0
 456 528 l 1
 456 519 l 1
 438 510 l 1
 456 453 l 1x84
 454 434 454 422 448 405 c 1xa0
 456 395 456 393 456 377 c 1x84
 448 368 l 1
 448 349 l 1xa0
 456 335 456 320 456 301 c 1x90
 466 292 l 1
 466 273 l 1xc0
 456 250 456 232 456 207 c 1x84
 466 197 l 1
 466 178 l 1xc0
 458 159 456 150 456 131 c 1x84
 448 117 448 120 448 103 c 1xa0
 464 90 464 87 466 65 c 1xc0
 452 56 454 55 438 55 c 1
 428 8 l 1
 390 27 l 1
 380 27 l 1
 380 -1 l 1
 358 1 352 5 334 18 c 1x88
 334 35 334 32 324 46 c 1
 324 93 l 1xa0
 314 93 l 1
 314 160 l 1
 324 160 l 1
 324 216 l 1
 314 216 l 1
 314 254 l 1
 324 254 l 1
 324 257 324 260 324 263 c 0xc0
 324 278 324 289 334 301 c 1x90
 334 318 334 316 324 330 c 1
 324 349 l 1xa0
 334 371 330 396 344 415 c 1x84
 334 443 l 1x88
 342 466 344 485 344 510 c 1
 324 517 324 518 314 538 c 1
 276 500 l 1
 256 496 246 490 230 481 c 1
 210 481 l 1
 196 490 198 489 192 500 c 1
 178 508 l 1
 178 516 179 523 179 529 c 0
 179 535 178 540 178 546 c 0
 178 558 179 569 182 585 c 1
 202 604 l 1
 220 603 224 603 240 595 c 1
 244 608 246 612 258 623 c 1
 286 623 l 1
 294 639 302 647 314 661 c 1
 334 669 346 676 362 689 c 1x84
EndSplineSet
Validated: 1
EndChar

StartChar: plus
Encoding: 43 43 1
Width: 620
VWidth: -206
Flags: W
HStem: -8 21G<290.5 312.5> 477 4<405.002 412.998>
VStem: 286 95<361.23 398.484 493.645 503> 405 8<477.046 480.954> 484 76<323 349.139>
LayerCount: 2
Fore
SplineSet
538 320 m 0
 534 316 543 316 544 317 c 0
 548 321 539 321 538 320 c 0
304 559 m 1
 320 549 320 549 324 531 c 1
 334 522 l 1
 381 503 l 1
 381 475 382 453 390 427 c 1
 381 413 378 408 378 399 c 0
 378 394 379 389 381 380 c 1
 376 365 377 366 362 361 c 1
 377 346 379 344 381 323 c 1
 398 332 408 338 428 342 c 1
 433 327 431 328 446 323 c 1
 448 339 453 346 458 346 c 0
 464 346 469 338 474 323 c 1
 484 323 l 1
 484 340 485 337 494 351 c 1
 504 361 l 1
 522 361 l 1
 537 349 541 346 560 342 c 1
 560 228 l 1
 555 229 550 229 546 229 c 0
 531 229 524 224 512 209 c 1
 474 209 l 1
 484 238 l 1
 456 238 444 238 428 219 c 1
 405 221 400 225 381 238 c 1
 370 172 l 1
 378 160 381 146 381 131 c 2
 381 105 l 1
 390 96 l 1
 408 105 l 1
 412 95 414 88 414 81 c 0
 414 68 407 60 390 49 c 1
 390 30 l 1
 370 11 l 1
 361 16 353 18 346 18 c 0
 331 18 321 7 304 -8 c 1
 277 4 276 16 276 43 c 2
 276 49 l 1
 266 49 l 1
 266 74 266 92 276 115 c 1
 258 124 l 1
 258 134 l 1
 276 159 275 181 286 209 c 1
 273 222 270 227 266 247 c 1
 256 243 249 240 244 240 c 0
 238 240 233 245 228 257 c 1
 220 257 l 1
 211 243 205 235 200 219 c 1
 192 219 l 1
 182 247 l 1
 162 238 146 238 124 238 c 1
 112 245 105 247 96 257 c 1
 68 247 l 1
 63 260 60 270 60 280 c 0
 60 290 63 301 68 314 c 1
 71 314 74 313 76 313 c 0
 96 313 102 324 116 342 c 1
 131 335 127 330 134 351 c 1
 182 332 l 1
 190 351 189 349 210 351 c 1
 210 334 209 337 200 323 c 1
 222 329 239 338 258 351 c 1
 286 342 l 1
 284 352 282 360 282 368 c 0
 282 377 284 388 286 399 c 1
 266 418 l 1
 276 493 l 1
 285 507 286 505 286 522 c 1
 296 522 l 1
 296 530 l 2
 296 541 297 546 304 559 c 1
406 481 m 1
 408 481 l 2
 410 481 413 481 413 479 c 0
 413 478 413 478 412 477 c 1
 410 477 l 2
 408 477 405 477 405 479 c 0
 405 480 405 480 406 481 c 1
EndSplineSet
Validated: 1
EndChar

StartChar: comma
Encoding: 44 44 2
Width: 620
VWidth: -99
Flags: W
HStem: 80 38<414 441.259> 289 9<372.004 386>
VStem: 178 264
LayerCount: 2
Fore
SplineSet
363 323 m 5
 359 319 357 331 362 331 c 4
 364 331 363 323 363 323 c 5
358 307 m 5
 386 298 l 5
 386 289 l 5
 367 293 367 291 358 307 c 5
310 279 m 5
 323 295 326 296 348 298 c 5
 363 286 367 283 386 279 c 5
 394 250 412 235 434 213 c 5
 434 203 l 5
 424 184 l 5
 442 166 l 5
 435 145 430 134 414 118 c 5
 431 118 428 118 442 109 c 5
 442 90 l 5
 426 81 422 80 404 80 c 5
 414 33 l 5
 376 24 l 5
 376 -24 l 5
 330 -33 l 5
 329 -52 328 -55 320 -71 c 5
 282 -61 l 5
 276 -72 279 -71 264 -80 c 5
 226 -90 l 5
 196 -52 l 5
 196 -14 l 5
 226 -14 l 5
 234 -5 l 5
 236 17 238 20 254 33 c 5
 254 52 255 58 264 71 c 5
 254 109 l 5
 250 108 245 108 242 108 c 4
 227 108 215 113 196 118 c 5
 196 203 l 5
 180 207 182 206 178 222 c 5
 226 232 l 5
 226 241 l 5
 254 251 l 5
 254 269 255 273 264 289 c 5
 283 288 291 287 310 279 c 5
178 156 m 5
 188 147 l 5
 178 156 l 5
EndSplineSet
Validated: 1
EndChar

StartChar: hyphen
Encoding: 45 45 3
Width: 620
VWidth: -166
Flags: W
HStem: 136 171<433.216 521.073> 146 142<196.56 243.119 244 299.068>
LayerCount: 2
Fore
SplineSet
432 316 m 5x80
 458 308 480 307 508 307 c 5x80
 517 293 523 285 528 269 c 5
 538 288 l 5
 546 288 l 5
 546 278 l 6
 546 250 556 222 556 193 c 5
 546 193 l 5
 546 146 l 5x40
 516 137 488 136 458 136 c 6
 432 136 l 5x80
 423 127 423 127 412 127 c 6
 404 127 l 5
 389 136 392 135 386 146 c 5
 348 146 l 5
 334 134 319 131 300 127 c 5
 285 136 288 135 282 146 c 5
 244 146 l 5x40
 244 136 l 5x80
 225 136 219 137 206 146 c 5
 196 146 l 5x40
 178 136 l 5x80
 150 146 l 5
 140 133 136 133 120 127 c 5
 112 146 l 5
 92 146 l 5x40
 74 165 l 5
 74 186 76 202 82 222 c 5
 66 231 68 231 64 250 c 5
 102 269 l 5
 102 287 103 291 112 307 c 5x80
 134 305 137 304 150 288 c 5
 158 288 l 5
 166 298 173 304 180 304 c 4
 186 304 191 300 196 288 c 5
 208 291 216 294 224 294 c 4
 230 294 237 293 244 288 c 5
 254 288 l 5x40
 268 300 280 303 300 307 c 5
 320 278 l 5
 328 307 l 5x80
 358 288 l 5x40
 366 307 l 5
 414 297 l 5
 432 316 l 5x80
EndSplineSet
Validated: 1
EndChar

StartChar: period
Encoding: 46 46 4
Width: 620
VWidth: -91
Flags: W
HStem: 3 237<282.644 310>
VStem: 168 283
LayerCount: 2
Fore
SplineSet
310 240 m 5
 320 230 l 5
 334 239 331 240 348 240 c 5
 363 230 360 232 366 221 c 5
 404 221 l 5
 415 199 426 182 442 164 c 5
 451 136 l 5
 424 117 l 5
 451 107 l 5
 447 88 444 85 432 70 c 5
 414 70 l 5
 409 55 411 56 396 51 c 5
 396 13 l 5
 348 13 l 5
 348 3 l 5
 262 3 l 5
 234 13 l 5
 224 51 l 5
 207 60 205 62 196 79 c 5
 168 89 l 5
 170 112 178 132 178 154 c 6
 178 164 l 5
 193 176 197 179 216 183 c 5
 224 193 l 5
 224 210 225 207 234 221 c 5
 262 211 l 5
 271 233 288 231 310 240 c 5
EndSplineSet
Validated: 1
EndChar

StartChar: slash
Encoding: 47 47 5
Width: 620
VWidth: -218
Flags: W
VStem: 58 136<-124 -68.7947> 316 114<415 470.983>
LayerCount: 2
Fore
SplineSet
468 746 m 5
 516 736 l 5
 534 727 l 5
 534 718 l 5
 551 718 548 717 562 708 c 5
 562 670 l 5
 552 655 555 657 544 651 c 5
 544 632 l 5
 534 632 l 5
 530 613 532 613 516 604 c 5
 514 582 512 579 496 566 c 5
 506 528 l 5
 492 519 495 519 478 519 c 5
 473 495 469 486 450 472 c 5
 448 450 446 447 430 434 c 5
 430 386 l 5
 414 377 410 377 392 377 c 5
 392 368 l 5
 411 360 410 360 412 339 c 5
 382 339 l 5
 374 330 l 5
 373 314 373 310 364 301 c 5
 364 254 l 5
 349 242 345 239 326 235 c 5
 336 188 l 5
 324 173 320 169 316 150 c 5
 278 122 l 5
 288 93 l 5
 274 84 277 84 260 84 c 5
 260 46 l 5
 232 36 l 5
 232 -11 l 5
 222 -11 l 5
 222 -58 l 5
 211 -69 207 -73 194 -77 c 5
 194 -124 l 5
 166 -162 l 5
 128 -162 l 5
 118 -143 l 5
 62 -143 l 5
 59 -132 58 -123 58 -114 c 4
 58 -99 61 -85 62 -68 c 5
 69 -61 68 -68 62 -49 c 5
 70 -30 l 5
 90 -20 l 5
 100 27 l 5
 108 27 l 5
 118 74 l 5
 132 83 129 84 146 84 c 5
 149 110 155 125 174 141 c 5
 174 169 l 5
 183 184 183 182 194 188 c 5
 194 207 l 5
 204 207 l 5
 208 225 206 225 222 235 c 5
 222 273 l 5
 236 282 233 282 250 282 c 5
 252 304 255 315 270 330 c 5
 270 368 l 5
 282 383 284 386 288 405 c 5
 316 415 l 5
 316 462 l 5
 327 473 333 477 346 481 c 5
 336 500 l 5
 350 513 358 519 374 528 c 5
 374 535 l 6
 374 546 373 548 382 557 c 5
 382 604 l 5
 396 617 404 623 420 632 c 5
 411 646 412 644 412 661 c 5
 440 689 l 5
 440 727 l 5
 453 731 457 735 468 746 c 5
EndSplineSet
Validated: 1
EndChar

StartChar: zero
Encoding: 48 48 6
Width: 620
VWidth: -235
Flags: W
HStem: 281 19<428 454.6> 385 10<438 453.97> 527 21G<390 410> 678 20G<296 351.5>
VStem: 68 107<461.652 504.859> 468 103<310 337.065 357.782 383.326> 468 93<338.691 383.139>
LayerCount: 2
Fore
SplineSet
390 546 m 5xf8
 405 541 405 542 410 527 c 5
 390 527 l 5
 390 546 l 5xf8
314 612 m 5
 300 603 303 603 286 603 c 5
 275 592 272 588 268 575 c 5
 220 565 l 5
 211 551 210 554 210 537 c 5
 202 527 l 5
 185 527 186 527 172 518 c 5
 174 507 175 500 175 494 c 4
 175 483 173 475 164 461 c 5
 172 423 l 5
 155 409 153 395 144 376 c 5
 144 357 l 5
 154 348 l 5
 144 310 l 5
 162 297 171 290 182 272 c 5
 154 281 l 5
 172 215 l 5
 192 196 l 5
 230 196 l 5
 234 177 232 177 248 168 c 5
 258 130 l 5
 306 111 l 5
 315 125 319 133 324 149 c 5
 338 140 346 135 362 130 c 5
 372 158 l 5
 418 168 l 5
 418 206 l 5
 434 211 442 216 456 225 c 5
 456 272 l 5
 442 281 445 281 428 281 c 5
 428 300 l 5
 466 310 l 5
 466 323 468 335 468 347 c 4xfa
 468 367 463 382 438 385 c 5
 438 395 l 5
 455 395 452 395 466 404 c 5
 456 433 l 5
 445 444 441 448 428 452 c 5
 438 499 l 5
 438 518 l 5
 429 532 428 529 428 546 c 5
 410 565 l 5
 390 573 384 576 372 593 c 5
 352 584 l 5
 344 612 l 5
 331 610 326 609 314 612 c 5
296 698 m 5
 344 698 l 5
 359 688 356 690 362 679 c 5
 400 679 l 5
 428 669 l 5
 441 650 444 648 466 641 c 5
 470 628 473 623 484 612 c 5
 487 602 490 597 490 592 c 4
 490 587 487 583 484 575 c 5
 500 570 508 565 522 556 c 5
 532 508 l 5
 542 508 l 5
 552 489 l 5
 552 461 l 5
 563 455 561 457 571 442 c 5
 568 430 566 424 566 417 c 4
 566 411 568 405 571 395 c 5
 571 385 l 5xfc
 562 371 561 374 561 357 c 5xfa
 572 351 570 353 580 338 c 5
 574 318 571 302 571 281 c 5xfc
 561 266 563 268 552 262 c 5
 560 246 560 243 561 225 c 5
 522 187 l 5
 522 149 l 5
 504 120 l 5
 495 111 493 111 482 111 c 6
 476 111 l 5
 476 64 l 5
 456 45 l 5
 410 45 l 5
 401 30 394 25 380 16 c 5
 363 16 366 17 352 26 c 5
 348 13 345 9 334 -2 c 5
 318 4 315 3 306 16 c 5
 268 7 l 5
 258 35 l 5
 210 26 l 5
 189 43 169 55 144 64 c 5
 139 88 132 100 116 120 c 5
 116 158 l 5
 96 173 84 195 68 215 c 5
 68 233 69 237 78 253 c 5
 52 262 59 294 50 319 c 5
 50 337 51 341 60 357 c 5
 40 376 l 5
 46 392 47 394 60 404 c 5
 60 452 l 5
 68 452 l 5
 68 489 l 5
 79 500 85 504 98 508 c 5
 90 526 88 536 88 556 c 5
 99 567 103 571 116 575 c 5
 116 592 117 589 126 603 c 5
 140 612 137 612 154 612 c 5
 164 650 l 5
 182 669 l 5
 199 669 196 670 210 679 c 5
 248 679 l 5
 248 688 l 5
 296 688 l 5
 296 698 l 5
EndSplineSet
Validated: 1
EndChar

StartChar: two
Encoding: 50 50 7
Width: 620
VWidth: -235
Flags: W
HStem: 11 99<211.177 333.119> 271 85<304 341.31> 583 104<258 275.858 352 427.308> 583 95<211.662 258 334.007 352> 594 84<304 333.44>
LayerCount: 2
Fore
SplineSet
258 687 m 5xe0
 304 687 l 5xe0
 304 678 l 5xc8
 352 678 l 5xd0
 352 687 l 5
 400 687 l 5
 417 674 427 667 446 659 c 5
 455 645 456 647 456 630 c 5
 484 630 l 5
 493 610 502 596 504 574 c 5
 522 566 528 560 542 545 c 5
 532 507 l 5
 541 495 542 480 542 464 c 6
 542 422 l 5
 522 413 l 5
 522 375 l 5
 494 337 l 5
 465 328 454 318 446 290 c 5
 400 309 l 5
 390 280 l 5
 352 280 l 5
 352 271 l 5
 304 271 l 5
 296 233 l 5
 258 224 l 5
 258 205 l 5
 248 195 l 6
 234 182 226 175 210 167 c 5
 213 157 214 151 214 146 c 4
 214 141 213 137 210 129 c 5
 235 127 267 123 286 110 c 5
 296 110 l 5
 309 119 315 118 334 119 c 5
 345 113 342 116 352 101 c 5
 352 118 353 115 362 129 c 5
 377 124 375 125 380 110 c 5
 408 110 l 5
 418 122 430 128 442 128 c 4
 450 128 458 125 466 119 c 5
 494 119 l 5
 494 129 l 5
 542 119 l 5
 542 44 l 5
 533 30 532 32 532 15 c 5
 484 25 l 5
 469 14 447 12 428 6 c 5
 401 23 374 9 352 25 c 5
 342 25 l 5
 330 16 303 11 276 11 c 4
 249 11 222 16 210 25 c 5
 200 25 l 5
 188 17 177 15 162 15 c 6
 144 15 l 5
 130 24 122 29 106 34 c 5
 106 72 l 5
 91 81 87 87 78 101 c 5
 78 119 l 5
 86 131 88 136 88 144 c 4
 88 147 89 151 88 157 c 5
 104 176 111 190 116 214 c 5
 130 227 138 233 154 242 c 5
 154 259 153 257 162 271 c 5
 178 279 181 279 200 280 c 5
 210 290 l 5
 210 318 l 5
 276 356 l 5
 324 356 l 5
 330 367 327 365 342 375 c 5
 400 384 l 5
 400 403 l 5
 408 413 l 5
 419 424 425 428 438 432 c 5
 440 454 440 456 456 469 c 5
 447 488 446 504 446 526 c 5
 433 539 432 544 428 564 c 5
 413 569 413 568 408 583 c 5xe0
 342 583 l 5xd0
 333 597 334 594 334 611 c 5
 322 599 314 594 304 594 c 4xc8
 297 594 287 597 276 602 c 5
 273 585 268 582 254 582 c 4
 248 582 241 583 230 583 c 5
 221 566 217 564 200 555 c 5
 194 539 195 535 182 526 c 5
 191 512 192 515 192 498 c 5
 144 460 l 5
 106 460 l 5
 92 483 88 498 88 526 c 5
 96 526 l 5
 96 564 l 5
 111 579 113 581 134 583 c 5
 138 617 151 628 182 640 c 5
 192 640 l 5
 192 668 l 5
 215 675 234 678 258 678 c 5xd0
 258 687 l 5xe0
EndSplineSet
Validated: 1
EndChar

StartChar: three
Encoding: 51 51 8
Width: 620
VWidth: -220
Flags: W
HStem: -95 120<112.56 177.438> 536 57<112 139.121> 583 95<300.889 347.119 348 374.157>
VStem: 432 114<191.734 279.906>
LayerCount: 2
Fore
SplineSet
234 687 m 1xd0
 282 687 l 1
 282 678 l 1
 310 678 l 1
 323 687 329 686 348 687 c 1
 348 678 l 1
 396 678 l 1
 404 659 l 1
 432 659 l 1
 452 640 l 1
 452 611 l 1
 468 602 476 596 490 583 c 1
 490 545 l 1
 500 545 l 1
 500 539 500 533 500 527 c 0
 500 512 498 501 490 489 c 1
 500 460 l 1
 486 451 487 451 470 451 c 1
 480 413 l 1
 466 404 458 399 442 394 c 1
 442 384 l 1
 480 375 l 1
 480 356 l 1
 500 347 l 1
 500 328 l 1
 518 328 l 1
 523 312 529 304 538 290 c 1
 538 287 538 284 538 281 c 0
 538 269 539 265 546 252 c 1
 546 195 l 1
 537 181 538 184 538 167 c 1
 527 156 521 152 508 148 c 1
 518 110 l 1
 504 97 496 90 480 82 c 1
 480 44 l 1
 463 34 451 29 432 25 c 1
 423 9 417 1 404 -13 c 1
 366 -22 l 1
 338 -60 l 1
 334 -60 330 -60 326 -60 c 0
 307 -60 301 -65 282 -79 c 1
 263 -79 257 -79 244 -70 c 1
 224 -70 l 1
 178 -98 l 1
 166 -96 155 -95 144 -95 c 0
 133 -95 124 -96 112 -98 c 1
 100 -79 90 -67 90 -48 c 0
 90 -43 91 -38 92 -32 c 1
 74 -25 74 -19 74 -3 c 0
 74 0 74 3 74 6 c 1
 93 10 103 15 120 25 c 1
 216 25 l 1
 225 34 228 33 244 34 c 1
 254 53 l 1
 271 53 268 54 282 63 c 1
 320 63 l 1
 324 76 327 80 338 91 c 1
 376 101 l 1
 376 139 l 1
 386 157 l 1
 404 157 l 1
 414 214 l 1
 421 226 422 234 432 243 c 1
 432 252 l 1
 423 260 424 263 424 274 c 0
 424 276 424 278 424 280 c 1
 403 289 389 299 376 318 c 1
 328 318 l 1
 310 299 l 1
 294 304 286 309 272 318 c 1
 265 344 247 361 234 384 c 1
 248 393 256 398 272 403 c 1
 282 432 l 1
 348 422 l 1
 357 435 360 435 376 441 c 1
 383 460 389 476 404 489 c 1
 396 508 395 524 395 543 c 0
 395 547 396 551 396 555 c 1
 373 560 366 561 358 583 c 1xb0
 336 583 319 584 300 593 c 1
 282 564 l 1
 254 564 l 1
 245 579 238 582 224 593 c 1
 221 565 209 555 188 536 c 1
 112 536 l 1
 102 593 l 1
 118 601 121 601 140 602 c 1
 158 659 l 1
 175 659 174 659 188 668 c 1
 224 668 l 1
 234 687 l 1xd0
358 479 m 1
 366 470 l 1
 358 479 l 1
EndSplineSet
Validated: 1
EndChar

StartChar: four
Encoding: 52 52 9
Width: 620
VWidth: -235
Flags: W
HStem: -17 38<320 328> 116 104<234.692 291.122> 352 22<311.482 328.931>
VStem: 320 95<627 664>
LayerCount: 2
Fore
SplineSet
320 494 m 5
 311 478 310 474 310 456 c 5
 348 466 l 5
 348 483 347 480 338 494 c 5
 320 494 l 5
272 418 m 5
 282 390 l 5
 265 383 262 374 262 360 c 6
 262 343 l 5
 244 343 l 5
 242 315 238 302 216 286 c 5
 234 201 l 5
 249 206 249 205 254 220 c 5
 262 220 l 5
 271 204 273 205 292 201 c 5
 310 229 l 5
 300 267 l 5
 316 272 324 277 338 286 c 5
 330 297 322 305 322 311 c 4
 322 316 326 320 338 324 c 5
 329 343 329 345 310 352 c 5
 310 362 l 5
 321 371 322 374 326 374 c 4
 328 374 332 373 338 371 c 5
 331 390 329 391 310 400 c 5
 310 409 l 5
 326 414 334 419 348 428 c 5
 348 437 l 5
 310 437 l 5
 294 432 286 427 272 418 c 5
320 248 m 5
 320 229 l 5
 335 234 333 233 338 248 c 5
 320 248 l 5
338 683 m 5
 364 675 387 674 415 674 c 5
 415 627 l 5
 424 627 l 5
 423 608 424 602 415 589 c 5
 415 579 l 5
 424 565 424 551 424 532 c 5
 415 532 l 5
 415 485 l 5
 432 466 l 5
 430 444 426 425 426 406 c 4
 426 395 427 383 432 371 c 5
 424 324 l 5
 435 318 432 320 442 305 c 5
 439 295 438 290 438 285 c 4
 438 280 439 275 442 267 c 5
 442 248 l 5
 433 232 432 228 432 210 c 5
 480 229 l 5
 490 210 l 5
 508 210 l 5
 521 226 524 227 546 229 c 5
 554 210 555 201 556 182 c 5
 566 182 l 5
 566 125 l 5
 546 97 l 5
 508 97 l 5
 500 116 l 5
 442 116 l 5
 437 87 433 57 424 31 c 5
 435 25 432 27 442 12 c 5
 432 -54 l 5
 424 -83 l 5
 396 -92 l 5
 366 -92 l 5
 338 -83 l 5
 331 -60 328 -41 328 -17 c 5
 320 -17 l 5
 320 21 l 5
 328 21 l 5
 328 78 l 5
 337 92 338 89 338 106 c 5
 319 98 311 97 292 97 c 5
 292 116 l 5
 224 116 l 5
 224 106 l 5
 196 106 l 5
 180 114 176 115 158 116 c 5
 158 106 l 5
 82 106 l 5
 54 135 l 5
 54 154 l 5
 65 169 70 178 70 190 c 4
 70 198 68 207 64 220 c 5
 74 229 l 5
 92 239 l 5
 102 248 l 5
 92 267 l 5
 103 278 107 282 120 286 c 5
 140 362 l 5
 178 381 l 5
 169 395 168 392 168 409 c 5
 184 428 191 442 196 466 c 5
 211 478 215 481 234 485 c 5
 234 488 234 491 234 494 c 4
 234 510 236 515 254 523 c 5
 244 560 l 5
 254 579 l 5
 262 589 l 5
 292 598 l 5
 295 624 298 632 320 646 c 5
 320 664 l 5
 338 683 l 5
EndSplineSet
Validated: 1
EndChar

StartChar: five
Encoding: 53 53 10
Width: 620
VWidth: -162
Flags: W
HStem: -86 119<112.513 157.581 158.559 167.218 168 215.393> -67 113<216.275 262> 339 19<321.463 351.088> 368 104<320 366> 368 85<234 253.116 328.977 366> 377 85<234.782 309.121> 377 76<272.741 310> 595 85<314.141 375.218> 604 76<300.559 347.688 348.644 376 432 470> 604 2<244 254> 679 20G<171 213 284.5 306 376 405.5>
VStem: 104 92<491.418 528.535 529.644 537.356> 206 13<462.211 487.922>
LayerCount: 2
Fore
SplineSet
528 368 m 1x2818
 538 358 l 1
 528 368 l 1x2818
270 355 m 0
 271 356 280 356 276 352 c 0
 275 351 266 351 270 355 c 0
320 358 m 1
 343 357 349 360 358 339 c 1
 339 339 336 340 320 349 c 1
 320 358 l 1
206 443 m 1
212 516 m 0
 213 517 223 517 219 513 c 0
 218 512 208 512 212 516 c 0
178 699 m 1x2038
 206 699 l 1
 220 693 234 690 248 690 c 0
 262 690 277 693 292 699 c 1
 300 699 l 1x2038
 312 692 319 689 328 680 c 1x2118
 376 680 l 1x2098
 396 699 l 1x2038
 415 695 419 693 432 680 c 1
 470 680 l 1x2098
 500 642 l 1
 514 651 511 652 528 652 c 1
 525 622 516 618 490 604 c 1x2058
 432 604 l 1
 396 576 l 1
 385 587 380 591 376 604 c 1x2098
 359 604 362 604 348 595 c 1
 328 595 l 1x2118
 320 597 317 599 314 599 c 0
 309 599 307 595 300 585 c 1
 272 593 260 614 234 623 c 1
 234 614 l 1
 244 606 l 5
 254 604 l 1x2058
 188 595 l 1
 196 557 l 1
 188 538 l 1
 197 524 196 527 196 510 c 1
 194 501 194 495 194 488 c 0
 194 480 194 472 196 462 c 1
 206 462 l 1x2518
 206 469 l 2
 206 480 207 482 216 491 c 1
 218 483 219 479 219 475 c 0
 219 469 215 465 206 453 c 1x2218
 225 453 235 454 254 462 c 1
 272 462 l 1x2418
 288 453 291 453 310 453 c 1x2218
 320 472 l 1
 328 472 l 1x3018
 349 457 360 453 386 453 c 1
 405 439 420 432 442 425 c 1
 452 377 l 1
 500 377 l 1
 502 353 506 339 518 320 c 1
 517 300 516 291 508 273 c 1
 533 253 522 229 528 198 c 1
 517 187 513 183 500 179 c 1
 490 131 l 1
 470 122 l 1
 470 93 l 1
 462 84 l 1
 442 75 l 1
 432 46 l 1
 419 42 415 38 404 27 c 1
 366 27 l 1
 358 -20 l 1
 342 -29 338 -30 320 -30 c 1
 320 -47 319 -44 310 -58 c 1
 262 -58 l 1
 262 -67 l 1
 216 -67 l 1x6218
 210 -78 211 -77 196 -86 c 1
 168 -86 l 1
 168 -77 l 1
 151 -77 154 -77 140 -86 c 1
 130 -86 l 1
 116 -77 119 -77 102 -77 c 1
 102 -30 l 1
 112 -30 l 1
 112 27 l 1
 123 30 130 32 136 32 c 0
 144 32 149 29 158 18 c 1
 170 30 177 33 186 33 c 0xa018
 193 33 203 31 216 27 c 1
 222 38 219 36 234 46 c 1
 262 46 l 1
 262 56 l 1
 292 56 l 1
 292 75 l 1
 338 84 l 1
 348 93 l 1
 348 122 l 1
 362 131 370 136 386 141 c 1
 377 157 376 160 376 179 c 1
 406 188 412 204 414 235 c 1
 424 235 l 1
 424 292 l 1
 414 292 l 1
 414 330 l 1
 404 339 l 1
 376 339 l 1
 367 353 366 351 366 368 c 1
 320 368 l 1x7018
 320 377 l 1x2218
 262 377 l 1x2418
 248 368 251 368 234 368 c 1x2818
 234 351 233 353 224 339 c 1
 217 340 214 341 208 341 c 0
 202 341 196 340 188 339 c 1
 178 292 l 1
 159 292 156 293 140 302 c 1
 150 330 l 1
 141 327 136 326 132 326 c 0
 127 326 122 327 112 330 c 1
 112 339 l 1
 95 339 96 340 82 349 c 1
 112 434 l 1
 112 443 l 1
 92 453 l 1
 96 472 99 478 112 491 c 1
 107 500 104 504 104 509 c 0
 104 514 107 519 112 529 c 1
 103 543 102 540 102 557 c 1
 120 595 l 1
 102 595 l 1x2318
 110 613 115 619 130 633 c 1
 112 642 l 1
 112 652 l 1
 150 689 l 1
 167 689 164 690 178 699 c 1x2038
EndSplineSet
Validated: 1
EndChar

StartChar: six
Encoding: 54 54 11
Width: 620
VWidth: -233
Flags: W
HStem: 268 104<344.976 390> 571 85<314 343.309> 599 85<448.644 482.486> 655 20G<336.5 353> 674 20G<382.857 435.143>
VStem: 78 113<136 174 183.297 192.891> 88 95<85.4653 136> 98 85<363.837 401> 308 4.36069<48 54> 438 104<136.74 210.259>
LayerCount: 2
Fore
SplineSet
410 155 m 1x80c0
 418 145 l 1
 410 155 l 1x80c0
308 54 m 0
 312 58 313 49 312 48 c 0
 308 44 307 53 308 54 c 0
183 334 m 1x81c0
 169 322 168 323 164 306 c 1
 178 312 186 315 186 323 c 0
 186 326 186 329 183 334 c 1x81c0
276 316 m 1
 268 278 l 1
 258 268 l 1
 230 259 l 1
 219 239 210 229 210 211 c 0
 210 208 210 205 210 202 c 1
 193 202 197 202 183 193 c 1
 183 186 l 2x81c0
 183 175 182 172 191 164 c 1
 191 155 l 1x84c0
 184 144 183 138 183 126 c 0
 183 123 183 120 183 117 c 1x82c0
 200 103 203 92 210 70 c 1
 231 64 240 63 240 41 c 1
 259 40 267 40 286 32 c 1
 296 33 306 34 316 34 c 0
 325 34 334 33 344 32 c 1
 362 40 370 40 390 41 c 1
 398 60 401 67 418 79 c 1
 410 117 l 1
 427 117 424 117 438 126 c 1
 438 202 l 1
 424 215 416 221 400 230 c 1
 400 268 l 1
 374 268 365 272 344 287 c 1
 296 278 l 1
 291 294 285 304 276 316 c 1
390 694 m 1x8cc0
 428 694 l 1x8cc0
 438 666 l 1
 457 679 461 682 484 684 c 1
 484 676 486 668 486 660 c 0
 486 639 484 619 476 599 c 1xa4c0
 459 599 462 600 448 609 c 1
 433 591 421 590 400 590 c 2
 390 590 l 1
 384 579 387 580 372 571 c 1
 314 571 l 1
 306 533 l 1
 268 524 l 1
 276 486 l 1
 240 476 l 1
 235 461 235 462 220 457 c 1
 220 420 l 1
 183 401 l 1
 183 353 l 1xc1c0
 191 344 l 1xc4c0
 210 353 l 1
 230 325 l 1
 240 363 l 1
 286 363 l 1
 306 382 l 1
 334 377 360 372 390 372 c 1
 400 344 l 1
 428 353 l 1
 438 334 l 1
 456 334 l 1
 484 306 l 1
 484 287 l 1
 504 268 l 1
 532 259 l 1
 522 221 l 1
 539 221 538 220 552 211 c 1
 551 195 551 192 542 183 c 1
 542 164 l 1
 551 154 551 152 552 136 c 1
 542 136 l 1
 552 89 l 1
 539 70 534 64 532 41 c 1
 518 32 521 32 504 32 c 1
 494 22 l 1
 484 -25 l 1
 464 -31 449 -34 428 -34 c 1
 418 -53 l 1
 372 -53 l 1
 362 -72 l 1
 314 -72 l 1
 314 -63 l 1
 248 -63 l 1
 234 -54 237 -53 220 -53 c 1
 203 -44 191 -38 172 -34 c 1
 159 -17 152 -6 144 13 c 1
 116 22 l 1
 113 34 112 40 112 47 c 0
 112 53 113 60 116 70 c 1
 101 79 97 84 88 98 c 1
 88 136 l 1xc2c0
 78 136 l 1
 78 174 l 1
 68 183 l 1
 68 202 l 1
 76 222 78 243 78 264 c 0
 78 275 78 286 78 297 c 1xc4c0
 83 312 83 311 98 316 c 1
 98 325 l 1xc1c0
 88 344 l 1xc2c0
 93 359 91 358 106 363 c 1
 98 381 98 390 98 410 c 1xc1c0
 116 410 l 1
 116 448 l 1
 144 495 l 1
 172 505 l 1
 191 524 l 1
 191 552 l 1
 220 590 l 1
 234 599 242 604 258 609 c 1
 268 618 l 1
 268 637 l 1
 286 656 l 1
 324 656 l 1xc4c0
 330 667 329 665 344 675 c 1x94c0
 362 674 364 674 380 666 c 1
 390 694 l 1x8cc0
EndSplineSet
Validated: 1
EndChar

StartChar: seven
Encoding: 55 55 12
Width: 620
VWidth: 1381
Flags: W
HStem: 656 20G<153.5 175.5 234 277.5>
VStem: 272 103<53.3772 114> 285 90<163 238.16>
LayerCount: 2
Fore
SplineSet
159 676 m 1xa0
 170 676 l 1
 181 667 190 663 195 663 c 0
 197 663 209 667 212 668 c 1
 234 663 l 1
 256 676 l 1
 271 676 l 1
 284 665 295 659 301 659 c 0
 304 659 308 660 314 663 c 1
 340 659 l 1
 351 667 362 672 372 672 c 2
 374 672 l 1
 375 670 378 664 379 659 c 1
 385 659 l 2
 398 659 403 661 407 663 c 1
 434 659 l 1
 438 659 l 2
 445 659 449 660 455 664 c 1
 465 658 473 655 477 655 c 1
 496 661 508 663 516 663 c 2
 522 663 l 1
 528 640 532 621 532 617 c 0
 532 595 504 538 457 453 c 1
 443 408 429 376 415 358 c 1
 419 327 l 1
 409 325 397 293 384 256 c 1
 393 239 l 1
 382 221 375 208 375 200 c 1xa0
 378 184 379 173 379 165 c 2
 379 163 l 1
 376 163 l 2
 370 163 366 152 362 132 c 1
 375 114 l 1
 375 109 l 1
 365 99 357 59 353 34 c 1
 357 33 361 30 361 23 c 1
 341 -33 323 -40 314 -40 c 2
 313 -40 l 1
 301 -34 279 -22 270 -22 c 2
 267 -22 l 1
 267 -11 l 1
 268 -7 270 -2 276 -1 c 1
 273 33 267 45 257 53 c 1
 263 61 272 72 272 84 c 0xc0
 272 87 264 113 262 120 c 1
 274 124 285 131 285 148 c 1
 280 156 l 1
 284 180 285 196 285 207 c 0
 285 222 283 228 283 232 c 0
 283 235 284 236 288 240 c 1
 289 240 l 2
 290 240 290 240 290 242 c 2
 290 245 l 1
 281 279 l 1
 284 279 l 2
 291 279 335 358 352 408 c 1
 352 420 l 2
 352 421 352 422 350 422 c 2
 344 422 l 1
 364 443 380 467 388 492 c 1
 390 492 l 2
 394 492 396 493 396 498 c 2
 396 506 l 1
 391 516 l 1
 399 520 422 532 423 557 c 1
 408 562 394 570 380 582 c 1
 351 576 330 569 314 560 c 1
 288 573 l 1
 283 570 278 569 274 569 c 2
 247 574 l 1
 239 574 l 1
 225 570 189 559 189 537 c 2
 189 536 l 2
 189 529 169 506 161 496 c 1
 170 484 l 1
 170 483 l 2
 170 482 172 481 172 479 c 0
 172 476 164 470 117 456 c 1
 106 456 90 512 88 519 c 1
 93 533 100 553 101 557 c 1
 96 569 93 572 91 572 c 2
 88 572 l 1
 88 575 l 2
 88 590 92 614 106 663 c 1
 136 659 l 1
 139 664 148 670 159 676 c 1xa0
EndSplineSet
Validated: 1
EndChar

StartChar: eight
Encoding: 56 56 13
Width: 620
VWidth: -233
Flags: W
HStem: 268 19<366.096 386> 305 86<234 243.303 244.465 271.396> 311 90<189.274 234 234.881 243.303 244.465 281.581> 590 66<320.418 357.535>
VStem: 244 10<552 576.5> 348 10<-31 -23.5186> 396 9<559.134 580> 405 9<259 278> 414 85<401.644 438.259> 438 90<486.374 532.259 533.741 571>
LayerCount: 2
Fore
SplineSet
282 13 m 1x9f
 282 32 l 1
 272 41 l 1
 272 13 l 1
 282 13 l 1x9f
358 287 m 1
 376 287 l 1
 388 281 386 286 386 268 c 1
 367 272 367 271 358 287 c 1
414 278 m 1
 414 259 l 1
 405 259 l 1
 405 287 l 1
 414 278 l 1
348 259 m 1
 358 249 l 1
 348 259 l 1
254 230 m 1
 262 221 l 1
 254 230 l 1
348 230 m 1
 358 221 l 1
 348 230 l 1
158 193 m 1
 168 183 l 1
 158 193 l 1
272 164 m 1
 280 153 276 151 272 136 c 1
 262 126 l 1
 234 117 l 1
 234 126 l 1
 248 135 245 136 262 136 c 1
 262 153 263 150 272 164 c 1
206 136 m 1
 216 126 l 1
 206 136 l 1
338 136 m 1
 353 131 353 132 358 117 c 1
 343 122 343 121 338 136 c 1
410 133 m 0
 411 134 422 134 418 130 c 0
 417 129 406 129 410 133 c 0
244 316 m 1
 229 308 223 305 212 305 c 0xdf
 208 305 202 306 196 306 c 1
 189 293 188 288 188 277 c 0
 188 274 188 271 188 268 c 1
 178 259 l 1
 162 258 159 258 150 249 c 1
 178 221 l 1
 130 230 l 1
 120 202 l 1
 129 188 135 180 140 164 c 1
 178 145 l 1
 168 117 l 1
 184 108 187 107 206 107 c 1
 208 90 l 1
 222 88 l 1
 234 98 l 1
 242 95 247 94 252 94 c 0
 257 94 262 95 272 98 c 1
 282 89 l 1
 279 79 278 73 278 68 c 0
 278 63 283 80 286 72 c 1
 295 76 l 1
 300 98 l 1
 309 83 309 85 320 79 c 1
 336 87 339 88 358 89 c 1
 363 73 l 1
 373 73 l 1
 376 83 380 75 380 80 c 0
 380 84 379 89 376 98 c 1
 397 98 412 101 432 107 c 1
 440 132 445 137 470 145 c 1
 468 166 467 168 452 183 c 1
 469 183 466 184 480 193 c 1
 480 202 l 1
 464 210 460 210 442 211 c 1
 462 259 l 1
 445 265 440 267 440 277 c 0
 440 282 440 289 442 297 c 1
 410 297 376 301 348 316 c 1
 328 297 l 1
 319 306 312 309 300 316 c 1
 282 316 l 1
 273 313 268 311 264 311 c 0xbf
 259 311 254 313 244 316 c 1
338 571 m 1
 358 571 l 1
 353 556 353 557 338 552 c 1
 338 571 l 1
234 486 m 1
 249 481 249 482 254 467 c 1
 234 467 l 1
 234 486 l 1
366 599 m 1
 347 591 339 590 320 590 c 1
 305 580 306 582 300 571 c 1
 284 579 280 579 262 580 c 1
 254 552 l 1
 244 552 l 1
 244 590 l 1
 225 582 226 582 224 561 c 1
 168 552 l 1
 168 535 169 538 178 524 c 1
 140 505 l 1
 140 495 l 1
 158 486 l 1
 150 448 l 1
 169 435 171 432 178 410 c 1
 197 404 213 401 234 401 c 1xbf
 234 391 l 1xdf
 253 391 259 392 272 401 c 1
 282 401 l 1
 300 388 333 387 358 382 c 1
 377 395 382 399 405 401 c 1
 414 415 414 412 414 429 c 1
 431 438 433 440 442 457 c 1
 424 448 l 1
 424 457 l 1
 430 466 432 469 432 471 c 0
 432 473 430 477 424 486 c 1
 434 494 438 500 438 506 c 0xbf40
 438 513 433 520 424 533 c 1
 433 537 436 542 436 548 c 0
 436 560 420 574 405 580 c 1
 405 563 405 566 414 552 c 1
 396 558 396 558 396 571 c 2
 396 580 l 1
 385 591 379 595 366 599 c 1
206 666 m 1
 232 661 258 656 282 647 c 1
 294 663 299 663 320 666 c 1
 329 660 333 656 338 656 c 0
 343 656 348 660 358 666 c 1
 366 656 l 1
 376 656 l 1
 376 666 l 1
 386 666 l 1
 393 659 386 660 405 666 c 1
 424 652 440 644 462 637 c 1
 462 599 l 1
 470 590 l 1
 508 590 l 1
 528 571 l 1
 528 552 529 549 538 533 c 1
 537 517 537 514 528 505 c 1
 528 486 l 1xbf40
 537 473 537 467 538 448 c 1
 508 439 l 1
 507 423 508 419 499 410 c 1xbf
 499 372 l 1xbf
 490 358 490 361 490 344 c 1
 506 339 514 334 528 325 c 1
 538 316 l 1
 538 287 l 1
 553 276 561 264 574 249 c 1
 574 232 575 235 584 221 c 1
 584 211 l 1
 581 202 580 198 580 194 c 0
 580 189 581 184 584 174 c 1
 574 159 577 161 566 155 c 1
 574 107 l 1
 546 98 l 1
 528 51 l 1xbf40
 505 42 487 34 462 32 c 1
 452 3 l 1
 386 -6 l 1
 375 0 375 -2 366 13 c 1
 360 -3 361 -7 348 -16 c 1
 357 -30 358 -27 358 -44 c 1
 348 -31 l 1
 339 -3 l 1
 333 -3 326 -16 320 -16 c 0
 305 -16 294 -14 282 -6 c 1
 268 -15 271 -16 254 -16 c 1
 244 3 l 1
 196 -6 l 1
 184 9 182 13 178 32 c 1
 120 32 l 1
 116 45 113 49 102 60 c 1
 102 98 l 1
 79 100 73 104 54 117 c 1
 52 140 49 145 36 164 c 1
 46 230 l 1
 55 245 53 243 64 249 c 1
 64 287 l 1
 83 299 99 308 120 316 c 1
 120 344 l 1
 130 353 l 1
 158 353 l 1
 158 363 l 1
 134 371 133 375 130 401 c 1
 92 410 l 1
 92 448 l 1
 79 452 75 456 64 467 c 1
 64 476 l 1
 75 487 79 491 92 495 c 1
 87 511 83 519 74 533 c 1
 87 552 90 557 92 580 c 1
 111 592 126 597 150 599 c 1
 150 637 l 1
 172 644 187 652 206 666 c 1
EndSplineSet
Validated: 1
EndChar

StartChar: nine
Encoding: 57 57 14
Width: 620
VWidth: -218
Flags: W
HStem: 245 111<239.596 291.626> 259 109<292.466 337.443> 279 105<186.786 233.626>
LayerCount: 2
Fore
SplineSet
386 -11 m 1x00
 394 8 394 6 414 8 c 1
 404 -8 404 -7 386 -11 c 1x00
310 368 m 1x40
 307 360 299 356 290 356 c 0x80
 269 356 240 371 234 386 c 1
 225 384 220 384 212 384 c 0x20
 204 384 198 384 188 386 c 1
 186 414 174 430 158 453 c 1
 176 462 178 464 188 481 c 1
 180 481 l 2
 170 481 166 482 158 491 c 1
 170 500 180 504 196 509 c 1
 182 521 182 521 178 538 c 1
 216 547 l 1
 206 563 206 566 206 585 c 1
 244 585 l 1
 252 601 260 609 272 623 c 1
 310 604 l 1
 314 620 312 619 328 623 c 1
 336 599 340 598 366 595 c 1
 386 576 l 1
 376 557 l 1
 392 548 400 541 414 528 c 1
 416 506 416 504 432 491 c 1
 424 453 l 1
 441 453 438 452 452 443 c 1
 432 424 413 414 404 386 c 1
 348 368 l 1
 358 339 l 1
 346 342 325 368 311 368 c 2
 310 368 l 1x40
362 684 m 0
 355 684 348 683 338 680 c 1
 332 691 335 689 320 699 c 1
 303 699 306 698 292 689 c 1
 244 699 l 1
 224 680 l 1
 178 680 l 1
 166 665 162 661 158 642 c 1
 120 632 l 1
 120 576 l 1
 102 576 l 1
 102 528 l 1
 82 521 83 519 74 500 c 1
 82 487 84 483 84 475 c 0
 84 472 83 467 82 462 c 1
 85 452 88 445 88 438 c 0
 88 428 84 418 82 405 c 1
 96 396 104 391 120 386 c 1
 112 358 l 1
 126 339 129 337 150 330 c 1
 150 322 l 2
 150 313 151 312 158 301 c 1
 180 290 194 279 214 279 c 0x20
 220 279 227 279 234 282 c 1
 238 263 242 260 254 245 c 1
 262 245 l 2x80
 278 245 284 246 292 264 c 1
 302 261 308 259 314 259 c 0x40
 321 259 326 261 338 264 c 1
 350 254 360 250 376 245 c 1
 385 259 391 266 396 282 c 1
 414 282 l 1
 420 260 426 252 442 235 c 1
 425 235 428 235 414 226 c 1
 415 219 416 214 416 210 c 0
 416 206 415 202 414 197 c 1
 432 207 l 1
 423 192 418 187 404 178 c 1
 404 159 l 1
 376 150 l 1
 370 130 366 114 366 93 c 1
 335 91 324 87 320 55 c 1
 282 55 l 1
 266 41 261 37 254 18 c 1
 244 18 l 1
 243 34 243 36 234 46 c 1
 224 43 218 41 212 41 c 0
 205 41 200 43 188 46 c 1
 168 27 l 1
 168 -1 l 1
 150 -20 l 1
 120 -30 l 1
 120 -68 l 1
 168 -68 l 1
 177 -84 177 -82 196 -86 c 1
 189 -97 188 -98 188 -107 c 2
 188 -115 l 1
 196 -115 l 1
 216 -68 l 1
 241 -68 247 -68 262 -49 c 1
 276 -58 275 -58 292 -58 c 1
 299 -47 300 -46 300 -38 c 2
 300 -30 l 1
 330 -30 350 -27 376 -11 c 1
 376 27 l 1
 424 27 l 1
 433 44 440 54 442 74 c 1
 480 84 l 1
 490 131 l 1
 518 141 l 1
 518 160 517 165 508 178 c 1
 513 187 516 192 516 197 c 0
 516 202 513 206 508 216 c 1
 538 245 l 1
 538 255 536 263 536 271 c 0
 536 280 524 288 524 296 c 0
 524 298 524 300 526 302 c 2
 546 320 l 1
 528 320 l 1
 538 377 l 1
 528 392 529 390 518 396 c 1
 528 434 l 1
 516 448 517 449 500 453 c 1
 508 469 515 477 528 491 c 1
 519 510 517 516 500 528 c 1
 500 561 499 591 490 623 c 1
 452 632 l 1
 452 651 l 1
 439 655 435 659 424 670 c 1
 393 670 411 684 362 684 c 0
EndSplineSet
Validated: 9
EndChar

StartChar: colon
Encoding: 58 58 15
Width: 620
VWidth: -91
Flags: W
VStem: 149 292
LayerCount: 2
Fore
SplineSet
291 295 m 5
 300 285 l 5
 314 294 311 295 328 295 c 5
 343 285 341 287 347 276 c 5
 385 276 l 5
 396 254 407 237 423 219 c 5
 432 191 l 5
 404 172 l 5
 432 162 l 5
 428 143 425 140 413 125 c 5
 395 125 l 5
 390 110 391 111 376 106 c 5
 376 68 l 5
 328 68 l 5
 328 58 l 5
 243 58 l 5
 215 68 l 5
 205 106 l 5
 188 115 186 117 177 134 c 5
 149 144 l 5
 151 167 159 187 159 209 c 4
 159 212 158 215 158 219 c 5
 173 231 177 234 196 238 c 5
 205 248 l 5
 205 265 206 262 215 276 c 5
 243 266 l 5
 252 288 269 286 291 295 c 5
300 600 m 1
 309 590 l 1
 323 599 320 600 337 600 c 1
 352 590 350 592 356 581 c 1
 394 581 l 1
 405 559 416 542 432 524 c 1
 441 496 l 1
 413 477 l 1
 441 467 l 1
 437 448 434 445 422 430 c 1
 404 430 l 1
 399 415 400 416 385 411 c 1
 385 373 l 1
 337 373 l 1
 337 363 l 1
 252 363 l 1
 224 373 l 1
 214 411 l 1
 197 420 195 422 186 439 c 1
 158 449 l 1
 160 472 168 492 168 514 c 0
 168 517 167 520 167 524 c 1
 182 536 186 539 205 543 c 1
 214 553 l 1
 214 570 215 567 224 581 c 1
 252 571 l 1
 261 593 278 591 300 600 c 1
EndSplineSet
Validated: 1
EndChar

StartChar: semicolon
Encoding: 59 59 16
Width: 620
VWidth: -99
Flags: W
HStem: 80 38<414 441.259> 289 9<372.004 386>
VStem: 158 283
LayerCount: 2
Fore
SplineSet
300 600 m 5
 309 590 l 5
 323 599 320 600 337 600 c 5
 352 590 350 592 356 581 c 5
 394 581 l 5
 405 559 416 542 432 524 c 5
 441 496 l 5
 413 477 l 5
 441 467 l 5
 437 448 434 445 422 430 c 5
 404 430 l 5
 399 415 400 416 385 411 c 5
 385 373 l 5
 337 373 l 5
 337 363 l 5
 252 363 l 5
 224 373 l 5
 214 411 l 5
 197 420 195 422 186 439 c 5
 158 449 l 5
 160 472 168 492 168 514 c 4
 168 517 167 520 167 524 c 5
 182 536 186 539 205 543 c 5
 214 553 l 5
 214 570 215 567 224 581 c 5
 252 571 l 5
 261 593 278 591 300 600 c 5
363 323 m 1
 359 319 357 331 362 331 c 0
 364 331 363 323 363 323 c 1
358 307 m 1
 386 298 l 1
 386 289 l 1
 367 293 367 291 358 307 c 1
310 279 m 1
 323 295 326 296 348 298 c 1
 363 286 367 283 386 279 c 1
 394 250 412 235 434 213 c 1
 434 203 l 1
 424 184 l 1
 442 166 l 1
 435 145 430 134 414 118 c 1
 431 118 428 118 442 109 c 1
 442 90 l 1
 426 81 422 80 404 80 c 1
 414 33 l 1
 376 24 l 1
 376 -24 l 1
 330 -33 l 1
 329 -52 328 -55 320 -71 c 1
 282 -61 l 1
 276 -72 279 -71 264 -80 c 1
 226 -90 l 1
 196 -52 l 1
 196 -14 l 1
 226 -14 l 1
 234 -5 l 1
 236 17 238 20 254 33 c 1
 254 52 255 58 264 71 c 1
 254 109 l 1
 250 108 245 108 242 108 c 0
 227 108 215 113 196 118 c 1
 196 203 l 1
 180 207 182 206 178 222 c 1
 226 232 l 1
 226 241 l 1
 254 251 l 1
 254 269 255 273 264 289 c 1
 283 288 291 287 310 279 c 1
178 156 m 1
 188 147 l 1
 178 156 l 1
EndSplineSet
Validated: 1
EndChar

StartChar: less
Encoding: 60 60 17
Width: 620
VWidth: -218
Flags: W
VStem: 168 136<213.795 269>
LayerCount: 2
Fore
SplineSet
304 -62 m 5
 372 -114 l 6
 371 -113 370 -113 370 -112 c 0
 370 -102 439 -95 439 -91 c 1
 439 -91 439 -90 437 -90 c 5
 446 -43 l 5
 434 -28 431 -24 427 -5 c 5
 389 23 l 5
 399 52 l 5
 385 61 387 61 370 61 c 5
 370 99 l 5
 342 109 l 5
 342 156 l 5
 333 156 l 5
 333 203 l 5
 322 214 317 218 304 222 c 5
 304 269 l 5
 276 307 l 5
 306 315 l 5
 304 336 305 336 286 344 c 5
 286 353 l 5
 304 353 308 353 324 362 c 5
 324 410 l 5
 340 423 342 426 344 448 c 5
 363 462 367 471 372 495 c 5
 389 495 386 495 400 504 c 5
 390 542 l 5
 406 555 408 558 410 580 c 5
 426 589 424 589 428 608 c 5
 438 608 l 5
 438 627 l 5
 449 633 446 631 456 646 c 5
 456 684 l 5
 442 693 445 694 428 694 c 5
 428 703 l 5
 410 712 l 5
 362 722 l 5
 351 711 347 707 334 703 c 5
 334 665 l 5
 306 637 l 5
 306 620 305 622 314 608 c 5
 298 599 290 593 276 580 c 5
 276 533 l 5
 267 524 268 522 268 511 c 6
 268 504 l 5
 252 495 244 489 230 476 c 5
 240 457 l 5
 227 453 221 449 210 438 c 5
 210 391 l 5
 182 381 l 5
 178 362 148 311 136 296 c 5
 133 285 168 268 168 259 c 4
 168 244 171 230 172 213 c 5
 179 206 178 213 172 194 c 5
 181 175 l 5
 200 165 l 5
 210 118 l 5
 219 118 l 5
 228 71 l 5
 242 62 240 61 257 61 c 5
 260 35 266 20 285 4 c 5
 285 -24 l 5
 294 -39 293 -37 304 -43 c 5
 304 -62 l 5
EndSplineSet
Validated: 37
EndChar

StartChar: equal
Encoding: 61 61 18
Width: 620
VWidth: -166
Flags: W
HStem: 136 171<433.216 521.073> 146 142<196.56 243.119 244 299.068> 423 142<202.56 248.119 249 305.068>
LayerCount: 2
Fore
SplineSet
438 593 m 5x20
 464 585 486 584 514 584 c 5
 523 570 528 562 533 546 c 5
 543 565 l 5
 552 565 l 5
 552 555 l 6
 552 527 561 499 561 470 c 5
 552 470 l 5
 552 423 l 5
 522 414 493 413 463 413 c 6
 438 413 l 5
 429 404 428 404 417 404 c 6
 410 404 l 5
 395 413 397 412 391 423 c 5
 353 423 l 5
 339 411 325 408 306 404 c 5
 291 413 293 412 287 423 c 5
 249 423 l 5
 249 413 l 5
 230 413 224 414 211 423 c 5
 202 423 l 5
 183 413 l 5
 155 423 l 5
 145 410 142 410 126 404 c 5
 117 423 l 5
 98 423 l 5
 79 442 l 5
 79 463 82 479 88 499 c 5
 72 508 74 508 70 527 c 5
 107 546 l 5
 107 564 108 568 117 584 c 5
 139 582 142 581 155 565 c 5
 164 565 l 5
 172 575 179 581 186 581 c 4
 192 581 197 577 202 565 c 5
 214 568 222 571 230 571 c 4
 236 571 242 570 249 565 c 5
 259 565 l 5
 273 577 286 580 306 584 c 5
 325 555 l 5
 334 584 l 5
 363 565 l 5
 372 584 l 5
 420 574 l 5
 438 593 l 5x20
432 316 m 1
 458 308 480 307 508 307 c 1xa0
 517 293 523 285 528 269 c 1
 538 288 l 1
 546 288 l 1
 546 278 l 2
 546 250 556 222 556 193 c 1
 546 193 l 1
 546 146 l 1x60
 516 137 488 136 458 136 c 2
 432 136 l 1xa0
 423 127 423 127 412 127 c 2
 404 127 l 1
 389 136 392 135 386 146 c 1
 348 146 l 1
 334 134 319 131 300 127 c 1
 285 136 288 135 282 146 c 1
 244 146 l 1x60
 244 136 l 1xa0
 225 136 219 137 206 146 c 1
 196 146 l 1x60
 178 136 l 1xa0
 150 146 l 1
 140 133 136 133 120 127 c 1
 112 146 l 1
 92 146 l 1x60
 74 165 l 1
 74 186 76 202 82 222 c 1
 66 231 68 231 64 250 c 1
 102 269 l 1
 102 287 103 291 112 307 c 1xa0
 134 305 137 304 150 288 c 1
 158 288 l 1
 166 298 173 304 180 304 c 0
 186 304 191 300 196 288 c 1
 208 291 216 294 224 294 c 0
 230 294 237 293 244 288 c 1
 254 288 l 1x60
 268 300 280 303 300 307 c 1
 320 278 l 1
 328 307 l 1xa0
 358 288 l 1x60
 366 307 l 1xa0
 414 297 l 1
 432 316 l 1
EndSplineSet
Validated: 1
EndChar

StartChar: greater
Encoding: 62 62 19
Width: 620
VWidth: -218
Flags: W
VStem: 268 114<391 446.983> 288 136<209.287 269>
LayerCount: 2
Fore
SplineSet
288 -62 m 1x40
 220 -114 l 2
 221 -113 222 -113 222 -112 c 0
 222 -102 153 -95 153 -91 c 1
 153 -91 154 -90 156 -90 c 1
 146 -43 l 1
 158 -28 162 -24 166 -5 c 1
 204 23 l 1
 194 52 l 1
 208 61 205 61 222 61 c 1
 222 99 l 1
 250 109 l 1
 250 156 l 1
 260 156 l 1
 260 203 l 1
 271 214 275 218 288 222 c 1
 288 269 l 1x40
 316 307 l 1
 287 315 l 1
 289 336 287 336 306 344 c 1
 306 353 l 1
 288 353 284 353 268 362 c 1
 268 410 l 1
 252 423 251 426 249 448 c 1
 230 462 226 471 221 495 c 1
 204 495 207 495 193 504 c 1
 202 542 l 1
 186 555 185 558 183 580 c 1
 167 589 168 589 164 608 c 1
 155 608 l 1
 155 627 l 1
 144 633 146 631 136 646 c 1
 136 684 l 1
 150 693 147 694 164 694 c 1
 164 703 l 1
 183 712 l 1
 231 722 l 1
 242 711 246 707 259 703 c 1
 259 665 l 1
 287 637 l 1
 287 620 287 622 278 608 c 1
 294 599 302 593 316 580 c 1
 316 533 l 1
 325 524 325 522 325 511 c 2
 325 504 l 1
 341 495 349 489 363 476 c 1
 353 457 l 1
 366 453 371 449 382 438 c 1
 382 391 l 1x80
 410 381 l 1
 414 362 444 311 456 296 c 1
 459 285 424 268 424 259 c 0x40
 424 244 421 230 420 213 c 1
 413 206 414 213 420 194 c 1
 412 175 l 1
 392 165 l 1
 382 118 l 1x80
 374 118 l 1
 364 71 l 1
 350 62 353 61 336 61 c 1
 333 35 327 20 308 4 c 1
 308 -24 l 1
 299 -39 299 -37 288 -43 c 1
 288 -62 l 1x40
EndSplineSet
Validated: 37
EndChar

StartChar: question
Encoding: 63 63 20
Width: 640
VWidth: 1060
Flags: W
HStem: 593 112<277.33 357.52> 612 74<305.754 372.766> 676 20G<370.5 406>
VStem: 252 102<218.726 298.991>
LayerCount: 2
Fore
SplineSet
241 105 m 5x10
 262 121 259 110 269 122 c 5
 269 132 270 130 275 138 c 5
 292 132 l 5
 297 145 308 144 321 149 c 5
 327 143 l 5
 335 148 333 149 343 149 c 5
 352 143 350 144 354 138 c 5
 377 138 l 5
 384 125 390 115 400 105 c 5
 405 89 l 5
 389 78 l 5
 405 72 l 5
 403 61 401 59 394 50 c 5
 383 50 l 5
 380 41 381 42 372 39 c 5
 372 17 l 5
 343 17 l 5
 343 11 l 5
 292 11 l 5
 275 17 l 5
 269 39 l 5
 259 44 257 46 252 56 c 5
 235 61 l 5
 236 74 241 86 241 99 c 6
 241 105 l 5x10
248 529 m 5
 226 489 243 424 215 424 c 4
 202 424 189 423 184 423 c 5
 184 423 169 414 157 414 c 4
 149 414 143 417 138 423 c 5
 122 431 130 448 121 463 c 4
 107 488 98 492 85 498 c 5
 90 513 95 528 101 548 c 5
 100 553 100 558 98 597 c 5
 83 611 l 5
 108 611 l 6
 140 611 162 667 205 672 c 5
 210 678 222 688 248 688 c 6
 261 688 l 6
 288 688 293 702 295 705 c 5
 300 705 l 6x90
 323 705 348 686 358 686 c 4x50
 364 686 368 691 373 696 c 5x30
 406 680 l 6
 418 675 429 673 441 673 c 6
 451 673 l 5
 451 663 l 6
 451 647 470 648 485 633 c 5
 488 632 490 632 494 632 c 6
 501 632 l 5
 508 612 l 5x50
 508 599 l 5
 509 593 l 5x90
 539 565 515 523 545 507 c 6
 557 501 l 5
 547 491 l 6
 524 468 511 420 478 392 c 5
 469 364 449 346 426 333 c 5
 404 319 l 6
 355 289 354 285 354 275 c 4
 354 252 370 248 370 229 c 4
 370 225 369 224 369 223 c 4
 369 202 349 193 338 188 c 5
 313 199 285 187 270 213 c 5
 263 218 252 230 252 252 c 4
 252 256 256 279 260 298 c 5
 265 300 266 300 267 300 c 5
 266 304 261 311 261 319 c 6
 261 320 l 5
 266 339 278 355 299 371 c 4
 308 378 314 396 332 406 c 5
 332 406 370 417 383 417 c 0
 391 417 398 416 404 416 c 0
 412 416 417 419 417 428 c 4
 417 429 417 463 420 466 c 4
 429 477 442 478 448 482 c 5
 446 492 434 499 420 528 c 5
 416 531 413 538 413 542 c 4
 413 553 423 563 425 567 c 5
 416 572 391 573 391 590 c 6
 391 591 l 5
 395 611 l 5
 389 613 383 613 380 613 c 4
 372 613 366 612 359 612 c 4x50
 343 612 321 593 305 593 c 4x90
 294 593 284 599 277 611 c 5
 230 596 216 579 216 569 c 0
 216 560 236 549 248 529 c 5
428 570 m 5
 433 573 l 5
 431 574 l 5
 428 570 l 5
EndSplineSet
Validated: 1
EndChar

StartChar: at
Encoding: 64 64 21
Width: 620
VWidth: -189
Flags: W
HStem: 42 85<250.825 319.111 322.754 513.761> 58 69<206.747 319.111 322.754 476.548> 66 62<178.983 319.111 322.754 434.241> 173 89<238.379 284.884> 329 86<245 264.54 311.373 343.397> 461 79<324.605 358> 584 98<308.883 405.251> 594 62<214.516 271.625 272.608 283.456> 596 79<121.172 165.906 166.376 213.626>
VStem: 35 65<297.405 423.109> 80 82<112.189 147.626> 218 7<279.225 295> 262 10<443.181 458.305> 298 13<415.174 427> 358 73<434.51 461> 457 71<295.204 338.655> 476 85<384.327 446.167 504.467 557.996>
LayerCount: 2
Fore
SplineSet
553 110 m 0x9c3e
 553 66 516 42 478 42 c 0x9c3e
 447 42 417 57 380 58 c 0x5c3e
 233 64 222 66 206 66 c 0
 198 66 190 66 166 65 c 1
 161 65 l 2
 145 65 131 67 116 80 c 1
 87 81 81 100 80 124 c 1x3c3e
 75 141 75 163 72 190 c 1
 47 204 42 224 42 245 c 0
 42 248 42 251 42 254 c 0
 36 275 35 297 35 320 c 0
 35 334 35 349 36 364 c 1
 28 386 20 405 20 424 c 0
 20 435 22 446 29 458 c 1
 30 477 33 497 51 552 c 1
 48 559 47 566 47 573 c 0
 47 589 57 603 81 614 c 1
 108 624 104 642 122 654 c 1
 140 669 150 674 158 674 c 0
 161 674 164 673 166 672 c 1
 174 674 183 675 191 675 c 0x3cde
 199 675 206 674 214 673 c 1
 225 662 236 656 247 656 c 0x1d5e
 256 656 264 660 272 668 c 1
 285 667 296 660 308 660 c 0
 327 660 335 682 363 682 c 0x1e5e
 376 682 390 676 406 663 c 1
 422 661 438 657 454 651 c 0
 455 651 457 650 458 650 c 0
 465 650 471 658 478 658 c 0
 480 658 482 657 484 656 c 0
 489 653 488 607 492 604 c 0
 499 598 514 615 519 608 c 0
 529 595 534 580 539 564 c 1
 554 547 561 533 561 523 c 0x1d5e80
 561 517 559 513 554 510 c 1
 558 380 l 9
 554 357 535 351 526 330 c 17
 526 318 528 308 528 298 c 0
 528 286 525 275 510 262 c 1
 490 256 l 1
 490 222 l 1
 486 212 487 213 477 209 c 1
 483 182 l 1
 477 176 l 1
 465 176 467 176 457 182 c 1
 451 176 450 176 442 176 c 2
 437 176 l 1
 430 178 426 180 422 180 c 0
 417 180 412 178 404 176 c 1
 394 186 390 190 384 203 c 1
 376 193 376 192 364 189 c 1
 360 199 357 203 353 203 c 0
 346 203 339 192 331 182 c 1
 305 196 l 1
 303 180 287 173 271 173 c 0
 259 173 246 176 238 182 c 1
 218 176 l 1
 212 186 212 184 212 196 c 1
 200 196 202 195 192 189 c 1
 186 189 l 1
 176 195 177 196 165 196 c 1
 146 209 l 1
 126 249 l 1
 125 262 125 264 119 275 c 1
 126 295 l 1
 113 302 l 1
 117 319 119 325 132 335 c 1
 132 348 l 1
 146 362 l 1
 156 368 153 368 165 368 c 1
 146 401 l 1
 146 434 l 1
 140 440 139 442 139 450 c 2
 139 461 l 1
 152 467 l 1
 152 494 l 1
 165 494 l 1
 172 507 l 1
 182 511 182 510 186 520 c 1
 212 520 l 1
 215 529 217 532 225 540 c 1
 243 540 257 541 272 547 c 1
 293 541 313 540 334 540 c 2
 351 540 l 1
 361 534 366 531 377 527 c 1
 386 517 391 512 397 501 c 1
 414 497 420 493 431 480 c 1
 431 434 l 1
 439 430 437 431 444 421 c 1
 444 375 l 1
 438 365 437 366 437 354 c 1
 446 347 446 346 450 335 c 1
 440 329 443 329 431 329 c 1
 437 316 447 306 457 295 c 1x1d1f
 457 316 482 329 496 384 c 1
 490 391 482 396 482 408 c 0
 482 417 486 429 500 450 c 1
 481 493 454 489 454 504 c 0
 454 514 476 521 476 530 c 0
 476 544 450 558 444 570 c 1
 429 576 424 593 410 596 c 1x1c9e80
 406 589 392 584 379 584 c 1x1e1e80
 379 584 322 591 284 612 c 1
 272 609 285 594 252 594 c 0x1d1e80
 240 594 226 596 215 596 c 0
 212 596 209 595 206 595 c 0
 180 592 154 591 126 590 c 1
 97 544 112 500 92 450 c 1
 98 427 100 405 100 384 c 0x1cde80
 100 354 95 326 86 296 c 1
 90 254 95 230 114 192 c 1
 144 180 165 168 165 148 c 0
 165 140 162 134 162 128 c 0
 162 122 165 116 178 112 c 1
 199 121 218 128 236 128 c 0x3cbe
 243 128 250 127 258 124 c 1
 262 124 265 125 269 125 c 0
 284 125 301 121 320 110 c 1
 379 123 422 127 452 127 c 0
 460 127 467 126 474 126 c 1
 495 130 515 155 530 155 c 0
 544 155 553 130 553 110 c 0x9c3e
251 322 m 1
 262 315 262 315 265 302 c 1
 252 308 252 307 251 322 c 1
311 335 m 1
 298 322 l 1
 278 329 l 1
 238 329 l 1
 228 321 225 318 212 315 c 1
 218 295 l 1
 211 299 209 300 205 300 c 0
 201 300 198 299 192 295 c 1
 199 275 l 1
 212 275 l 1
 218 285 218 283 218 295 c 1
 225 295 l 1
 225 268 l 1
 232 262 l 1
 285 262 l 1
 285 289 l 1
 294 286 297 283 305 275 c 1
 323 281 338 288 358 289 c 1
 364 329 l 1
 358 335 l 1
 344 335 l 1
 337 333 333 331 329 331 c 0
 324 331 319 333 311 335 c 1
265 461 m 1
 271 454 271 452 272 441 c 1
 265 446 262 446 262 450 c 0
 262 452 264 455 265 461 c 1
338 454 m 1
 344 448 l 1
 338 454 l 1
298 427 m 1
 311 427 l 1
 311 415 l 1
 327 416 331 418 344 427 c 1
 348 416 349 414 358 408 c 1
 364 419 363 421 364 434 c 1
 358 445 358 448 358 461 c 1
 344 461 337 461 324 467 c 1
 298 461 l 1
 289 467 285 466 272 467 c 1
 251 461 l 1
 245 415 l 1
 257 415 255 415 265 421 c 1
 271 410 272 411 285 408 c 1
 295 416 295 415 298 427 c 1
EndSplineSet
Validated: 5
EndChar

StartChar: A
Encoding: 65 65 22
Width: 620
VWidth: -189
Flags: W
HStem: 13 85<50.7369 91.5663> 354 19<286 304.73> 401 10<315 324> 655 20G<286 309.5 340.5 346.857>
VStem: 240 151<524.691 608.766>
LayerCount: 2
Fore
SplineSet
286 127 m 5
 305 114 308 111 315 89 c 5
 306 80 l 5
 286 80 l 5
 281 92 280 97 280 103 c 4
 280 109 281 115 286 127 c 5
286 439 m 5
 296 430 l 5
 286 439 l 5
315 439 m 5
 315 411 l 5
 324 411 l 5
 334 439 l 5
 315 439 l 5
315 401 m 5
 296 390 293 391 286 373 c 5
 324 373 l 5
 313 362 310 357 306 344 c 5
 292 353 293 354 276 354 c 5
 265 330 260 305 258 278 c 5
 282 278 301 276 324 269 c 5
 338 278 346 283 362 288 c 5
 362 297 l 5
 334 307 l 5
 344 344 l 5
 335 363 334 379 334 401 c 5
 315 401 l 5
362 193 m 5
 345 186 328 183 315 174 c 5
 286 174 l 5
 277 180 272 182 266 182 c 4
 259 182 251 179 240 174 c 5
 249 161 252 161 268 155 c 5
 249 142 238 138 230 117 c 5
 268 108 l 5
 268 80 l 5
 276 70 l 5
 324 61 l 5
 334 108 l 5
 372 108 l 5
 391 127 l 5
 384 150 380 169 380 193 c 5
 362 193 l 5
391 4 m 5
 349 22 341 0 324 32 c 5
 276 32 l 5
 268 4 l 5
 247 4 229 7 210 13 c 5
 195 8 197 9 192 -6 c 5
 170 -4 159 -2 144 13 c 5
 22 13 l 5
 2 32 l 5
 22 89 l 5
 50 117 l 5
 66 113 64 114 68 98 c 5
 78 98 l 5
 85 117 86 118 106 127 c 5
 113 146 119 161 134 174 c 5
 134 191 135 188 126 202 c 5
 126 221 l 5
 143 262 125 273 154 288 c 5
 156 310 156 312 172 325 c 5
 172 382 l 5
 192 382 l 5
 192 399 l 6
 192 413 193 423 210 430 c 5
 202 448 202 457 202 477 c 5
 211 492 209 490 220 496 c 5
 220 524 l 5
 229 539 229 537 240 543 c 5
 240 619 l 5
 258 619 l 5
 276 638 l 5
 276 647 l 5
 286 647 l 5
 286 657 l 5
 306 675 l 5
 313 674 318 674 324 674 c 4
 330 674 337 674 344 675 c 5
 352 619 l 5
 369 619 366 618 380 609 c 5
 380 594 l 6
 380 582 383 576 391 562 c 5
 391 524 l 5
 400 524 l 5
 400 486 l 5
 411 480 408 482 418 467 c 5
 418 420 l 5
 428 420 l 5
 428 382 l 5
 438 382 l 5
 438 325 l 5
 448 325 l 5
 448 288 l 5
 461 284 465 280 476 269 c 5
 476 263 474 258 474 254 c 4
 474 242 476 235 484 221 c 5
 484 165 l 5
 494 165 l 5
 494 127 l 5
 552 117 l 5
 560 108 l 5
 560 89 l 5
 590 80 l 5
 590 61 l 5
 607 61 604 60 618 51 c 5
 608 19 587 11 560 -6 c 5
 522 -6 l 5
 522 4 l 5
 516 4 510 4 504 4 c 4
 489 4 478 5 466 13 c 5
 400 4 l 5
 391 4 l 5
EndSplineSet
Validated: 9
EndChar

StartChar: B
Encoding: 66 66 23
Width: 620
VWidth: -220
Flags: W
HStem: -8 21G<248.5 262> 191 28<447.447 471.556> 323 67<328 348> 588 76<140.838 167.263> 598 75<320 376> 598 66<300 320>
VStem: 158 95<125.468 152.356 163.74 229> 168 85<125.468 152.356 163.74 218.859 219.645 229> 266 4.36069<207 213>
LayerCount: 2
Fore
SplineSet
266 213 m 0xe080
 270 217 271 208 270 207 c 0
 266 203 265 212 266 213 c 0xe080
282 456 m 1
 282 437 l 1
 253 427 l 1
 253 418 l 1
 269 413 278 408 292 399 c 1
 328 409 l 1
 328 390 l 1
 348 390 l 1
 365 403 377 410 396 418 c 1
 404 446 l 1
 432 446 l 1
 442 456 l 1
 446 475 450 479 462 494 c 1
 462 513 l 1
 442 522 l 1
 442 560 l 1
 432 569 l 1
 410 571 409 572 396 588 c 1xf180
 376 579 l 1
 376 598 l 1xe980
 300 598 l 1
 292 569 l 1
 253 569 l 1
 244 503 l 1
 258 494 255 494 272 494 c 1
 260 479 257 475 253 456 c 1xe580
 282 456 l 1
292 323 m 1
 292 286 l 1
 272 286 l 1
 272 229 l 1
 253 229 l 1
 253 191 l 1xe280
 240 181 240 179 234 163 c 1
 248 154 245 153 262 153 c 1
 253 139 253 142 253 125 c 1
 266 121 275 119 284 119 c 0
 292 119 299 121 310 125 c 1
 314 112 317 107 328 96 c 1
 339 102 338 100 348 115 c 1
 375 117 394 119 404 144 c 1
 420 135 423 134 442 134 c 1
 436 152 435 146 442 153 c 1
 461 157 473 162 490 172 c 1
 480 200 l 1
 442 191 l 1
 442 208 443 205 452 219 c 1
 490 210 l 1
 480 248 l 1
 452 229 l 1
 452 276 l 1
 424 304 l 1
 407 304 410 305 396 314 c 5
 348 314 l 5
 348 323 l 1
 292 323 l 1
46 683 m 1
 70 681 82 676 102 664 c 1
 112 683 l 1
 120 683 l 1
 131 672 136 667 140 654 c 1
 158 662 168 663 188 664 c 1xe580
 188 673 l 1
 224 673 l 1xe980
 234 664 l 1
 253 664 l 1xe580
 262 673 266 672 282 673 c 1xe980
 298 664 301 664 320 664 c 1xe580
 320 673 l 1
 424 673 l 1xe980
 424 664 l 1
 462 664 l 1
 470 645 l 1
 490 645 l 1
 518 617 l 1
 538 560 l 1
 551 556 555 552 566 541 c 1
 562 521 558 508 546 494 c 1
 546 418 l 1
 532 409 535 409 518 409 c 1
 518 392 517 394 508 380 c 1
 524 371 532 365 546 352 c 1
 546 323 l 1
 559 319 563 315 574 304 c 1
 574 287 575 290 566 276 c 1
 594 267 l 1
 594 219 l 1
 604 219 l 1
 604 172 l 1
 584 163 l 1
 584 125 l 1
 546 115 l 1
 556 77 l 1
 508 30 l 1
 470 30 l 1
 466 17 463 13 452 2 c 1
 432 6 418 9 404 21 c 1
 395 15 392 12 390 12 c 0
 388 12 385 15 376 21 c 1
 366 21 l 1
 358 2 l 1
 282 11 l 1
 272 -5 271 -4 253 -8 c 1
 244 6 244 4 244 21 c 1
 213 12 184 11 152 11 c 0
 148 11 144 11 140 11 c 1
 140 21 l 1
 112 21 l 1
 104 15 98 12 92 12 c 0
 86 12 82 15 74 21 c 1
 64 21 l 1
 54 2 l 1
 28 13 20 34 20 59 c 0
 20 81 27 105 36 125 c 1
 92 106 l 1
 111 129 138 117 168 125 c 1xe580
 166 135 166 144 166 154 c 2
 166 168 l 2
 166 182 164 196 158 210 c 1
 158 219 l 1xe680
 167 233 168 231 168 248 c 1xe580
 161 257 158 266 158 276 c 0xe680
 158 288 163 301 168 314 c 1
 157 320 159 318 150 333 c 1
 150 352 l 1
 159 367 157 365 168 371 c 1
 168 380 l 1xe580
 158 399 l 1xe680
 168 427 l 1xe580
 161 436 158 451 158 465 c 0xe680
 158 479 161 493 168 503 c 1xe580
 158 541 l 1xe680
 167 555 168 552 168 569 c 1
 152 573 154 572 150 588 c 1
 122 588 108 588 92 569 c 1
 70 571 67 572 54 588 c 1
 36 588 l 1xf180
 16 607 l 1
 22 623 23 626 36 636 c 1
 46 683 l 1
EndSplineSet
Validated: 1
EndChar

StartChar: C
Encoding: 67 67 24
Width: 620
VWidth: -218
Flags: W
HStem: 9 104<311.329 371.259> 567 104<239 285.506> 602 69<283.053 315>
VStem: 59 95<330 404.58> 97 95<189 223.704> 97 76<226.645 254.984> 428 86<459.499 520>
LayerCount: 2
Fore
SplineSet
428 643 m 1x82
 438 633 l 1
 428 643 l 1x82
59 349 m 1xd2
 76 390 59 401 88 416 c 1
 78 453 l 1
 89 464 94 468 107 472 c 1
 97 491 l 1
 126 520 l 1
 117 534 116 531 116 548 c 1
 127 559 132 563 145 567 c 1xc6
 145 584 145 581 154 595 c 1
 173 607 190 616 211 624 c 1
 213 647 217 652 230 671 c 1
 315 671 l 1
 315 680 l 1
 362 680 l 1
 372 662 l 1
 409 662 l 1
 409 652 l 1
 447 652 l 1
 456 661 464 664 476 671 c 1
 523 671 l 1xb2
 542 652 l 1
 542 624 l 1
 523 614 l 1
 523 597 523 600 532 586 c 1
 532 567 l 1xd2
 524 548 523 539 523 520 c 1
 514 520 l 1
 514 472 l 1
 527 468 531 464 542 453 c 1
 542 416 l 1
 495 416 l 1
 486 407 484 406 473 406 c 2
 466 406 l 1
 451 415 453 414 447 425 c 1
 428 425 425 425 409 434 c 1
 417 464 428 488 428 520 c 1
 419 520 l 1
 419 557 l 1
 381 557 l 1
 371 574 366 585 362 605 c 1
 353 603 344 602 335 602 c 0xb2
 319 602 304 605 287 605 c 1
 286 586 285 583 277 567 c 1
 239 567 l 1
 230 557 l 1
 230 529 l 1
 216 520 218 520 201 520 c 1
 211 491 l 1
 197 482 189 477 173 472 c 1
 173 463 l 1xc6
 182 444 l 1
 177 429 179 430 164 425 c 1
 166 417 167 411 167 405 c 0
 167 396 163 389 154 378 c 1
 154 368 l 1xd2
 175 340 158 290 173 255 c 1xc6
 173 238 173 240 164 226 c 1
 177 222 181 218 192 207 c 1
 192 189 l 1xca
 211 179 l 1
 220 132 l 1
 248 130 261 125 277 103 c 1
 289 115 300 122 311 122 c 0
 318 122 326 119 334 113 c 1
 343 113 l 1
 352 122 356 121 372 122 c 1
 377 137 376 136 391 141 c 1
 391 160 l 1
 402 171 406 175 419 179 c 1
 421 201 422 204 438 217 c 1
 438 255 l 1
 447 264 l 1
 542 264 l 1
 551 245 l 1
 542 226 l 1
 553 220 551 222 561 207 c 1
 561 198 l 1
 550 184 547 179 532 170 c 1
 530 148 530 145 514 132 c 1
 514 94 l 1
 499 82 495 79 476 75 c 1
 476 56 l 1
 447 56 l 1
 438 18 l 1
 408 9 378 9 348 9 c 0
 340 9 332 9 324 9 c 1
 315 0 313 -1 302 -1 c 0
 300 -1 298 -1 296 -1 c 1
 281 8 283 7 277 18 c 1
 220 18 l 1
 205 30 201 33 182 37 c 1
 182 56 l 1
 173 66 l 1xc6
 138 78 135 104 135 117 c 2
 135 122 l 1
 118 122 121 123 107 132 c 1
 98 163 97 191 97 223 c 2xca
 97 236 l 1xc6
 82 245 78 250 69 264 c 1
 69 321 l 1
 59 330 l 1
 59 349 l 1xd2
EndSplineSet
Validated: 9
EndChar

StartChar: D
Encoding: 68 68 25
Width: 620
VWidth: 1382
Flags: W
HStem: 14 77<280 306> 14 66<90 134.075> 116 20<272 288> 134 16<346.224 365.857> 246 10<454 471.169> 441 15<260 275.65> 622 60<20.0312 83.4873> 680 15G<148 195.5 272 370>
VStem: 142 118<286.003 302 456 491.485 492.235 559> 152 98<137.001 152 420 436> 272 16<116.109 135.599> 346 20<134 149.952>
LayerCount: 2
Fore
SplineSet
340 700 m 5x0db0
 400 690 452 682 498 648 c 0
 542 616 569 574 580 524 c 1
 592 502 601 459 606 395 c 1
 609 395 610 394 610 390 c 1
 603 377 600 357 600 333 c 0
 600 321 602 305 606 286 c 1
 599 273 596 261 596 246 c 2
 596 235 l 2
 596 232 597 230 600 230 c 1
 575 144 546 91 512 70 c 1
 498 47 453 24 374 3 c 1
 358 3 l 1
 342 14 l 1
 322 14 l 2x4db0
 319 14 318 11 318 8 c 1
 306 14 l 1
 280 14 l 1x8cb0
 266 3 l 1
 260 3 l 2
 257 3 244 7 220 14 c 1
 214 14 l 1
 207 7 183 1 142 -2 c 1x4cb0
 125 8 110 14 100 14 c 1
 90 11 86 7 86 3 c 1
 45 3 24 15 24 39 c 2
 24 50 l 1
 30 97 39 124 46 124 c 0
 56 124 68 97 78 97 c 0
 80 97 78 84 80 86 c 1
 90 80 l 1
 100 80 l 2
 124 80 139 99 146 137 c 1
 150 137 152 138 152 142 c 2
 152 148 l 2x4c70
 152 151 149 164 142 188 c 1
 147 188 153 194 158 204 c 1
 142 256 l 1x4cb0
 149 267 152 277 152 286 c 1x4c70
 145 286 142 290 142 297 c 2
 142 328 l 1
 166 341 178 358 178 380 c 1
 167 390 155 395 146 395 c 1
 146 405 l 1
 158 420 l 1
 158 431 l 1
 148 447 142 460 142 472 c 0
 142 475 143 485 146 503 c 1
 141 568 128 601 106 601 c 2
 100 601 l 1
 87 622 l 1
 84 608 l 1
 73 609 66 623 58 623 c 0
 43 623 33 622 26 622 c 0
 15 622 10 611 10 626 c 1
 31 660 5 682 46 682 c 5x4eb0
 57 675 102 674 108 674 c 5
 108 679 114 685 124 690 c 5
 148 685 l 5
 190 695 l 5
 201 688 213 685 222 685 c 4
 230 685 236 687 242 690 c 5
 272 685 l 5
 340 700 l 5x0db0
266 590 m 1
 256 528 l 1
 256 508 l 2
 256 503 260 497 270 492 c 1
 263 481 260 471 260 462 c 2
 260 456 l 1xacb0
 270 456 276 453 276 446 c 2
 276 441 l 1
 250 436 l 1
 250 426 l 1
 264 409 270 398 270 395 c 1
 250 369 l 1
 250 354 l 1xac70
 276 312 l 1
 276 302 l 1
 260 302 l 1
 260 271 l 1xacb0
 250 256 l 1
 250 250 l 2xac70
 250 241 253 231 260 220 c 1xacb0
 255 220 249 214 244 204 c 1
 244 191 255 177 276 163 c 1
 276 158 l 1
 250 152 l 1
 250 137 l 1
 264 106 285 91 312 91 c 1
 322 106 l 1
 318 132 l 1
 322 132 l 2
 344 132 365 123 384 106 c 1
 391 106 394 109 394 116 c 1xac70
 388 126 388 140 388 148 c 1
 374 173 l 1
 394 158 l 1
 410 158 l 2
 420 158 453 158 464 199 c 1
 474 202 480 213 480 230 c 0
 480 238 471 243 454 246 c 1
 454 256 l 1
 496 256 l 1
 496 266 l 2
 496 283 493 292 486 292 c 1
 482 358 l 1
 476 420 l 1
 484 420 490 429 492 446 c 1
 456 477 l 1
 462 503 l 1
 462 518 l 1
 411 569 375 596 354 596 c 1
 354 605 346 609 332 611 c 1
 266 590 l 1
346 150 m 1x1c30
 356 150 l 1
 363 149 366 146 366 140 c 2
 366 134 l 1
 356 134 l 2
 349 134 346 138 346 145 c 2
 346 150 l 1x1c30
272 136 m 1x2c30
 278 136 l 1
 285 135 288 132 288 126 c 2
 288 116 l 1
 282 116 l 2
 275 116 272 119 272 126 c 2
 272 136 l 1x2c30
EndSplineSet
Validated: 1
EndChar

StartChar: E
Encoding: 69 69 26
Width: 620
VWidth: -253
Flags: W
HStem: -7 21G<451.5 466> 2 123<52.043 115.435 116.418 124.983 362.371 408.562> 210 29<430.319 452.339> 321 69<276.236 313.2> 343 56<259.217 295.626> 414 8<450.084 453.953> 502 20G<392.857 412> 579 82<106.432 142.757> 584 52<130.401 160.605> 589 66<390.977 448> 589 37<296 308.272>
VStem: 144 98<144.374 190.77 191.79 200.209> 164 57<248 266.445> 248 46<645.645 666.686> 306 19<466 475> 450 4<415 421.999> 490 89<442.746 506.421>
LayerCount: 2
Fore
SplineSet
325 106 m 1x260780
 334 97 l 1
 325 106 l 1x260780
268 134 m 1
 276 125 l 1x660780
 268 134 l 1
552 153 m 1
 560 144 l 1
 552 153 l 1
484 286 m 1
 494 276 l 1
 484 286 l 1
286 276 m 1
 296 267 l 1
 286 276 l 1
325 239 m 1
 344 230 345 229 352 210 c 1
 335 219 334 222 325 239 c 1
276 163 m 1
 286 153 l 1
 276 163 l 1
314 352 m 1
 325 343 l 1x2e0780
 314 352 l 1
476 683 m 1
 492 670 492 667 494 645 c 1
 502 648 510 649 516 649 c 0
 537 649 550 636 570 617 c 1
 560 579 l 1x271780
 566 570 568 564 568 558 c 0
 568 551 565 543 560 532 c 1
 580 513 l 1
 579 509 579 506 579 502 c 0
 579 483 586 467 590 447 c 1
 579 436 573 432 560 428 c 1
 560 399 l 1
 552 399 l 1
 542 428 l 1
 494 437 l 1
 491 449 490 455 490 462 c 0
 490 468 491 474 494 484 c 1
 466 513 l 1
 466 522 l 1
 481 527 479 526 484 541 c 1
 438 560 l 1
 448 589 l 1x2e5780
 296 589 l 1x263780
 286 579 l 1
 268 579 l 1x271780
 254 588 257 589 240 589 c 1
 239 570 239 564 230 551 c 1
 230 522 l 1
 248 484 l 1
 248 475 l 1
 239 461 240 464 240 447 c 1
 268 437 l 1
 258 390 l 1x363780
 284 395 307 399 334 399 c 1
 325 437 l 1
 352 447 l 1
 338 459 338 458 334 475 c 1
 390 494 l 1
 400 522 l 1
 410 522 l 1
 414 509 417 505 428 494 c 1
 428 447 l 1
 438 447 l 1
 438 399 l 1
 428 399 l 1
 428 371 l 1
 418 371 l 1
 418 343 l 1x2e1780
 424 334 426 327 426 321 c 0
 426 314 423 306 418 295 c 1
 456 276 l 1
 456 267 l 1
 430 260 424 252 410 229 c 1
 426 237 429 238 448 239 c 1
 457 225 456 227 456 210 c 1
 435 212 436 210 428 229 c 1
 418 229 l 1
 414 212 414 213 400 201 c 1
 390 201 l 1
 362 220 l 1
 362 228 l 2
 362 244 357 251 344 267 c 1
 352 305 l 1
 330 312 332 311 325 333 c 1
 314 326 303 321 296 321 c 0x361780
 288 321 281 327 276 343 c 1
 268 343 l 1
 261 321 248 310 230 295 c 1
 246 289 248 289 258 276 c 1
 244 267 237 262 221 257 c 1
 221 248 l 1x2e0f80
 268 229 l 1
 255 210 252 208 230 201 c 1
 238 184 242 175 242 163 c 0
 242 158 242 152 240 144 c 1
 251 135 254 132 254 126 c 0
 254 122 251 116 248 106 c 1
 314 97 l 1
 317 123 320 126 344 134 c 1
 334 106 l 1
 352 110 352 109 362 125 c 1
 390 125 l 1
 399 111 403 106 418 97 c 1
 409 111 410 108 410 125 c 1
 418 134 l 1
 466 125 l 1
 472 144 475 161 476 182 c 1
 484 191 l 1
 484 210 l 1
 475 218 476 221 476 232 c 2
 476 239 l 1
 514 257 l 1
 522 295 l 1
 542 295 l 1
 580 239 l 1
 578 217 576 214 560 201 c 1
 570 153 l 1
 565 138 567 139 552 134 c 1
 580 97 l 1
 569 80 562 70 560 49 c 1
 522 2 l 1x6e1780
 513 7 506 9 500 9 c 0
 486 9 476 -1 456 -7 c 1xa61780
 447 7 448 4 448 21 c 1
 427 17 409 11 390 2 c 1
 384 2 l 2
 373 2 370 2 362 11 c 1
 352 11 l 1
 345 -2 351 -2 344 11 c 1
 335 8 325 7 316 7 c 0
 298 7 278 11 258 11 c 1
 244 2 247 2 230 2 c 1
 215 7 215 6 210 21 c 1
 198 9 189 3 178 3 c 0
 171 3 162 5 154 11 c 1
 144 6 139 4 134 4 c 0
 129 4 125 6 116 11 c 1
 104 3 89 2 74 2 c 2
 50 2 l 1
 47 13 46 23 46 32 c 0
 46 47 49 61 50 78 c 1
 34 82 34 81 30 97 c 1
 54 102 64 106 78 125 c 1
 88 125 l 1
 101 109 104 108 126 106 c 1
 126 134 l 1
 144 134 l 1
 144 172 l 1x661780
 149 187 149 186 164 191 c 1x660f80
 147 208 144 215 144 239 c 1x661780
 164 239 l 1
 164 264 163 282 154 305 c 0
 154 307 154 309 154 311 c 0
 154 322 155 324 164 333 c 1
 154 371 l 1
 159 383 160 389 160 395 c 0
 160 401 159 406 154 418 c 1
 154 428 l 1
 172 494 l 1
 172 503 l 1
 154 513 l 1
 158 537 163 558 172 579 c 1x670f80
 160 582 155 584 148 584 c 0x268f80
 142 584 136 582 126 579 c 1
 116 579 l 1x270f80
 50 598 l 1
 50 645 l 1
 66 654 64 655 68 674 c 1
 92 666 95 662 98 636 c 1
 106 636 l 1x268f80
 108 653 115 661 122 661 c 0x270f80
 130 661 139 652 144 636 c 1
 154 636 l 1
 157 664 164 663 192 664 c 1
 192 647 193 650 202 636 c 1x269780
 210 664 l 1
 258 645 l 1
 249 659 248 657 248 674 c 1
 267 673 277 672 296 664 c 1
 295 657 294 652 294 646 c 0
 294 640 295 634 296 626 c 1
 306 626 l 1x263780
 308 648 310 659 325 674 c 1
 334 660 334 662 334 645 c 1
 380 664 l 1
 390 636 l 1x269780
 411 651 422 654 448 655 c 1x265780
 457 670 462 672 476 683 c 1
362 570 m 1
 372 560 l 1
 362 570 l 1
410 570 m 1
 418 560 l 1
 410 570 l 1
314 560 m 1
 325 551 l 1
 314 560 l 1
356 516 m 0
 360 520 359 511 358 510 c 0
 354 506 355 515 356 516 c 0
372 522 m 1
 380 513 l 1
 372 522 l 1
306 484 m 1
 325 475 l 1
 325 466 l 1
 306 456 l 1
 306 484 l 1
452 422 m 0
 453 422 454 420 454 418 c 2
 454 415 l 1
 453 414 452 414 452 414 c 2
 451 414 450 417 450 419 c 0
 450 422 450 422 452 422 c 0
EndSplineSet
Validated: 9
EndChar

StartChar: F
Encoding: 70 70 27
Width: 620
VWidth: -239
Flags: W
HStem: 7 114<253.746 327.58> 7 104<46.0391 73.5832 74.6065 129.533 150 158> 26 85<104.42 140> 26 48<357.834 396> 301 37<150 158> 310 95<262 320> 498 20G<376 423.825> 575 95<328 338 408.374 441.852> 584 96<55.9783 119.068 262 327.297 376.561 431.071>
VStem: 158 104<168 243.435 253.562 301> 168 100<140.782 168 168.516 300.844> 168 85<131.717 167.356> 328 29<575 584>
LayerCount: 2
Fore
SplineSet
432 452 m 5x0208
 441 429 456 429 480 424 c 5
 470 452 l 5
 432 452 l 5x0208
348 518 m 5
 357 509 l 5
 348 518 l 5
282 471 m 5
 298 479 301 479 320 480 c 5
 313 458 311 456 292 443 c 5
 282 471 l 5
262 584 m 5x02c8
 244 528 l 5
 261 528 258 527 272 518 c 5
 268 505 264 501 253 490 c 5
 259 471 260 478 253 471 c 5
 253 461 l 5x0298
 262 461 l 5
 262 452 l 5x02c8
 253 443 l 5x0298
 261 427 261 423 262 405 c 5
 320 405 l 5
 325 421 329 429 338 443 c 5
 338 460 337 457 328 471 c 5
 340 480 348 487 357 499 c 5
 376 499 l 5
 376 509 l 5
 414 518 l 5
 442 461 l 5
 464 469 465 476 470 499 c 5
 453 499 456 500 442 509 c 5
 452 547 l 5
 436 556 436 556 432 575 c 5x0748
 412 575 404 576 386 584 c 5
 357 584 l 5x02c8
 357 575 l 5
 328 575 l 5x0348
 328 584 l 5
 262 584 l 5x02c8
348 688 m 5
 366 684 366 686 376 670 c 5
 388 675 398 678 408 678 c 4
 416 678 423 676 432 670 c 5
 442 670 l 5
 451 679 454 678 470 679 c 5
 470 670 l 5
 500 670 l 5
 509 679 512 678 528 679 c 5
 566 622 l 5
 565 602 564 593 556 575 c 5
 567 566 570 560 570 552 c 4
 570 546 569 539 566 528 c 5
 575 518 573 515 574 499 c 5
 566 499 l 5
 566 471 l 5
 574 471 l 5
 573 452 574 449 566 433 c 5
 577 427 574 429 584 414 c 5
 566 348 l 5
 550 339 546 338 528 338 c 5
 518 367 l 5
 494 370 493 371 490 395 c 5
 442 395 l 5
 453 384 458 380 462 367 c 5
 443 361 438 349 438 334 c 4
 438 321 442 306 442 292 c 4
 442 282 438 272 432 263 c 5
 442 215 l 5
 437 200 439 202 424 197 c 5
 433 183 432 185 432 168 c 5
 405 175 385 186 357 187 c 5
 328 206 l 5
 328 213 l 6
 328 224 329 225 338 234 c 5
 338 263 l 5
 329 276 328 282 328 301 c 5x0b48
 320 310 l 5
 262 310 l 5x0648
 266 297 268 282 268 266 c 4x0628
 268 234 262 197 262 168 c 5x0648
 253 154 253 157 253 140 c 5
 269 135 280 130 292 121 c 5
 328 121 l 5x8618
 344 107 350 102 357 83 c 5
 375 82 380 82 396 74 c 5
 396 26 l 5
 328 26 l 5x1218
 319 16 312 14 300 7 c 5x8218
 244 7 l 5x4218
 244 17 l 5
 222 17 207 17 188 26 c 5x1218
 180 8 174 7 158 7 c 6
 150 7 l 5x4248
 140 26 l 5
 130 26 l 5x2248
 120 15 113 12 104 12 c 4
 96 12 87 15 74 17 c 5
 65 8 63 7 52 7 c 4
 50 7 48 7 46 7 c 5
 46 45 l 5
 36 45 l 5
 36 93 l 5
 49 97 53 100 64 111 c 5
 158 111 l 5x4248
 168 121 l 5x8218
 168 168 l 5x8228
 158 168 l 5
 158 179 158 190 158 201 c 4x8248
 158 217 159 232 168 244 c 5
 168 253 l 5x8228
 159 265 158 276 158 291 c 6
 158 301 l 5
 150 301 l 5
 150 338 l 5
 158 338 l 5
 158 395 l 5
 147 401 149 399 140 414 c 5
 140 433 l 5
 158 443 l 5
 150 471 l 5
 159 485 158 482 158 499 c 5
 150 499 l 5
 158 547 l 5
 141 559 138 564 130 584 c 5
 114 581 101 579 88 579 c 4
 78 579 66 580 54 584 c 5
 48 603 46 620 46 641 c 5
 55 655 59 663 64 679 c 5
 88 677 100 672 120 660 c 5
 134 677 155 680 176 680 c 4
 189 680 203 679 216 679 c 5
 224 660 l 5
 234 660 l 5
 246 675 264 680 282 680 c 4x8ac8
 298 680 313 676 328 670 c 5
 338 670 l 5x0348
 348 688 l 5
EndSplineSet
Validated: 1
EndChar

StartChar: G
Encoding: 71 71 28
Width: 620
VWidth: -233
Flags: W
HStem: 21 104<204.142 267.127> 305 47<553.532 569.743> 692 20G<240 277>
VStem: 50 114<286.467 342.484 398.469 455.356> 50 104<428.782 494> 240 37<702 712> 380 104<475 540.342>
LayerCount: 2
Fore
SplineSet
240 712 m 5xee
 277 712 l 5
 277 702 l 5
 344 702 l 5
 344 693 l 5
 363 692 367 692 380 683 c 5
 400 683 l 5
 412 691 425 693 440 693 c 6
 466 693 l 5
 494 674 l 5
 492 649 489 616 476 598 c 5
 484 560 l 5
 466 551 l 5
 466 541 l 5
 483 527 486 511 486 492 c 4
 486 484 484 475 484 466 c 5
 475 452 471 444 466 428 c 5
 428 428 l 5
 418 447 l 5
 410 447 l 5
 410 456 l 5
 400 456 l 5
 380 475 l 5
 380 522 l 5
 367 535 366 540 362 560 c 5
 347 565 349 564 344 579 c 5
 296 570 l 5
 296 617 l 5
 273 610 254 607 230 607 c 5
 230 589 l 5
 202 560 l 5
 164 551 l 5xf6
 182 532 l 5
 182 522 l 5
 154 494 l 5
 154 456 l 5xee
 163 442 164 445 164 428 c 5xf6
 154 413 146 401 134 390 c 5
 140 381 144 377 144 375 c 4
 144 373 140 371 134 362 c 5
 150 357 158 352 172 343 c 5
 170 332 169 321 169 312 c 4
 169 304 170 296 172 286 c 5
 144 248 l 5
 174 244 175 225 192 201 c 5
 182 153 l 5
 206 148 216 144 230 125 c 5
 248 125 l 5
 254 137 249 135 268 135 c 5
 283 130 281 131 286 116 c 5
 334 125 l 5
 341 144 349 167 362 182 c 5
 362 220 l 5
 372 248 l 5
 355 262 351 273 344 295 c 5
 333 284 327 280 314 276 c 5
 299 297 293 307 268 314 c 5
 276 335 287 339 306 352 c 5
 323 352 320 353 334 362 c 5
 362 352 l 5
 375 371 378 373 400 380 c 5
 417 359 438 357 466 352 c 5
 479 368 482 369 504 371 c 5
 522 343 l 5
 560 352 l 5
 565 336 571 328 580 314 c 5
 580 305 l 5
 559 282 545 276 514 276 c 5
 505 254 499 253 476 248 c 5
 480 235 481 225 481 215 c 4
 481 205 480 195 476 182 c 5
 494 172 l 5
 494 163 l 5
 476 153 l 5
 476 135 l 5
 494 120 493 112 494 87 c 5
 504 87 l 5
 504 40 l 5
 490 31 482 26 466 21 c 5
 438 21 l 5
 424 12 427 12 410 12 c 5
 389 27 378 29 352 30 c 5
 324 2 l 5
 268 12 l 5
 268 21 l 5
 210 21 l 5
 191 34 183 40 172 59 c 5
 154 59 l 5
 134 78 l 5
 116 106 l 5
 116 144 l 5
 78 163 l 5
 78 201 l 5
 65 205 61 209 50 220 c 5
 50 222 50 224 50 226 c 4
 50 237 51 239 60 248 c 5
 60 276 l 5
 51 288 48 307 48 325 c 4
 48 341 50 357 50 371 c 5
 40 371 l 5
 40 399 l 5
 48 419 50 440 50 461 c 4
 50 472 50 483 50 494 c 5
 64 510 70 516 70 532 c 4
 70 535 68 537 68 541 c 5
 79 552 85 556 98 560 c 5
 98 607 l 5
 116 617 l 5
 116 636 l 5
 134 655 l 5
 172 655 l 5
 192 702 l 5
 240 702 l 5
 240 712 l 5xee
EndSplineSet
Validated: 1
EndChar

StartChar: H
Encoding: 72 72 29
Width: 620
VWidth: 1383
Flags: W
HStem: -22 19<272.308 282> -7 61<18.7272 36.6224> 314 81<209 249.3 250.001 283> 594 80<-4.76111 39> 666 23<240 245>
VStem: 89 89<209 217 217.327 278 489 498> 89 78<109.256 149.575 171 209 453.174 459 535 565.952> 245 42<656 665.152> 407 98<133.242 170> 422 83<170.002 172.4 191.327 231.483 456 471.441>
LayerCount: 2
Fore
SplineSet
427 133 m 1xa3
 424 138 409 154 407 156 c 1
 407 170 l 1xa380
 409 170 l 2
 418 170 422 173 422 178 c 2
 422 211 l 1
 415 212 406 219 392 247 c 1
 389 248 386 251 386 255 c 0
 386 260 388 267 401 268 c 1
 401 275 l 1
 381 308 l 1
 346 304 l 1
 294 309 l 1
 283 314 l 1
 253 314 l 2
 251 314 250 313 250 312 c 2
 250 307 l 1
 235 316 224 319 209 319 c 1
 209 296 l 1
 207 291 203 279 178 278 c 1xa540
 172 209 l 1
 167 121 l 1
 167 116 l 2
 167 110 173 109 180 109 c 1
 187 112 192 114 196 114 c 2
 198 114 l 1
 205 101 215 88 242 88 c 1
 249 92 254 93 258 93 c 2
 260 93 l 1
 262 82 262 3 280 -2 c 0
 281 -2 281 -3 282 -3 c 0
 295 -3 272 52 324 62 c 1
 336 77 358 87 391 93 c 1
 392 101 402 114 427 133 c 1xa3
532 689 m 1x2b
 538 686 556 679 560 668 c 1
 610 669 l 1
 628 642 l 1
 629 638 l 1
 627 639 l 1
 622 636 591 618 587 610 c 1
 587 609 l 1
 592 607 l 1
 540 584 l 1
 507 544 495 523 495 514 c 2
 495 505 l 1
 505 492 510 481 510 473 c 2
 510 472 l 1
 502 460 500 453 500 448 c 0
 507 413 510 393 510 386 c 2
 510 384 l 1
 505 383 500 382 500 376 c 2
 500 367 l 1
 506 366 508 360 508 353 c 2
 508 353 505 308 505 304 c 2
 510 278 l 1
 505 206 l 2x2b40
 505 203 506 198 510 191 c 1
 505 160 l 1
 505 148 510 128 520 101 c 1
 550 101 l 1
 552 100 618 61 618 52 c 2
 618 50 l 1
 610 50 l 1
 602 54 596 55 592 55 c 1
 592 14 l 1
 555 5 540 2 541 -7 c 1
 511 -3 462 3 442 3 c 1
 440 -4 429 -10 425 -12 c 1
 419 -12 l 1
 393 3 l 1
 374 0 355 -2 347 -7 c 1x6980
 315 -2 l 1
 311 -2 l 1
 281 -20 l 1
 282 -22 l 1
 279 -22 l 2xa180
 274 -22 266 -17 252 3 c 1
 221 -1 202 -8 191 -18 c 1
 176 -11 150 -1 108 3 c 1
 83 -12 l 1
 82 -12 l 2
 78 -12 60 -7 40 -2 c 0
 37 -1 33 -4 26 -7 c 1
 25 -7 l 2
 5 -7 -7 44 -9 54 c 1
 46 69 65 108 89 111 c 1
 89 114 l 2
 89 128 80 141 73 150 c 1
 89 171 l 1
 89 185 l 1x6380
 84 217 l 1
 88 224 89 229 89 232 c 0x65
 84 282 76 291 73 294 c 1
 81 303 90 317 94 355 c 1
 88 366 84 374 84 381 c 1
 88 407 89 418 89 421 c 1
 79 442 l 1
 83 470 84 487 84 498 c 1
 74 513 l 1
 74 520 l 1
 84 535 l 1
 84 563 l 1
 67 564 54 577 44 599 c 1
 20 594 l 1
 14 594 l 1
 -2 599 -8 616 -8 643 c 0
 -8 656 -2 657 13 674 c 1
 39 669 l 1
 59 684 l 1
 66 684 l 1
 101 674 l 1x73
 107 676 119 681 119 686 c 2
 119 689 l 1
 137 687 159 684 163 684 c 2
 195 689 l 1
 254 689 287 684 287 648 c 1
 290 640 298 635 314 635 c 0
 318 635 323 637 333 678 c 1
 355 689 l 1
 459 679 l 1
 470 686 479 689 486 689 c 2
 488 689 l 1
 489 685 492 674 515 673 c 1
 517 677 523 682 532 689 c 1x2b
245 666 m 1
 240 666 l 1
 240 656 l 1
 245 656 l 1
 245 666 l 1
202 505 m 1
 198 502 192 499 176 499 c 1
 176 491 l 2
 176 489 176 489 178 489 c 2x2540
 183 489 l 1
 165 459 l 1
 165 453 l 1
 202 458 l 1
 202 444 l 1
 187 424 l 1
 197 416 288 396 318 395 c 1
 329 411 371 438 418 447 c 1
 422 456 l 1
 422 458 l 1
 408 460 397 474 389 489 c 1
 393 489 l 2
 398 489 404 500 406 506 c 1
 398 517 390 538 386 577 c 1
 324 610 l 1
 313 622 l 1
 225 581 l 1
 209 581 197 576 197 553 c 2
 197 550 l 1
 194 550 l 2
 189 550 182 553 181 566 c 1
 179 566 l 1
 173 565 170 563 170 558 c 2
 170 549 l 1
 190 534 202 521 202 507 c 2
 202 505 l 1
EndSplineSet
Validated: 33
EndChar

StartChar: I
Encoding: 73 73 30
Width: 620
VWidth: -255
Flags: W
HStem: 15 123<154.881 219.259 380 399.437 428 459.778> 583 123<88 125.396 126.782 191.263> 592 114<88.8812 153.356 412.204 447.396> 676 20G<334 410 503.5 518>
VStem: 238 135<195 279.58> 248 123<195 251.844 280.467 317.339 328.426 336.394 337.562 384 432 488> 248 113<280.467 336.394 337.562 364.344 365.656 384 488 498> 258 103<384 432 498 536>
LayerCount: 2
Fore
SplineSet
514 640 m 5x80
 522 630 l 5
 514 640 l 5x80
98 706 m 5xc8
 164 706 l 5xc8
 176 699 183 696 192 687 c 5
 202 690 207 691 212 691 c 4
 216 691 221 690 230 687 c 5
 236 698 233 696 248 706 c 5
 296 687 l 5
 305 703 305 702 324 706 c 5xa2
 334 687 l 5
 380 696 l 5x92
 410 678 l 5
 414 691 417 695 428 706 c 5
 448 706 l 5xa2
 456 687 l 5
 475 693 493 695 514 696 c 5x92
 522 681 526 676 526 667 c 4
 526 662 524 657 522 649 c 5
 545 635 553 628 560 602 c 5
 532 602 509 601 484 592 c 5
 448 602 l 5
 435 593 429 592 410 592 c 5
 396 601 397 602 380 602 c 5
 377 577 374 573 352 564 c 5
 360 538 361 515 361 488 c 5xa2
 371 488 l 5
 371 432 l 5xa4
 361 432 l 5
 361 403 l 5xa1
 368 393 372 379 372 365 c 4
 372 351 368 337 361 328 c 5
 361 318 l 5xa2
 370 304 373 283 373 260 c 4xa8
 373 237 371 213 371 195 c 5xa4
 380 195 l 5
 380 138 l 5
 438 138 l 5
 466 129 l 5
 476 148 l 5
 494 148 l 5
 542 119 l 5
 538 106 533 102 522 91 c 5
 538 86 546 81 560 72 c 5
 560 34 l 5
 552 25 l 5
 504 25 l 5
 504 15 l 5
 428 15 l 5
 418 25 l 5
 400 25 l 5
 388 17 375 15 360 15 c 4
 354 15 348 15 342 15 c 5
 334 6 l 5
 314 6 l 5
 300 15 303 15 286 15 c 5
 276 8 260 4 244 4 c 4
 228 4 211 8 202 15 c 5
 192 15 l 5
 179 6 173 6 154 6 c 5
 144 15 l 5
 126 15 l 5
 113 6 107 6 88 6 c 5
 60 34 l 5
 60 44 l 5
 77 69 78 89 78 119 c 2
 78 129 l 5
 154 148 l 5
 170 147 172 147 182 138 c 5
 192 138 l 5
 201 147 204 147 220 148 c 5
 248 138 l 5
 248 179 l 6xa2
 248 201 246 222 238 242 c 5
 238 252 l 5xa8
 245 264 248 271 258 280 c 5
 255 290 254 298 254 305 c 4
 254 315 256 324 258 337 c 5xa1
 249 349 248 360 248 375 c 4
 248 378 248 381 248 384 c 5xa4
 258 384 l 5
 258 432 l 5xa1
 248 432 l 5xa4
 248 498 l 5xa2
 258 498 l 5
 258 536 l 5xa1
 268 564 l 5
 246 573 241 577 238 602 c 5
 164 583 l 5
 154 583 l 5xc8
 140 592 143 592 126 592 c 5xa8
 113 583 107 583 88 583 c 5
 68 602 l 5
 68 619 69 616 78 630 c 5
 68 630 l 5
 68 687 l 5
 81 691 87 695 98 706 c 5xc8
552 678 m 5
 560 674 560 675 560 670 c 6
 560 659 l 5
 542 659 l 5
 552 678 l 5
EndSplineSet
Validated: 9
EndChar

StartChar: J
Encoding: 74 74 31
Width: 620
VWidth: -237
Flags: W
HStem: 208 28<267.554 286.446> 586 104<442.955 460.394 461 508.109>
VStem: 244 38<681 690> 263 28<208.644 236> 357 114<196.628 255> 357 104<195.913 254.859> 357 85<435.607 481.12 482 500.393> 518 47<578.784 589.778>
LayerCount: 2
Fore
SplineSet
329 170 m 1xc1
 338 161 l 1
 329 170 l 1xc1
263 236 m 5xd1
 291 236 l 5xd1
 291 219 291 222 282 208 c 5xe1
 272 208 l 5
 263 222 263 219 263 236 c 5xd1
282 189 m 5xe1
 294 183 291 188 291 170 c 5xd1
 272 170 l 5
 282 189 l 5xe1
228 656 m 0
 227 655 227 645 231 649 c 0
 232 650 232 660 228 656 c 0
244 690 m 1xe3
 282 690 l 1xe3
 291 662 l 1
 310 690 l 1
 337 689 345 690 348 662 c 1
 376 690 l 1
 386 690 l 1
 395 672 l 1
 405 672 l 1
 414 683 422 686 431 686 c 0
 439 686 448 683 461 681 c 1
 461 690 l 1xd5
 490 690 l 1
 500 687 506 686 512 686 c 0
 519 686 525 687 537 690 c 1
 545 671 546 662 547 643 c 1
 556 643 l 1
 565 596 l 1
 548 587 546 585 537 568 c 1
 518 568 l 1
 509 596 l 1
 490 590 471 588 452 586 c 1
 448 567 449 567 433 558 c 1
 442 533 442 510 442 482 c 1
 452 482 l 1
 451 463 451 458 442 445 c 1
 445 433 447 426 447 419 c 0
 447 413 445 407 442 397 c 1xc3
 451 385 453 367 453 349 c 0
 453 333 452 317 452 303 c 1
 461 303 l 1xc5
 461 283 463 273 471 255 c 1
 471 246 l 1xc9
 463 225 461 206 461 185 c 0
 461 177 461 169 461 161 c 1
 452 161 l 1
 452 123 l 1
 441 109 439 104 424 95 c 1
 424 76 l 1
 412 61 409 57 405 38 c 1
 377 33 360 25 338 9 c 1
 318 9 309 11 291 19 c 1xd5
 282 19 l 1
 272 0 l 1
 251 4 230 7 215 19 c 1
 178 9 l 1
 168 28 l 1
 149 28 l 1
 130 47 l 1
 121 61 121 59 121 76 c 1
 101 80 91 85 74 95 c 1
 74 142 l 1
 55 151 l 1
 55 227 l 1
 64 227 l 1
 64 274 l 1
 102 312 l 1
 116 321 113 322 130 322 c 1
 134 338 133 336 149 340 c 1
 159 312 l 1
 197 312 l 1
 215 303 l 1
 215 293 l 1
 232 293 230 293 244 284 c 1xe1
 237 262 234 259 215 246 c 1
 219 235 223 229 223 224 c 0
 223 220 220 216 215 208 c 1
 215 189 l 1
 234 189 l 1
 234 170 l 1
 225 161 l 1
 208 165 209 166 197 180 c 1
 195 172 194 165 194 159 c 0
 194 143 199 131 206 113 c 1
 253 113 l 1
 253 130 254 128 263 142 c 5
 320 142 l 1
 320 189 l 1
 336 197 338 198 357 199 c 1
 357 255 l 1xd9
 338 255 336 256 320 265 c 1
 327 292 338 321 357 340 c 1
 338 416 l 1
 338 426 l 1
 357 435 l 1
 353 448 352 458 352 468 c 0
 352 478 353 488 357 501 c 1
 346 507 347 505 338 520 c 1
 348 549 l 1
 325 554 318 555 310 577 c 1
 253 577 l 1
 225 596 l 1
 225 643 l 1
 205 650 206 652 197 672 c 1
 215 680 224 680 244 681 c 1
 244 690 l 1xe3
EndSplineSet
Validated: 9
EndChar

StartChar: K
Encoding: 75 75 32
Width: 620
VWidth: -227
Flags: W
HStem: 121 19<326.373 356.534> 121 9<348.951 358> 168 19<272 291> 206 38<211.171 244> 499 28<227.051 245.036> 565 19<244 263> 603 28<16.4175 45.5811> 612 10<281 295.904> 678 20G<91 108 132.5 216 240 253.5 419 436.167>
VStem: 46 37<125.222 140> 102 115<546.7 594> 112 92<499.327 535.5> 112 85<452.564 517.719> 224 29<501.7 518.691> 234 47<650 693.703> 244 37<650.884 684.441> 244 19<565 584> 272 19<168 187> 310 22<3.59351 19.6667> 310 14<629.474 670.868> 508 38<599.406 618.5> 578 4.36066<619 625>
LayerCount: 2
Fore
SplineSet
216 187 m 1x3cc08c
 240 184 241 182 244 158 c 1
 222 165 223 165 216 187 c 1x3cc08c
272 187 m 1x3cc04c
 291 187 l 1
 291 168 l 1
 272 168 l 1
 272 187 l 1x3cc04c
320 140 m 1xbcc00c
 338 139 342 138 358 130 c 1
 358 121 l 1x7cc00c
 348 121 l 2
 332 121 327 122 320 140 c 1xbcc00c
328 26 m 1
 331 21 332 16 332 13 c 0x3cc02c
 332 5 325 3 310 -2 c 1x3cc01c
 314 15 314 14 328 26 c 1
263 319 m 1x7cc09c
 259 308 256 301 256 293 c 0
 256 284 259 275 263 262 c 1
 206 253 l 1
 206 244 l 1
 244 244 l 1
 244 206 l 1
 212 202 208 189 206 158 c 1
 222 149 225 149 244 149 c 1x7cc09c
 244 130 244 127 253 111 c 1x7cc40c
 279 102 291 99 300 73 c 1
 321 75 320 73 328 92 c 1
 332 91 335 91 338 91 c 0
 358 91 363 103 366 130 c 1
 396 121 l 1
 414 158 l 1
 376 158 l 1
 366 196 l 1
 328 215 l 1
 327 236 326 252 320 272 c 1
 281 262 l 1
 281 291 l 1x7cc10c
 310 281 l 1
 301 305 287 310 263 319 c 1x7cc09c
594 385 m 1
 604 376 l 1
 594 385 l 1
234 518 m 1x3cc20c
 244 508 l 1x3cc08c
 234 518 l 1x3cc20c
578 625 m 0
 582 629 583 620 582 619 c 0
 578 615 577 624 578 625 c 0
244 584 m 1
 263 584 l 1
 263 565 l 1
 244 565 l 1
 244 584 l 1
291 556 m 1x3cc04c
 300 575 300 577 320 584 c 1
 313 562 313 563 291 556 c 1x3cc04c
224 508 m 1x3cc40c
 233 524 234 523 253 527 c 1x3cc40c
 249 508 250 508 234 499 c 1x3cc20c
 224 508 l 1x3cc40c
396 669 m 1
 404 660 l 1
 396 669 l 1
500 660 m 1
 508 650 l 1
 500 660 l 1
552 647 m 0
 548 643 559 643 560 644 c 0
 564 648 553 648 552 647 c 0
64 679 m 1
 77 695 80 696 102 698 c 1x3de00c
 114 692 112 697 112 679 c 1
 120 679 l 1
 126 690 125 688 140 698 c 1
 216 688 l 1
 224 650 l 1x3dcc0c
 234 650 l 1x3dc20c
 234 669 236 679 244 698 c 1x3dc08c
 263 694 266 691 281 679 c 1x3dc20c
 281 641 l 1x3dc10c
 272 641 l 1
 271 621 271 612 263 594 c 1
 216 603 l 1
 216 594 217 586 217 579 c 0x3ee0cc
 217 564 214 552 197 546 c 1x3ec80c
 200 534 204 526 204 518 c 0x3ed00c
 204 512 202 506 197 499 c 1
 197 490 l 1
 206 475 210 452 216 433 c 1
 253 442 l 1x3ecc0c
 263 452 l 1
 272 490 l 1
 310 499 l 1
 291 508 l 1
 291 518 l 1
 323 527 331 543 338 575 c 1
 349 586 354 590 358 603 c 1x3ec0dc
 332 611 308 612 281 612 c 1
 281 622 l 1x3dc10c
 310 631 l 1x3ec11c
 300 688 l 1
 319 680 324 671 324 659 c 0
 324 649 321 637 320 622 c 1
 331 633 335 637 348 641 c 1
 348 679 l 1
 358 688 l 1
 385 688 406 690 432 698 c 1
 442 650 l 1
 452 650 l 1
 452 668 453 672 462 688 c 1
 484 686 493 684 508 669 c 1
 518 669 l 1
 528 688 l 1
 574 679 l 1
 594 669 l 1
 594 650 l 1
 575 637 560 628 538 622 c 1x3dc11c
 546 594 l 1
 527 594 524 594 508 603 c 1
 511 615 510 618 508 631 c 1
 470 556 l 1
 410 536 445 506 396 490 c 1
 386 452 l 1
 377 443 375 442 364 442 c 0
 362 442 360 442 358 442 c 1
 358 404 l 1
 376 395 l 1
 376 357 l 1
 388 351 386 356 386 338 c 1
 404 338 l 1
 412 312 422 289 424 262 c 1
 440 257 448 253 462 244 c 1
 468 222 474 213 490 196 c 1
 483 181 479 184 500 177 c 1
 500 168 l 1
 496 165 494 163 494 160 c 0
 494 149 518 135 528 121 c 1x7ec11c
 547 125 551 128 566 140 c 1xbcc11c
 604 130 l 1x7cc11c
 604 35 l 1
 575 26 548 26 518 26 c 1
 508 17 l 1
 490 17 l 1
 478 24 471 25 462 35 c 1
 447 30 447 32 442 17 c 1
 413 25 388 26 358 26 c 1
 310 54 l 1
 291 17 l 1
 279 20 276 19 263 17 c 1
 237 26 209 17 188 26 c 1
 178 7 l 1
 168 7 l 1
 162 16 147 19 130 19 c 0
 113 19 96 17 83 17 c 1
 74 -2 l 1
 54 -2 l 1
 40 11 32 17 16 26 c 1
 16 73 l 1
 26 102 l 1
 40 111 37 111 54 111 c 1
 45 125 46 123 46 140 c 1
 83 140 l 1xbcc0dc
 74 121 l 1
 102 121 l 1x7ce0dc
 101 127 100 134 100 140 c 0
 100 161 106 184 112 206 c 1
 107 213 104 216 104 220 c 0
 104 224 107 227 112 234 c 1xbcc80c
 102 272 l 1xbce00c
 111 286 112 283 112 300 c 1xbcc80c
 103 308 102 311 102 322 c 2
 102 329 l 1xbce00c
 120 357 l 1
 110 365 106 368 106 373 c 0
 106 376 108 379 112 385 c 1
 112 395 l 1xbcc80c
 108 401 106 407 106 412 c 0
 106 422 111 431 120 442 c 1
 120 452 l 1
 112 464 110 478 110 493 c 0
 110 501 112 509 112 518 c 1xbcd00c
 120 546 l 1
 105 561 104 572 102 594 c 1
 94 592 88 591 82 591 c 0
 68 591 58 596 46 612 c 1xbde00c
 37 606 32 603 30 603 c 0x3ee00c
 28 603 25 606 16 612 c 1
 16 622 l 1x3de00c
 25 628 28 631 30 631 c 0x3ee00c
 32 631 37 628 46 622 c 1x3de00c
 16 679 l 1
 26 681 34 682 42 682 c 0
 49 682 55 681 64 679 c 1
EndSplineSet
Validated: 41
EndChar

StartChar: L
Encoding: 76 76 33
Width: 620
VWidth: -237
Flags: W
HStem: 221 37<432.418 458.6> 571 19<150 165.048> 664 20G<376.5 396> 674 20G<44.5263 92 115 124 163.5 172.167 210 228.5 258.5 270.5 332 344.897>
VStem: 150 123<230 294.925> 150 95<354.159 419 571 586.631> 158 105<146.364 172.356 173.373 210.489> 168 77<524.784 571> 364 12<599 632.819>
LayerCount: 2
Fore
SplineSet
442 173 m 5xc080
 447 158 447 159 462 154 c 5
 462 173 l 5
 442 173 l 5xc080
120 202 m 5
 130 192 l 5
 120 202 l 5
300 192 m 5
 308 180 305 181 292 173 c 5
 300 192 l 5
566 211 m 5
 574 202 l 5
 566 211 l 5
134 574 m 4
 138 578 137 568 136 567 c 4
 132 563 133 573 134 574 c 4
442 353 m 5
 455 343 456 341 462 325 c 5
 446 330 440 330 440 338 c 4
 440 341 441 346 442 353 c 5
604 306 m 5
 612 296 l 5
 604 306 l 5
292 296 m 5
 307 291 305 292 310 277 c 5
 292 277 l 5
 292 296 l 5
386 296 m 5
 401 291 399 292 404 277 c 5
 389 282 391 281 386 296 c 5
102 627 m 5
 112 618 l 5
 102 627 l 5
8 627 m 5
 21 617 20 615 26 599 c 5
 7 607 10 606 8 627 c 5
168 646 m 5xc180
 178 637 l 5
 168 646 l 5xc180
150 571 m 5xe480
 150 590 l 5xe480
 165 595 163 593 168 608 c 5
 130 590 l 5
 120 590 l 5
 110 595 107 596 102 596 c 4
 97 596 91 595 82 590 c 5
 36 599 l 5
 36 656 l 5
 54 694 l 5
 82 694 l 5
 92 675 l 5
 110 679 110 678 120 694 c 5
 128 693 137 692 144 692 c 4
 152 692 159 693 168 694 c 5xd180
 178 646 l 5
 192 672 196 685 224 694 c 5
 233 680 234 682 234 665 c 5
 254 665 l 5
 254 682 254 680 263 694 c 5
 278 693 292 691 306 691 c 4
 316 691 326 692 338 694 c 5xd280
 348 665 l 5
 363 677 367 680 386 684 c 5
 396 675 l 5
 389 648 376 627 376 599 c 5
 366 599 l 5
 364 608 364 614 364 620 c 4
 364 628 364 635 366 646 c 5
 358 646 l 5
 348 608 l 5
 328 590 l 5
 282 599 l 5
 269 586 264 584 245 580 c 5xe480
 245 542 l 5xe180
 262 533 264 531 273 514 c 5xe880
 254 505 254 476 245 457 c 5xe180
 263 448 l 5
 263 429 l 5xe280
 245 419 l 5
 245 400 l 5xe480
 263 385 262 378 263 353 c 5xe280
 272 343 272 341 273 325 c 5
 254 306 l 5
 271 306 268 305 282 296 c 5
 275 273 273 254 273 230 c 5xe880
 268 215 269 216 254 211 c 5
 258 200 260 195 260 190 c 4
 260 186 259 181 254 173 c 5
 263 159 263 162 263 145 c 5
 300 154 l 5
 313 135 316 133 338 126 c 5
 332 135 330 138 330 140 c 4
 330 142 332 145 338 154 c 5
 414 116 l 5
 419 132 422 142 432 154 c 5
 432 192 l 5
 451 196 455 199 470 211 c 5
 432 221 l 5
 432 249 l 5
 441 255 444 258 446 258 c 4
 448 258 453 255 462 249 c 5
 456 268 444 284 442 306 c 5
 452 296 l 5
 466 314 472 319 472 330 c 4
 472 334 471 337 470 343 c 5
 489 351 506 353 528 353 c 5
 532 340 535 336 546 325 c 5
 554 305 557 299 574 287 c 5
 566 239 l 5
 578 236 581 237 594 239 c 5
 604 183 l 5
 604 173 l 5
 584 164 l 5
 584 116 l 5
 593 102 594 105 594 88 c 5
 580 79 583 79 566 79 c 5
 564 56 559 50 546 31 c 5
 521 30 515 30 500 12 c 5
 478 14 467 16 452 31 c 5
 442 31 l 5
 437 19 432 16 424 16 c 4
 416 16 408 20 396 22 c 5
 383 13 377 12 358 12 c 5
 310 31 l 5
 295 12 288 12 263 12 c 5
 263 22 l 5xe280
 224 22 l 5
 216 50 l 5
 206 50 l 5
 201 34 197 26 188 12 c 5
 172 17 162 21 150 31 c 5
 141 28 136 27 132 27 c 4
 127 27 122 28 112 31 c 5
 103 11 101 10 82 3 c 5
 74 41 l 5
 54 26 41 15 16 12 c 5
 36 60 l 5
 8 69 l 5
 26 126 l 5
 34 125 41 125 48 125 c 4
 66 125 84 127 102 135 c 5
 112 135 l 5
 150 116 l 5xe480
 158 156 158 187 158 230 c 5xe280
 150 230 l 5
 150 258 l 5xe880
 157 277 158 293 158 312 c 2
 158 325 l 5xe280
 140 334 l 5
 140 343 l 5
 148 355 150 360 150 368 c 4
 150 371 151 375 150 381 c 5xe480
 163 409 149 452 168 476 c 5xe180
 168 493 167 490 158 504 c 5
 158 523 l 5xe280
 166 541 167 551 168 571 c 5xe180
 150 571 l 5xe480
EndSplineSet
Validated: 9
EndChar

StartChar: M
Encoding: 77 77 34
Width: 620
VWidth: -241
Flags: W
HStem: 14 19<206 220.629> 336 14<404.466 446.553> 421 38<272 300> 465 51<424.421 452> 572 95<54.6439 82 386 424> 601 66<542.456 584> 656 20G<92 130> 666 20G<460.5 518>
VStem: 74 95<231.848 345 374.468 401.356> 74 85<260.375 345 374.782 421> 82 77<345 374 374.782 420.734 430 458.535> 444 93<203.655 222 222.888 278.3>
LayerCount: 2
Fore
SplineSet
150 544 m 1xf010
 168 548 168 547 178 563 c 1
 157 561 158 563 150 544 c 1xf010
159 516 m 1xf030
 164 501 163 502 178 497 c 1
 178 468 l 1
 159 459 l 1xf030
 162 449 162 444 162 439 c 0
 162 434 162 429 159 421 c 1
 159 402 l 1xf050
 168 388 169 391 169 374 c 1xf090
 159 374 l 1xf030
 159 345 l 1xf050
 167 324 169 305 169 284 c 0
 169 276 169 268 169 260 c 1
 184 248 186 240 196 222 c 1
 180 221 178 222 169 213 c 1xf090
 159 166 l 1
 196 156 l 1
 178 109 l 1
 244 99 l 1
 240 118 237 124 224 137 c 1
 224 147 l 1
 243 155 242 154 244 175 c 1
 230 184 233 185 216 185 c 1
 219 195 220 199 220 204 c 0
 220 208 219 213 216 222 c 1
 224 234 226 246 226 261 c 0
 226 267 224 273 224 279 c 1
 216 279 l 1
 216 301 214 316 206 336 c 1
 188 326 l 1
 178 355 l 1
 206 355 l 1
 206 364 l 1
 201 379 203 378 188 383 c 1
 196 421 l 1
 187 435 188 432 188 449 c 1
 194 458 196 467 196 477 c 0
 196 492 191 508 188 525 c 1
 171 525 173 525 159 516 c 1xf030
452 516 m 1
 462 506 l 1
 452 516 l 1
424 468 m 1
 424 459 l 1
 435 454 443 450 450 450 c 0
 458 450 465 455 470 468 c 1
 460 466 455 465 448 465 c 0
 441 465 433 466 424 468 c 1
420 418 m 0
 416 414 425 414 426 415 c 0
 430 419 421 419 420 418 c 0
414 383 m 1
 404 355 l 1
 414 352 420 350 426 350 c 0
 433 350 440 352 452 355 c 1
 452 364 l 1
 414 383 l 1
404 336 m 1
 404 308 l 1
 452 308 l 1
 452 325 451 322 442 336 c 1
 404 336 l 1
404 289 m 1
 396 270 395 253 395 234 c 0
 395 230 396 226 396 222 c 1
 386 222 l 1
 384 199 379 194 366 175 c 1
 366 166 l 1
 386 156 l 1
 386 128 l 1
 366 118 l 1
 366 109 l 1
 386 90 l 1
 396 90 l 1
 413 106 420 112 442 118 c 1
 442 156 l 1
 452 156 l 1
 452 194 l 1
 404 185 l 1
 404 194 l 1
 452 203 l 1
 447 217 444 229 444 241 c 0
 444 253 447 264 452 279 c 1
 404 289 l 1
74 404 m 2xf450
 74 421 l 1xf450
 82 430 l 1
 82 449 l 1
 70 463 68 477 64 497 c 1
 73 512 71 510 82 516 c 1
 82 572 l 1xf830
 65 572 68 573 54 582 c 1
 46 601 l 1
 8 610 l 1
 11 637 17 647 36 667 c 1
 92 667 l 1xf430
 102 676 l 1
 120 676 l 1xf230
 140 668 161 667 182 667 c 2
 216 667 l 1xf430
 234 648 l 1
 234 631 233 634 224 620 c 1
 262 620 l 1
 261 592 262 585 234 582 c 1
 237 571 238 560 238 551 c 0
 238 540 237 530 234 516 c 1
 247 512 251 508 262 497 c 1
 261 478 262 475 254 459 c 1
 300 459 l 1
 310 421 l 1
 272 421 l 1
 274 415 276 410 276 405 c 0
 276 392 267 383 262 364 c 1
 295 360 306 350 310 317 c 1
 334 332 334 350 348 374 c 1
 326 381 327 380 320 402 c 1
 358 412 l 1
 356 420 354 426 354 433 c 0
 354 444 357 455 358 468 c 1
 341 468 342 469 328 478 c 1
 328 497 l 1
 376 516 l 1
 366 544 l 1
 386 563 l 1
 404 563 l 1
 424 544 l 1
 414 516 l 1
 452 516 l 1
 438 535 431 550 424 572 c 1
 376 572 l 1xf830
 357 581 350 586 338 601 c 1xf430
 386 620 l 1
 386 667 l 1
 424 667 l 1xf830
 424 676 l 1xf230
 443 676 451 678 470 686 c 1xf130
 518 676 l 1xf230
 518 667 l 1
 566 667 l 1
 594 658 l 1
 604 620 l 1
 584 601 l 1
 546 601 l 1
 544 579 544 576 528 563 c 1
 537 535 l 1
 528 519 528 515 528 497 c 1
 543 492 541 493 546 478 c 1
 532 469 535 468 518 468 c 1
 521 457 522 448 522 440 c 0
 522 432 521 423 518 412 c 1
 529 406 527 408 537 393 c 1
 537 376 537 378 528 364 c 1
 556 355 l 1
 551 330 550 297 537 279 c 1
 537 270 l 1
 546 256 546 241 546 222 c 1
 537 222 l 1
 537 194 l 1
 546 181 545 175 546 156 c 1
 559 143 562 137 566 118 c 1
 584 117 588 117 604 109 c 1
 604 93 l 2
 604 69 605 47 612 24 c 1
 595 24 598 23 584 14 c 1
 566 14 l 1
 566 33 l 1
 550 28 542 23 528 14 c 1
 509 14 506 15 490 24 c 1
 486 11 481 6 470 -5 c 1
 441 14 421 14 386 14 c 1
 396 71 l 1
 377 56 373 38 366 14 c 1
 347 10 343 7 328 -5 c 1
 292 5 l 1
 262 24 l 1
 256 45 243 61 234 80 c 1
 224 80 l 1
 206 33 l 1
 222 29 220 30 224 14 c 1
 140 14 l 1
 140 5 l 1
 131 5 122 4 114 4 c 0
 99 4 86 6 74 14 c 1
 46 5 l 1
 32 14 33 14 16 14 c 1
 25 46 26 73 26 109 c 1
 74 128 l 1
 74 130 74 132 74 134 c 0xf450
 74 145 73 147 82 156 c 1
 82 166 l 1xf430
 72 175 71 182 64 194 c 1
 64 213 l 1
 73 233 76 257 76 282 c 0
 76 303 74 325 74 345 c 1xf490
 82 345 l 1
 82 374 l 1xf430
 75 384 74 393 74 404 c 2xf450
EndSplineSet
Validated: 5
EndChar

StartChar: N
Encoding: 78 78 35
Width: 620
VWidth: -245
Flags: W
HStem: 11 19<314 333> 162 28<314.645 343> 465 47<333 362> 521 21G<410.5 418> 569 28<306 332.259>
VStem: 98 28<115.644 143> 134 86<446.644 465 531.644 550> 276 96<370.516 417.995> 314 29<166.554 185.446> 314 19<11 30> 428 9<663 682> 437 96<247.371 275.72 436 454.392 550 559> 437 86<512.837 550> 494 29<663 676.508>
LayerCount: 2
Fore
SplineSet
314 30 m 1xfe60
 333 30 l 1
 333 11 l 1
 314 11 l 1
 314 30 l 1xfe60
268 -8 m 1
 276 -18 l 1xff20
 268 -8 l 1
372 153 m 1
 380 143 l 1
 372 153 l 1
274 225 m 0
 275 226 284 226 280 222 c 0
 279 221 270 221 274 225 c 0
314 228 m 1xfe60
 324 219 l 1
 314 228 l 1xfe60
284 206 m 1
 290 203 l 1
 289 202 280 202 284 206 c 1
314 181 m 5xfea0
 328 190 326 190 343 190 c 5
 343 162 l 5
 326 162 328 162 314 171 c 5
 314 181 l 5xfea0
437 238 m 1
 448 228 l 1
 437 238 l 1
276 247 m 1xff20
 286 238 l 1
 276 247 l 1xff20
306 247 m 1
 314 238 l 1xfe60
 306 247 l 1
410 294 m 1
 418 285 l 1
 410 294 l 1
437 276 m 1
 428 247 l 1
 438 255 442 258 442 263 c 0
 442 266 440 270 437 276 c 1
380 446 m 1
 395 441 395 442 400 427 c 1
 385 432 385 431 380 446 c 1
258 389 m 1
 268 380 l 1
 258 389 l 1
380 389 m 1
 403 388 409 391 418 370 c 1
 380 380 l 1
 380 389 l 1
240 342 m 1
 248 332 l 1
 240 342 l 1
258 342 m 1
 276 342 l 1
 276 323 l 1xff20
 261 328 263 327 258 342 c 1
220 465 m 1
 220 453 l 2
 220 440 217 431 210 417 c 1
 229 402 239 393 248 370 c 1
 232 369 229 370 220 361 c 1
 225 338 226 331 248 323 c 1
 244 310 242 301 242 292 c 0
 242 284 244 277 248 266 c 1
 238 258 234 252 234 247 c 0
 234 242 238 236 248 228 c 1
 230 162 l 1
 240 134 l 1
 259 141 266 143 286 143 c 1
 277 129 276 132 276 115 c 1xff20
 293 115 292 114 306 105 c 1
 333 115 l 1
 337 102 341 97 352 86 c 1
 400 96 l 1
 400 105 l 1
 362 115 l 1
 362 209 l 1
 348 218 340 232 324 238 c 1
 324 262 321 281 314 304 c 1xfe60
 286 294 l 1
 295 310 301 306 286 313 c 1
 286 342 l 1
 282 360 287 363 268 370 c 1
 273 381 276 392 276 401 c 0
 276 411 270 418 256 418 c 0
 254 418 251 417 248 417 c 1
 268 455 l 1
 220 465 l 1
410 484 m 1
 418 474 l 1
 410 484 l 1
224 515 m 0
 223 514 222 505 226 509 c 0
 227 510 228 519 224 515 c 0
400 540 m 1
 418 540 l 1
 418 521 l 1
 403 526 405 525 400 540 c 1
220 550 m 1
 220 531 l 1
 235 536 235 535 240 550 c 1
 220 550 l 1
68 692 m 1
 80 689 85 690 98 692 c 1
 109 681 113 677 126 673 c 1
 134 692 l 1
 152 689 167 686 182 686 c 0
 194 686 206 688 220 692 c 1
 210 682 l 1
 226 673 236 670 246 670 c 0
 253 670 260 671 268 673 c 1
 289 658 298 654 324 654 c 1
 324 646 l 2
 324 624 323 614 306 597 c 1
 323 597 319 597 333 588 c 1
 333 578 l 1
 317 569 314 569 296 569 c 1
 296 559 l 1
 313 559 310 559 324 550 c 1
 324 521 l 1
 362 512 l 1
 362 465 l 1
 333 465 l 1
 333 455 l 1xfe60
 352 451 357 448 372 436 c 1
 372 370 l 1xff20
 410 361 l 1
 400 323 l 1
 413 313 412 310 418 294 c 1
 427 308 432 316 437 332 c 1
 422 337 423 336 418 351 c 1
 448 361 l 1
 431 378 428 393 428 413 c 2
 428 436 l 1
 437 436 l 1
 437 465 l 1
 431 473 428 482 428 489 c 0
 428 499 435 507 448 512 c 1
 440 530 437 539 437 559 c 1
 400 569 l 1
 389 604 363 603 333 616 c 1
 340 638 343 641 362 654 c 1
 353 668 352 665 352 682 c 1
 367 677 375 673 384 673 c 0
 391 673 399 675 410 682 c 1
 428 663 l 1
 428 682 l 1
 437 682 l 1
 437 663 l 1
 446 672 452 678 456 678 c 0
 459 678 462 673 466 663 c 1
 494 663 l 1
 502 682 502 680 523 682 c 1xfe64
 514 654 l 1
 531 665 540 676 560 682 c 1
 570 673 l 1
 560 654 l 1
 598 644 l 1
 597 618 595 609 580 588 c 1
 533 588 l 1xfe20
 533 550 l 1xfe20
 523 550 l 1xfe20
 523 493 l 1
 542 474 l 1
 542 455 l 1
 523 455 l 1
 527 442 530 431 530 421 c 0
 530 414 529 407 523 399 c 1
 523 389 l 1xfe24
 542 380 l 1
 541 373 540 367 540 362 c 0
 540 352 544 345 552 332 c 1
 540 309 546 284 533 266 c 1xfe20
 533 247 l 1xfe20
 542 238 545 231 552 219 c 1
 552 209 l 1
 546 200 542 197 542 195 c 0
 542 193 546 190 552 181 c 1
 552 171 l 1
 543 157 542 160 542 143 c 1
 560 124 l 1
 543 98 542 81 542 49 c 1
 533 35 533 37 533 20 c 1xfe20
 513 20 502 22 484 30 c 1
 474 14 474 15 456 11 c 1
 447 25 448 22 448 39 c 1
 410 39 l 1
 401 53 395 61 390 77 c 1
 380 74 375 73 370 73 c 0
 365 73 360 74 352 77 c 1
 343 58 l 1xfea0
 314 58 l 1xfe60
 306 49 l 1
 306 39 l 1
 296 30 l 1
 281 25 281 26 276 11 c 1
 234 19 197 20 154 20 c 1
 140 29 143 30 126 30 c 1
 116 8 113 4 88 1 c 1
 98 11 l 1
 81 25 59 32 40 39 c 1
 22 58 l 1
 30 96 l 1
 56 104 78 113 106 115 c 1
 97 129 98 126 98 143 c 1
 126 143 l 1
 126 126 125 129 116 115 c 1
 133 129 137 140 144 162 c 1
 133 168 135 166 126 181 c 1
 126 190 l 1
 144 200 l 1
 139 209 138 213 138 218 c 0
 138 223 139 228 144 238 c 1
 134 238 l 1
 144 266 l 1
 133 272 135 270 126 285 c 1
 130 303 128 303 144 313 c 1
 135 329 134 332 134 351 c 1
 139 366 139 365 154 370 c 1
 135 388 135 404 126 427 c 1
 126 446 l 1
 135 460 134 457 134 474 c 1
 116 484 l 1
 116 493 l 1
 124 505 126 510 126 518 c 0
 126 521 127 525 126 531 c 1
 135 545 134 542 134 559 c 1
 98 588 l 1
 106 569 l 1
 84 576 81 578 68 597 c 1
 49 597 46 598 30 607 c 1
 38 626 43 632 60 644 c 1
 60 663 60 673 68 692 c 1
596 663 m 0
 596 655 591 665 594 668 c 0
 595 668 596 665 596 663 c 0
343 569 m 1xfea0
 348 584 347 583 362 588 c 1
 372 569 l 1xff20
 343 569 l 1xfea0
EndSplineSet
Validated: 9
EndChar

StartChar: O
Encoding: 79 79 36
Width: 620
VWidth: 1380
Flags: W
HStem: 10 96<280.004 294.906 340 400.469> 30 76<255.002 259.492 340.812 403.877> 241 28<176.554 195.446> 457 28<434.554 453.446> 530 21G<222.5 232.5> 577 28<261.645 290> 692 20G<318 367>
VStem: 62 92<211.677 283.691> 172 28<241.644 269> 261 29<581.554 600.446> 430 28<457.644 485> 472 91<253.001 263 298 307.485 308.24 348.157>
LayerCount: 2
Fore
SplineSet
261 596 m 1x3ff0
 275 605 273 605 290 605 c 1
 290 577 l 1
 273 577 275 577 261 586 c 1
 261 596 l 1x3ff0
172 269 m 1
 200 269 l 1
 200 252 200 255 191 241 c 1
 181 241 l 1
 172 255 172 252 172 269 c 1
191 222 m 1
 203 216 200 221 200 203 c 1
 181 203 l 1
 191 222 l 1
172 175 m 1
430 485 m 1
 458 485 l 1
 458 468 458 471 449 457 c 1
 439 457 l 1
 430 471 430 468 430 485 c 1
449 438 m 1
 461 432 458 437 458 419 c 1
 439 419 l 1
 449 438 l 1
430 391 m 1
325 712 m 1
 409 688 474 666 498 630 c 1
 518 630 534 565 568 450 c 1
 558 434 l 1
 558 419 l 1
 573 389 l 1
 566 377 563 363 563 348 c 1
 570 326 573 313 573 308 c 1
 566 297 563 287 563 278 c 2
 563 252 l 2
 563 249 565 248 568 248 c 1
 555 227 542 189 528 136 c 1
 514 114 498 97 482 86 c 1
 448 54 432 34 432 25 c 1
 406 30 l 1
 401 30 l 1x7ff0
 390 16 358 10 305 10 c 1xbff0
 295 14 l 1
 285 14 280 10 280 -0 c 1
 270 -0 l 2
 268 0 257 10 239 30 c 1
 234 30 l 1
 219 20 l 1
 214 20 l 1
 195 47 129 106 104 106 c 1x7ff0
 104 111 111 110 111 118 c 0
 111 125 106 137 88 166 c 1
 68 224 62 214 62 230 c 2
 62 308 l 1
 47 338 l 1
 57 358 62 371 62 374 c 2
 62 385 l 2
 62 424 76 464 76 466 c 1
 85 466 76 473 88 540 c 1
 110 556 131 588 153 636 c 1
 167 636 188 653 214 687 c 1
 274 698 311 706 325 712 c 1
280 616 m 1
 254 622 l 1
 251 617 251 611 251 605 c 0
 251 592 255 575 255 562 c 0
 255 551 252 542 243 537 c 1
 243 531 237 530 228 530 c 0
 217 530 202 533 192 533 c 0
 188 533 185 532 184 530 c 1
 213 509 l 1
 213 499 159 422 149 392 c 1
 178 360 l 1
 171 349 144 348 144 342 c 1
 149 342 178 314 186 290 c 1
 179 279 154 285 154 276 c 1
 164 268 171 246 174 210 c 1
 193 173 220 141 255 114 c 1
 255 109 258 108 262 108 c 0
 269 108 279 112 288 112 c 0
 291 112 293 111 295 110 c 1
 306 117 322 161 331 161 c 2
 332 161 l 1
 396 140 l 1
 396 130 340 108 340 106 c 1
 350 106 l 2xbff0
 373 106 401 121 432 151 c 1
 426 162 l 1
 426 166 l 1
 453 179 457 209 467 253 c 1
 470 253 472 255 472 258 c 2
 472 263 l 1
 462 278 l 1
 462 283 l 1
 472 298 l 1
 472 314 470 331 467 349 c 1
 472 374 l 1
 469 384 465 390 462 390 c 1
 469 401 487 408 487 414 c 1
 482 434 l 1
 487 444 l 1
 481 484 451 497 420 521 c 5
 420 531 l 6
 420 534 422 536 425 536 c 5
 416 558 408 570 400 572 c 5
 394 572 l 6
 386 572 388 590 386 573 c 5
 378 585 l 5
 364 552 l 5
 369 572 l 5
 364 587 354 599 339 607 c 5
 324 574 l 6
 324 572 325 571 325 571 c 2
 326 571 327 583 327 593 c 0
 327 601 326 607 324 607 c 5
 324 627 322 632 315 632 c 2
 310 632 l 1
 290 630 280 624 280 616 c 1
436 151 m 1
 452 151 l 1
 452 162 l 1
 446 162 l 1
 439 161 436 157 436 151 c 1
EndSplineSet
Validated: 5
EndChar

StartChar: P
Encoding: 80 80 37
Width: 620
VWidth: -229
Flags: W
HStem: 495 19<380 399> 599 87<286 313.356 334.837 380> 609 85<286.782 378.974>
VStem: 182 113<145.644 210.859 211.645 220.25 221.749 240 249.297 305.217 391.228 448> 182 103<173.75 210.859 211.645 240 249.297 267.251 277.645 306> 182 86<523 551.485 571.644 580> 380 19<495 514> 476 114<476.275 528.181> 476 85<513.172 561>
LayerCount: 2
Fore
SplineSet
380 514 m 5x82
 399 514 l 5
 399 495 l 5
 380 495 l 5
 380 514 l 5x82
30 50 m 5
 40 41 l 5
 30 50 l 5
314 609 m 5xa280
 300 600 303 599 286 599 c 5
 268 580 l 5
 268 523 l 5
 306 504 l 5
 268 486 l 5xc680
 270 459 270 438 295 429 c 5
 295 391 l 5
 314 398 315 399 324 419 c 5
 333 404 333 406 344 400 c 5
 399 400 l 5
 414 409 412 408 418 419 c 5
 456 419 l 5
 484 467 l 5
 484 484 485 481 476 495 c 5xd3
 476 542 l 5
 467 556 466 554 466 571 c 5
 438 590 l 5
 380 590 l 5
 380 599 l 5xc280
 360 599 352 601 334 609 c 5
 314 609 l 5xa280
68 694 m 5xa6
 154 684 l 5
 164 675 l 5
 182 675 l 5
 196 684 210 684 230 684 c 5
 230 694 l 5
 258 694 l 5xa6
 270 689 278 686 286 686 c 4xc6
 294 686 302 689 314 694 c 5
 324 694 l 5
 343 685 358 684 380 684 c 5
 389 693 394 693 410 694 c 5
 427 684 436 679 456 675 c 5
 465 661 466 663 466 646 c 5
 504 646 l 5
 532 618 l 5
 531 599 530 596 522 580 c 5
 539 580 538 580 552 571 c 5
 561 561 l 5
 561 533 l 5xa680
 576 524 579 518 590 504 c 5
 590 495 l 5xa3
 580 480 581 482 570 476 c 5
 570 429 l 5
 561 429 l 5
 561 391 l 5
 532 382 l 5
 514 363 l 5
 514 344 l 5
 484 315 l 5
 465 311 463 308 448 296 c 5
 380 306 l 5
 372 287 l 5
 362 287 l 5
 353 293 348 295 342 295 c 4
 335 295 327 292 314 287 c 5
 303 298 299 302 286 306 c 5
 286 289 286 291 295 277 c 5
 295 268 l 5xb280
 288 252 285 237 285 221 c 4xaa
 285 205 288 189 295 173 c 5
 295 156 295 159 286 145 c 5
 305 141 311 139 324 126 c 5
 340 134 343 135 362 136 c 5
 372 117 l 5
 390 117 l 5
 399 133 399 132 418 136 c 5
 426 115 428 95 428 74 c 4
 428 66 428 58 428 50 c 5
 410 22 l 5
 372 32 l 5
 364 26 356 22 348 22 c 4
 340 22 332 26 324 32 c 5
 286 22 l 5
 263 31 245 32 220 32 c 5
 202 13 l 5
 173 21 143 21 116 32 c 5
 107 20 100 12 88 3 c 5
 50 41 l 5
 50 107 l 5
 88 145 l 5
 113 144 119 144 134 126 c 5
 144 129 149 130 154 130 c 4
 158 130 163 129 172 126 c 5
 173 144 178 158 178 173 c 4
 178 182 176 191 172 202 c 5
 172 211 l 5
 181 225 182 223 182 240 c 5xb2
 172 249 l 5
 172 268 l 5
 181 291 182 309 182 334 c 5xa6
 172 344 l 5
 172 363 l 5
 180 383 182 403 182 424 c 4
 182 432 182 440 182 448 c 5xb2
 202 476 l 5
 189 480 183 484 172 495 c 5
 174 505 176 514 176 522 c 4
 176 531 174 541 172 552 c 5
 181 567 181 565 192 571 c 5
 183 585 182 582 182 599 c 5
 162 590 145 582 128 582 c 4
 115 582 102 587 88 599 c 5
 50 599 l 5xc6
 40 646 l 5
 50 665 l 5
 60 665 l 5
 60 682 59 680 68 694 c 5xa6
EndSplineSet
Validated: 1
EndChar

StartChar: Q
Encoding: 81 81 38
Width: 620
VWidth: 1303
Flags: W
HStem: -121 5<512.094 517.139> 133 96<291.799 343.858> 289 19<453 473> 526 6G<272 295 327.5 355.348 384.5 396> 544 13<268 270> 544 2<241 253.294> 688 20G<269.5 343>
VStem: 74 78<330.423 378.765> 83 64<234.19 273.5 291.5 314> 221 25<232 242.54> 266 4<544 551> 377 19<551 565.664>
LayerCount: 2
Fore
SplineSet
505 -116 m 5xf370
 513 -116 l 6
 515 -116 516 -117 517 -117 c 4
 521 -118 520 -121 517 -121 c 0
 516 -121 514 -121 512 -120 c 5
 510 -121 l 5
 494 -111 l 5
 482 -111 l 5
 478 -114 470 -121 462 -121 c 6
 460 -121 l 5
 385 -63 l 5
 374 -32 356 -4 324 16 c 5
 322 16 l 5
 311 9 302 5 295 5 c 6
 291 5 l 5
 291 10 l 5
 290 13 281 20 276 24 c 5
 266 18 255 16 246 16 c 6
 244 16 l 5
 214 43 192 54 178 61 c 5
 164 78 101 163 101 180 c 4
 101 191 89 214 77 234 c 5
 79 238 83 245 83 249 c 5xf2f0
 73 284 l 5
 78 309 l 5
 76 315 71 327 68 330 c 5
 60 330 l 5
 65 339 74 350 74 364 c 4
 74 368 70 374 68 379 c 5
 73 390 l 5
 72 396 70 402 68 404 c 5
 61 404 l 5
 73 427 82 456 87 535 c 5
 109 565 152 625 152 648 c 6
 152 652 l 5
 156 652 l 6
 167 652 185 660 217 687 c 5
 219 687 l 6
 232 687 254 694 285 708 c 5
 401 688 450 667 453 640 c 5
 462 631 468 626 471 624 c 5
 489 638 l 5
 508 638 l 5
 495 617 l 5
 495 612 l 5
 519 602 534 501 546 404 c 4
 546 398 550 389 556 374 c 5
 548 357 555 354 555 345 c 5
 558 327 559 313 559 304 c 5
 538 190 514 145 513 138 c 4
 511 129 489 101 437 43 c 5
 433 28 l 5
 435 27 l 5
 444 43 464 50 477 55 c 5
 514 35 552 21 559 1 c 5
 559 0 l 6
 559 -47 534 -84 505 -116 c 5xf370
344 123 m 5
 341 132 336 134 331 134 c 0
 327 134 323 133 319 133 c 0
 318 133 317 133 316 133 c 4
 315 124 308 124 286 107 c 5
 293 103 301 96 307 91 c 5
 309 91 l 5
 344 123 l 5
232 243 m 5
 245 240 246 231 246 228 c 6
 246 225 l 5
 229 216 l 5
 221 232 l 5
 221 243 l 5
 232 243 l 5
337 562 m 5
 334 562 l 5
 334 560 l 5
 337 559 339 559 341 558 c 5
 342 559 l 5
 337 562 l 5
381 594 m 5
 380 594 l 5
 378 589 374 586 367 586 c 5
 346 591 l 5
 343 585 l 5
 343 575 l 5
 366 570 374 561 376 551 c 5
 377 551 l 5
 377 559 379 573 381 594 c 5
253 546 m 5xf670
 259 561 282 572 290 576 c 5
 314 572 l 5
 315 574 l 5
 311 578 288 591 261 605 c 5
 257 590 240 581 214 577 c 5
 214 567 l 5
 219 539 l 5
 219 546 l 5
 253 546 l 5xf670
309 627 m 6
 307 627 304 624 300 615 c 5
 300 607 l 5
 307 608 314 611 319 617 c 5
 318 620 316 624 315 627 c 5
 309 627 l 6
476 278 m 6
 476 285 463 287 453 289 c 5
 453 308 l 5
 473 308 l 5
 490 295 l 5
 490 299 l 5
 476 354 l 5
 481 354 l 6
 485 354 486 355 486 359 c 6
 486 364 l 5
 474 428 464 435 462 435 c 6
 452 435 l 5
 459 443 l 6
 466 452 472 460 472 464 c 4
 466 489 448 504 425 518 c 5
 425 521 l 6
 425 554 418 566 406 566 c 4
 402 566 396 555 396 515 c 6
 396 511 l 5
 391 511 l 6
 378 511 373 524 372 536 c 5
 359 536 l 5
 331 513 l 5
 324 536 318 546 314 546 c 6
 295 546 l 5
 295 526 l 5
 276 526 l 6
 268 526 266 536 266 544 c 0xf6f0
 266 551 268 557 269 557 c 0
 270 557 270 555 270 549 c 6
 270 544 l 5xfaf0
 241 544 l 5
 219 536 l 5
 214 536 l 6
 199 536 191 484 189 470 c 5
 170 470 l 5
 163 474 l 5
 155 460 152 422 152 384 c 6
 152 364 l 6xf770
 152 349 148 336 139 327 c 5
 142 319 145 314 147 314 c 6
 153 314 l 5
 152 307 147 281 147 278 c 4xf6f0
 147 231 158 213 176 213 c 5
 190 210 191 202 191 197 c 6
 191 188 l 5
 176 188 l 5
 176 176 l 5
 194 173 l 5
 200 182 203 184 207 184 c 0
 210 184 214 182 221 182 c 0
 224 182 229 183 234 184 c 5
 236 194 267 235 286 243 c 5
 310 231 323 229 330 229 c 0
 335 229 337 230 339 230 c 0
 340 230 341 229 342 227 c 6
 356 196 l 5
 389 183 l 6
 390 183 387 179 405 167 c 5
 415 167 l 5
 448 224 l 5
 449 235 461 246 476 256 c 5
 476 278 l 6
EndSplineSet
Validated: 5
EndChar

StartChar: R
Encoding: 82 82 39
Width: 620
VWidth: -229
Flags: W
HStem: 495 19<337 356> 599 87<243 270.356 290.837 337> 609 85<243.782 335.974>
VStem: 139 113<145.644 210.859 211.645 220.25 221.749 240 249.297 305.217 391.228 448> 139 103<173.75 210.859 211.645 240 249.297 267.251 277.645 306> 337 19<495 514> 432 114<476.275 528.181> 432 85<513.172 561>
LayerCount: 2
Fore
SplineSet
437 348 m 1x84
 437 333 l 1
 453 333 l 1
 453 338 l 2
 453 345 449 348 442 348 c 2
 437 348 l 1x84
337 514 m 1
 356 514 l 1
 356 495 l 1
 337 495 l 1
 337 514 l 1
12 49 m 1
 22 40 l 1
 12 49 l 1
271 609 m 1xa5
 257 600 260 599 243 599 c 1
 224 580 l 1
 224 523 l 1
 262 504 l 1
 224 486 l 1
 226 459 227 438 252 429 c 1
 252 391 l 1
 271 398 272 399 281 419 c 1
 290 404 289 406 300 400 c 1
 356 400 l 1
 371 409 369 408 375 419 c 1
 413 419 l 1
 441 467 l 1
 441 484 441 481 432 495 c 1xd6
 432 542 l 1
 423 556 423 554 423 571 c 1
 394 590 l 1
 337 590 l 1
 337 599 l 1xc5
 317 599 308 601 290 609 c 1
 271 609 l 1xa5
337 306 m 1
 328 287 l 1
 319 287 l 1
 310 293 305 295 299 295 c 0
 292 295 284 292 271 287 c 1
 260 298 256 302 243 306 c 1
 243 289 243 291 252 277 c 1
 252 268 l 1xb5
 245 252 242 237 242 221 c 0xac
 242 205 245 189 252 173 c 1
 252 156 252 159 243 145 c 1
 262 141 268 139 281 126 c 1
 297 134 256 133 275 134 c 1
 284 115 l 1
 303 115 l 1
 312 131 312 130 331 134 c 1
 339 113 341 93 341 72 c 0
 341 67 323 60 323 55 c 0
 323 52 327 50 341 48 c 1
 322 20 l 1
 284 30 l 1
 276 24 268 20 260 20 c 0
 252 20 289 26 281 32 c 1
 243 22 l 1
 220 31 202 32 177 32 c 1
 158 13 l 1
 129 21 125 20 98 31 c 1
 89 19 81 11 69 2 c 1
 31 40 l 1
 31 106 l 1
 69 144 l 1
 94 143 101 143 116 125 c 1
 126 128 131 129 136 129 c 0
 140 129 120 129 129 126 c 1
 130 144 134 158 134 173 c 0
 134 182 133 191 129 202 c 1
 129 211 l 1
 138 225 139 223 139 240 c 1xb4
 129 249 l 1
 129 268 l 1
 138 291 139 309 139 334 c 1xac
 129 344 l 1
 129 363 l 1
 137 383 139 403 139 424 c 0
 139 432 139 440 139 448 c 1xb4
 158 476 l 1
 145 480 140 484 129 495 c 1
 131 505 132 514 132 522 c 0
 132 531 131 541 129 552 c 1
 138 567 137 565 148 571 c 1
 139 585 139 582 139 599 c 1xcc
 119 590 130 585 113 585 c 0
 100 585 87 590 73 602 c 1
 35 602 l 1
 26 649 l 1
 35 668 l 1
 45 668 l 1
 45 685 45 683 54 697 c 1
 110 684 l 1
 120 675 l 1
 139 675 l 1
 153 684 166 684 186 684 c 1
 186 694 l 1
 214 694 l 1xac
 226 689 235 686 243 686 c 0xcc
 251 686 259 689 271 694 c 1
 281 694 l 1
 300 685 315 684 337 684 c 1
 346 693 350 693 366 694 c 1
 383 684 393 679 413 675 c 1
 422 661 438 673 438 656 c 5
 460 646 l 1
 489 618 l 1
 488 599 504 610 496 594 c 1
 513 594 494 580 508 571 c 1
 517 561 l 1
 517 533 l 1xad
 532 524 535 518 546 504 c 1
 546 495 l 1xa6
 536 480 538 482 527 476 c 1
 527 429 l 1
 517 429 l 1
 517 391 l 1xa5
 489 382 l 1
 470 363 l 1
 453 297 l 1
 489 168 l 1
 530 112 l 1
 545 112 562 126 576 126 c 0
 582 126 587 124 592 118 c 1
 606 106 l 1
 620 82 l 2
 621 82 621 82 621 81 c 0
 621 77 607 62 607 46 c 0
 607 43 607 41 608 38 c 1
 605 31 603 27 603 23 c 1
 566 28 l 1
 561 14 549 7 530 7 c 1
 530 12 524 18 510 23 c 1
 499 16 488 13 479 13 c 1
 463 29 437 44 401 59 c 1
 401 63 400 68 396 75 c 1
 400 77 401 92 401 121 c 1
 380 121 l 1
 386 147 l 1
 386 162 l 1
 370 188 l 1
 373 207 375 221 375 230 c 1
 358 239 349 254 349 276 c 1
 344 276 l 1
 349 302 l 1
 349 307 l 2
 349 314 337 306 337 306 c 1
EndSplineSet
Validated: 5
EndChar

StartChar: S
Encoding: 83 83 40
Width: 620
VWidth: -241
Flags: W
HStem: 363 104<192.831 275.725> 599 67<350.165 383.204> 674 20G<192 296 336 349.5 452.5 508.255>
VStem: 88 38<41 51> 400 114<520.362 583.167> 428 114<249 303.582> 438 84<469 509.25> 448 56<661.1 693.396>
LayerCount: 2
Fore
SplineSet
202 694 m 5xf4
 286 694 l 5
 296 684 l 5
 314 684 l 5
 323 693 328 693 344 694 c 5
 355 683 358 679 362 666 c 5
 400 666 l 5
 400 656 l 5xf8
 448 656 l 5
 448 659 448 662 448 665 c 0
 448 676 449 681 456 694 c 5
 504 694 l 5xf1
 514 647 l 5xf8
 522 647 l 5xf2
 532 618 l 5
 514 561 l 5
 514 543 l 5
 519 536 520 532 520 528 c 4
 520 524 519 521 514 514 c 5xf8
 522 476 l 5xf2
 494 448 l 5
 448 448 l 5xf1
 438 457 l 5
 438 514 l 5xf2
 422 519 414 524 400 533 c 5
 400 538 l 6xf8
 400 563 380 575 372 599 c 5
 324 599 l 5
 276 618 l 5
 261 603 252 601 230 599 c 5
 229 580 228 577 220 561 c 5
 182 561 l 5
 182 514 l 5
 191 500 192 503 192 486 c 5
 210 482 210 483 220 467 c 5
 258 467 l 5
 273 457 270 459 276 448 c 5
 295 454 313 456 334 457 c 5
 353 441 366 434 390 429 c 5
 403 445 406 446 428 448 c 5xf4
 436 419 447 409 476 401 c 5
 494 372 l 5
 494 344 l 5
 507 331 510 325 514 306 c 5xf8
 527 302 531 298 542 287 c 5
 542 249 l 5
 560 240 l 5
 560 211 l 5
 545 190 542 181 542 155 c 5xf4
 533 141 532 143 532 126 c 5
 518 117 521 117 504 117 c 5xf1
 494 79 l 5
 456 41 l 5
 438 41 l 5xf2
 425 22 422 20 400 13 c 5xf8
 391 27 390 24 390 41 c 5
 362 13 l 5
 314 3 l 5
 300 12 295 17 286 32 c 5
 268 32 l 5
 258 13 l 5
 248 13 l 5
 232 21 222 22 208 22 c 6
 192 22 l 5
 183 36 177 44 172 60 c 5
 126 51 l 5
 126 41 l 5
 116 22 l 5
 107 13 105 13 94 13 c 6
 88 13 l 5
 88 51 l 5
 75 55 71 59 60 70 c 5
 60 107 l 5
 68 107 l 5
 68 132 69 140 88 155 c 5
 79 174 78 189 78 211 c 5
 67 217 69 215 60 230 c 5
 68 278 l 5
 78 278 l 5
 78 296 79 300 88 316 c 5
 113 314 131 305 154 297 c 5
 164 287 l 5
 154 268 l 5
 182 259 l 5
 192 211 l 5
 211 207 215 205 230 193 c 5
 220 164 l 5
 235 159 235 160 240 145 c 5
 268 145 l 5
 276 126 l 5
 286 126 l 5
 290 139 295 144 306 155 c 5
 322 149 324 149 334 136 c 5
 347 140 355 142 364 142 c 4
 372 142 379 140 390 136 c 5
 397 155 398 155 418 164 c 5
 407 175 404 184 404 192 c 4
 404 202 410 213 410 230 c 5
 426 238 429 239 448 240 c 5xf1
 437 260 428 269 428 287 c 6
 428 297 l 5
 405 306 398 310 390 334 c 5
 314 316 l 5
 305 330 306 327 306 344 c 5
 284 346 273 348 258 363 c 5
 202 363 l 5
 193 377 187 385 182 401 c 5
 174 399 169 398 164 398 c 4
 155 398 149 402 134 410 c 5
 134 429 l 5
 106 438 l 5
 101 454 97 462 88 476 c 5
 86 499 81 505 68 524 c 5
 78 561 l 5
 87 575 93 583 98 599 c 5
 109 610 113 614 126 618 c 5
 126 647 l 5
 154 675 l 5
 192 675 l 5
 202 694 l 5xf4
EndSplineSet
Validated: 1
EndChar

StartChar: T
Encoding: 84 84 41
Width: 620
VWidth: -218
Flags: W
HStem: -8 21G<418 463.5> 1 123<213.727 258 400.888 418> 11 113<126 145 213.727 247.875> 20 57<494 514> 503 19<390 409> 559 19<220 240>
VStem: 40 114<399 446> 126 19<96 124> 254 112<127.837 171.438 493.374 530.626> 258 95<134.887 171.437 389 446> 268 85<134.887 199.356> 390 19<503 522> 456 114<389.691 454.117>
LayerCount: 2
Fore
SplineSet
390 522 m 5x0c18
 409 522 l 5
 409 503 l 5
 390 503 l 5
 390 522 l 5x0c18
372 399 m 5
 381 415 381 414 400 418 c 5
 392 399 393 401 372 399 c 5
230 597 m 5
 220 578 l 5
 240 578 l 5
 240 596 242 591 230 597 c 5
192 588 m 5
 202 578 l 5
 192 588 l 5
154 691 m 5x4e58
 172 691 l 5
 188 682 191 682 210 682 c 5
 210 691 l 5
 240 691 l 5
 296 673 l 5
 302 684 299 681 314 691 c 5
 390 673 l 5
 400 673 l 5
 409 691 l 5
 425 690 428 691 438 682 c 5
 456 682 l 5
 465 691 468 690 484 691 c 5
 494 673 l 5
 504 673 l 5
 504 664 l 5
 514 664 l 5
 514 654 l 5
 522 654 l 5
 522 645 l 5
 532 645 l 5
 552 626 l 5
 556 606 560 595 570 578 c 5
 560 512 l 5
 570 512 l 5
 570 492 572 483 580 465 c 5
 580 455 l 5
 572 436 570 427 570 408 c 5
 585 403 585 404 590 389 c 5
 560 380 l 5
 554 358 548 349 532 332 c 5
 484 332 l 5
 466 351 l 5
 462 370 460 374 448 389 c 5
 448 396 l 6
 448 407 447 409 456 418 c 5
 456 427 l 5
 446 439 443 449 438 465 c 5
 438 474 l 5
 456 484 l 5
 448 512 l 5
 466 541 l 5
 447 553 440 559 428 578 c 5
 400 569 l 5
 389 580 385 584 372 588 c 5
 370 564 365 550 353 531 c 5x4e38
 362 523 366 517 366 512 c 4x4c98
 366 507 362 501 353 493 c 5x4c38
 361 477 361 473 362 455 c 5
 353 446 l 5
 353 427 l 5
 358 420 359 417 359 413 c 4
 359 409 358 406 353 399 c 5
 353 389 l 5x4c58
 362 370 l 5
 353 342 l 5
 362 330 367 320 372 304 c 5
 353 247 l 5
 353 228 l 5
 358 221 359 218 359 214 c 4
 359 210 358 207 353 200 c 5
 353 181 l 5
 362 167 362 153 362 134 c 5
 384 132 387 131 400 115 c 5
 419 123 434 124 456 124 c 5x2c38
 466 96 l 5
 476 87 l 5
 514 77 l 5
 532 30 l 5
 516 21 512 20 494 20 c 5x1c38
 494 11 l 5x2c38
 475 7 471 4 456 -8 c 5
 418 -8 l 5x8c38
 418 1 l 5
 380 1 l 5x4c38
 372 11 l 5
 353 11 l 5x2c38
 344 2 341 1 330 1 c 4
 328 1 326 1 324 1 c 4
 310 7 298 10 286 10 c 4
 274 10 262 7 248 1 c 5
 240 1 l 5x4c38
 219 10 195 12 172 12 c 4
 154 12 134 11 116 11 c 5
 98 30 l 5
 98 68 l 5
 109 79 113 83 126 87 c 5
 126 124 l 5
 145 124 l 5x2d38
 145 96 l 5
 192 134 l 5
 201 120 205 112 210 96 c 5
 224 120 229 123 258 124 c 5
 258 127 258 130 258 133 c 4x4d58
 258 148 259 160 268 172 c 5x4c38
 268 189 267 186 258 200 c 5x4c58
 268 238 l 5x4c38
 250 253 248 263 248 285 c 6
 248 295 l 5
 239 309 240 306 240 323 c 5
 258 342 l 5
 236 351 233 355 230 380 c 5
 257 388 258 402 258 426 c 6
 258 436 l 5
 239 449 237 452 230 474 c 5
 244 483 241 484 258 484 c 5x4c58
 255 495 254 504 254 512 c 4x4c98
 254 520 255 530 258 541 c 5
 243 546 245 544 240 559 c 5
 202 559 l 5
 191 565 191 563 182 578 c 5
 175 560 170 548 170 532 c 4
 170 526 170 519 172 512 c 5
 162 503 160 494 160 483 c 4
 160 472 164 460 164 446 c 5
 154 446 l 5
 154 399 l 5
 148 388 149 389 134 380 c 5
 149 375 149 376 154 361 c 5
 98 332 l 5
 60 332 l 5
 40 351 l 5
 50 399 l 5
 40 399 l 5
 40 436 l 5
 31 450 30 448 30 465 c 5
 45 487 53 506 60 531 c 5
 55 546 55 545 40 550 c 5
 47 572 49 575 68 588 c 5
 68 626 l 5
 106 664 l 5
 120 668 118 666 116 682 c 5
 134 682 138 682 154 691 c 5x4e58
EndSplineSet
Validated: 9
EndChar

StartChar: U
Encoding: 85 85 42
Width: 620
VWidth: 1382
Flags: W
HStem: -15 100<300 337.769> 585 5<576 582.865> 651 31<364.868 383.635> 674 20G<96 108>
VStem: 96 103<120.331 162.997 174.667 241.576 284 297> 96 87<152.234 162.997 174.667 241.576 361.607 385.625 407.019 446.696 448.518 470.807 511.4 530.577> 250 42<649 658.998> 378 124<115.511 174.225> 410 92<197.187 206 221 264.391 265.609 309.571>
LayerCount: 2
Fore
SplineSet
414 568 m 1xc280
 410 568 408 569 406 572 c 1
 394 566 380 563 366 563 c 2
 358 563 l 1
 358 593 l 1
 352 594 344 598 342 599 c 2
 326 606 l 1
 280 598 l 1
 242 594 210 585 184 569 c 1
 188 539 l 1
 184 532 183 528 183 525 c 2
 188 491 l 1
 186 491 l 2
 180 491 178 486 178 479 c 0
 178 473 183 459 188 448 c 1
 184 420 183 403 183 392 c 0
 183 384 186 374 194 361 c 1
 187 349 179 338 183 336 c 0
 210 324 185 333 186 333 c 2
 188 333 l 1
 187 327 201 298 201 271 c 0
 201 264 200 258 198 252 c 1
 204 250 183 245 183 239 c 2
 183 209 l 2xc680
 183 197 199 185 196 167 c 1
 199 162 199 157 199 152 c 0
 199 138 191 127 192 120 c 1
 218 120 l 1
 231 93 248 79 248 79 c 1
 244 109 l 1
 255 116 295 120 302 120 c 1
 280 89 l 1
 281 86 283 85 285 85 c 0
 294 85 315 103 324 103 c 1
 370 116 378 114 378 120 c 0xcb
 378 124 374 131 374 147 c 0
 374 151 412 181 414 197 c 1
 405 201 404 204 404 206 c 1
 406 207 l 1
 386 219 l 1
 410 221 l 1
 410 225 l 2
 410 239 411 252 414 265 c 1
 411 278 410 291 410 305 c 2
 410 306 l 1
 424 356 l 1
 422 361 416 383 412 385 c 1
 410 385 l 1
 420 433 l 1
 417 456 414 475 414 489 c 2
 414 568 l 1xc280
372 651 m 1xe2
 367 650 364 648 364 644 c 2
 364 637 l 1
 384 637 l 1
 384 644 l 2
 384 650 381 651 376 651 c 2
 372 651 l 1xe2
250 651 m 2
 250 656 248 659 244 659 c 1
 240 651 l 1
 240 649 l 1
 250 649 l 1
 250 651 l 2
58 682 m 1
 89 682 96 687 96 690 c 2
 96 694 l 1xd6
 108 687 l 1
 150 687 l 1
 186 677 l 1
 216 680 234 682 242 682 c 1
 266 675 291 660 292 626 c 1
 302 638 l 5
 339 676 366 682 382 682 c 1
 417 679 444 674 464 667 c 1
 482 670 498 672 510 672 c 2
 536 672 l 2
 560 672 534 670 568 641 c 1
 572 641 l 1
 583 645 584 647 584 649 c 2
 584 654 l 1
 616 627 l 1
 582 610 568 600 568 593 c 2
 568 592 l 1
 582 590 l 2
 583 590 583 589 583 588 c 0
 583 587 581 585 580 585 c 2
 576 585 l 1
 540 570 l 1
 526 579 l 1
 508 532 l 1
 508 527 l 1
 509 522 510 519 514 519 c 2
 518 519 l 1
 506 492 499 473 498 467 c 1
 512 436 l 1
 507 416 502 395 502 385 c 1
 518 359 l 1
 511 350 502 337 502 323 c 2
 502 267 l 2xe680
 502 238 501 208 498 176 c 1
 501 164 502 147 502 125 c 1
 463 21 428 7 408 6 c 1
 397 -12 387 -25 376 -25 c 1
 356 -15 l 1
 347 -18 342 -21 342 -23 c 2
 342 -27 l 1
 326 -18 316 -15 300 -15 c 1
 278 -30 l 1
 262 -30 l 1
 165 8 107 54 90 110 c 1
 96 136 l 1
 96 141 l 2
 96 159 92 163 88 163 c 2
 84 163 l 1
 90 191 l 1
 90 207 l 2
 90 221 81 233 74 242 c 1
 96 284 l 1
 96 297 l 1xeb
 80 318 l 1
 80 324 l 1
 90 340 l 1
 90 369 l 1
 80 407 l 1
 82 407 l 2
 89 407 95 433 96 454 c 1
 88 456 82 467 80 471 c 1
 96 492 l 1
 96 497 l 2xe6
 96 511 87 522 80 531 c 1
 80 532 l 2
 80 542 84 552 90 563 c 1
 88 570 81 578 68 585 c 1
 48 571 l 1
 42 571 l 1
 24 580 4 598 4 639 c 1
 5 659 16 674 32 687 c 1
 58 682 l 1
EndSplineSet
Validated: 37
EndChar

StartChar: V
Encoding: 86 86 43
Width: 620
VWidth: 1377
Flags: W
HStem: 425 25<309.048 348.994> 526 21G<267.5 283.556> 594 102<10.8034 111.364> 670 26<354 365> 685 20G<152 208 208 236 382 427.5 495 522.5>
VStem: 119 133<499.049 542.204> 216 159<39.0023 128> 273 36<417 425> 395 5<124 130.745>
LayerCount: 2
Fore
SplineSet
254 539 m 1xc180
 258 557 273 562 288 562 c 2
 292 562 l 1
 273 526 l 1
 262 530 254 533 254 539 c 1xc180
316 425 m 0
 313 425 310 425 309 423 c 1
 309 404 l 1
 338 389 l 2
 340 388 344 393 349 403 c 1
 349 412 l 2
 349 418 347 420 342 420 c 0
 337 420 326 425 316 425 c 0
362 576 m 0
 358 576 339 583 328 586 c 1
 326 581 321 575 306 566 c 1
 285 576 l 1
 239 571 l 1
 231 576 222 581 210 581 c 1
 206 573 l 1
 207 570 215 558 252 519 c 1
 252 506 l 1xc580
 243 505 232 503 232 492 c 2
 232 460 l 1
 243 459 257 454 257 427 c 2
 257 425 l 1
 244 421 242 417 242 417 c 1
 254 393 270 355 278 287 c 1
 289 278 299 273 309 273 c 1
 312 278 314 282 314 285 c 1
 308 296 l 1
 323 319 329 333 329 341 c 2
 329 349 l 1
 309 354 l 1
 294 397 l 1
 273 417 l 1
 273 444 l 2
 273 450 284 450 300 450 c 2
 305 450 l 2
 320 450 340 450 360 454 c 1
 360 462 l 1
 349 477 l 1
 349 478 l 2
 349 485 369 503 380 514 c 1
 380 544 l 2
 380 546 380 546 378 546 c 2
 373 546 l 1
 390 574 l 1
 389 579 382 583 377 586 c 1
 370 586 l 1
 369 577 365 576 362 576 c 0
357 670 m 2xd080
 354 670 l 1
 354 660 l 1
 365 660 l 1
 365 662 l 2
 365 666 363 670 357 670 c 2xd080
45 700 m 1
 51 700 l 1
 85 697 112 696 132 696 c 2
 152 696 l 1xd480
 188 705 l 1
 208 695 l 1
 234 705 l 1
 238 705 263 694 281 685 c 1xcc80
 307 690 l 1
 313 678 l 1
 313 666 l 1
 289 638 l 1
 294 635 299 634 301 634 c 0
 313 634 323 663 330 690 c 1
 331 690 l 2
 344 690 349 694 349 698 c 2
 349 701 l 1
 378 696 l 1
 382 696 l 1
 402 710 l 1
 419 710 l 1
 436 699 446 696 454 696 c 1xd480
 464 700 l 1
 495 695 l 1
 510 705 l 1
 522 705 l 1
 523 704 570 700 571 700 c 2
 572 700 l 1
 596 683 617 663 617 638 c 0
 617 610 588 586 561 569 c 1
 508 578 l 1
 473 451 l 1
 478 441 l 1
 466 420 452 378 436 318 c 1
 434 318 l 1
 431 317 424 306 421 299 c 1
 421 249 l 1
 414 241 407 230 406 217 c 1
 420 216 421 209 421 204 c 2
 421 197 l 1
 419 197 l 2
 400 197 395 176 395 154 c 2
 395 146 l 1
 400 146 l 1
 400 124 l 1
 398 122 l 1
 395 124 l 1
 395 128 394 132 388 132 c 2
 383 132 l 1
 378 131 375 128 375 124 c 2
 375 78 l 1
 355 27 327 0 290 0 c 1
 248 13 216 48 216 128 c 1xca80
 201 148 l 1
 206 174 l 1
 192 196 182 238 176 308 c 0
 176 309 170 307 160 345 c 1
 162 348 165 355 165 365 c 1
 150 387 138 445 130 499 c 1
 122 500 119 504 119 511 c 1
 123 528 124 543 124 551 c 1
 110 576 99 592 96 594 c 1
 61 594 l 2xe480
 27 594 7 608 3 637 c 1
 3 642 l 2
 3 677 22 693 45 700 c 1
362 576 m 1
 362 576 l 1
EndSplineSet
Validated: 1
EndChar

StartChar: W
Encoding: 87 87 44
Width: 620
VWidth: -233
Flags: W
HStem: 610 46<210.327 240> 656 20G<22.8571 98 248 283.5 318.5 331> 666 20G<98 134 134 182 461.5 514> 675 20G<541 559.66>
VStem: 70 98<496.945 559.569> 324 180<122.993 167.5 241 259.627 269.562 297.675 317.604 344.309> 352 132<72.0174 137.657>
LayerCount: 2
Fore
SplineSet
286 468 m 5x88
 296 459 l 5
 286 468 l 5x88
306 468 m 5
 306 449 l 5
 321 454 319 453 324 468 c 5x8c
 306 468 l 5
400 468 m 5
 409 452 409 453 428 449 c 5
 428 467 430 462 418 468 c 5
 400 468 l 5
412 424 m 4
 411 423 412 414 416 418 c 4
 417 419 416 428 412 424 c 4
400 355 m 5
 410 345 l 5
 400 355 l 5
210 582 m 5
 220 572 l 5
 210 582 l 5
172 600 m 5
 182 572 l 5
 172 563 l 5
 144 572 l 5
 152 553 151 555 172 553 c 5
 171 537 168 524 168 511 c 4
 168 503 168 496 172 487 c 5
 163 478 164 476 164 465 c 4
 164 463 164 461 164 459 c 6
 192 402 l 5
 209 411 211 413 220 430 c 5
 202 421 l 5
 202 430 l 5
 213 441 216 450 216 457 c 4
 216 469 204 478 192 496 c 5
 258 496 l 5
 258 506 l 5
 296 506 l 5
 296 515 l 5
 240 515 l 5
 244 534 246 538 258 553 c 5
 245 572 240 585 240 610 c 5
 192 610 l 5
 172 600 l 5
380 610 m 5
 390 572 l 5
 362 563 l 5
 367 548 365 549 380 544 c 5
 380 506 l 5
 438 496 l 5
 438 563 l 5
 400 572 l 5
 400 582 l 5
 416 587 426 590 438 600 c 5
 418 608 402 610 380 610 c 5
514 676 m 5x8c
 527 692 530 693 552 695 c 5
 570 648 l 5
 588 647 592 646 608 638 c 5
 608 600 l 5
 589 587 583 584 560 582 c 5
 551 559 544 540 542 515 c 5
 532 515 l 5
 532 449 l 5
 541 439 541 437 542 421 c 5
 523 395 522 377 522 345 c 5
 512 330 515 332 504 326 c 5
 504 320 504 314 504 308 c 4
 504 293 502 281 494 269 c 5
 494 260 l 5
 500 252 502 247 502 241 c 4
 502 235 500 230 494 222 c 5
 504 184 l 5x9c
 485 158 484 141 484 109 c 5x9a
 500 96 502 93 504 71 c 5x9c
 489 66 489 67 484 52 c 5
 476 42 l 5
 466 42 l 5
 456 14 l 5
 454 14 452 14 450 14 c 4
 439 14 436 14 428 23 c 5
 410 23 l 5
 397 14 391 14 372 14 c 5
 372 61 l 5
 352 71 l 5
 352 118 l 5x9a
 330 132 327 139 324 165 c 5x9c
 352 175 l 5x9a
 344 193 344 202 344 222 c 5
 324 241 l 5
 324 258 325 255 334 269 c 5
 329 276 326 280 326 284 c 4
 326 288 329 291 334 298 c 5
 334 317 l 5
 325 330 324 336 324 355 c 5
 314 373 l 5
 306 373 l 5
 305 354 305 349 296 336 c 5
 296 317 l 5
 305 307 305 304 306 288 c 5
 290 279 286 279 268 279 c 5
 283 258 285 248 286 222 c 5
 302 209 304 206 306 184 c 5
 268 184 l 5
 276 137 l 5
 267 123 263 115 258 99 c 5
 274 107 277 108 296 109 c 5
 306 99 l 5
 305 80 304 77 296 61 c 5
 281 66 281 65 276 80 c 5
 258 80 l 5
 253 65 255 66 240 61 c 5
 240 52 l 5
 256 42 254 41 258 23 c 5
 210 23 l 5
 202 5 l 5
 172 5 l 5
 154 23 l 5
 154 40 155 38 164 52 c 5
 151 56 145 60 134 71 c 5
 134 93 134 108 126 128 c 5
 134 175 l 5
 123 184 118 189 118 196 c 4
 118 200 121 206 126 213 c 5
 126 232 l 5
 116 241 113 248 106 260 c 5
 106 364 l 5
 88 383 l 5
 89 388 88 392 88 395 c 4
 88 403 86 408 78 421 c 5
 83 437 89 445 98 459 c 5
 86 469 80 474 80 482 c 4
 80 488 84 495 88 506 c 5
 75 516 70 526 70 537 c 4
 70 547 74 558 78 572 c 5
 30 572 l 5
 30 597 28 599 12 619 c 5
 12 648 l 5
 50 676 l 5x8c
 98 667 l 5
 116 686 l 5
 134 686 l 5
 134 667 l 5
 182 686 l 5xac
 182 648 l 5
 210 638 l 5
 217 645 216 638 210 657 c 5
 217 656 222 656 228 656 c 4
 234 656 240 656 248 657 c 5
 248 667 l 5
 268 676 l 5x8c
 276 676 l 5x8c
 291 666 290 668 296 657 c 5
 309 661 313 665 324 676 c 5x8c
 338 667 346 664 358 664 c 4
 364 664 371 666 380 667 c 5
 389 653 390 655 390 638 c 5
 456 657 l 5
 456 674 457 672 466 686 c 5xac
 514 676 l 5x8c
EndSplineSet
Validated: 9
EndChar

StartChar: X
Encoding: 88 88 45
Width: 620
VWidth: 1380
Flags: W
HStem: -9 21G<23.2174 60 556 571> 594 87<35.9668 130.766 553.8 584.171> 666 20G<215 236> 693 20G<419.5 434.5>
VStem: 161 104<151 205.5> 354 94<490.929 530.078>
LayerCount: 2
Fore
SplineSet
360 546 m 5x9c
 357 553 354 560 352 560 c 6
 348 560 l 5
 353 570 354 574 354 577 c 4
 351 596 346 606 341 606 c 6
 333 606 l 5
 322 580 l 5
 315 580 l 5
 290 595 l 5
 283 583 273 576 260 575 c 5
 260 543 l 5
 281 538 l 5
 276 521 271 499 271 495 c 4
 271 490 285 478 294 472 c 5
 304 480 331 491 349 497 c 5
 349 508 353 524 360 546 c 5x9c
270 140 m 5
 278 137 283 133 283 131 c 0
 283 127 267 127 258 122 c 5
 246 126 l 5
 239 126 l 5
 239 102 l 5
 224 82 l 5
 249 55 284 45 289 44 c 5
 299 34 l 5
 269 44 l 5
 301 26 l 5
 286 13 l 5
 249 1 229 -10 216 -19 c 5
 209 -19 l 5
 189 -4 l 5
 180 -4 l 5
 164 -14 l 5
 147 -12 126 -9 122 -9 c 6
 89 -14 l 5
 88 -9 85 1 60 1 c 5
 38 -9 l 5
 21 14 l 5
 26 50 l 5
 23 57 21 62 21 66 c 6
 21 68 l 5
 28 68 l 6
 38 68 36 88 47 82 c 5
 61 87 64 89 67 90 c 6
 83 98 l 5
 75 100 l 5
 85 106 l 5
 91 148 114 151 138 151 c 2
 161 151 l 5
 162 178 185 225 224 284 c 5
 233 302 239 329 244 365 c 5
 234 391 221 403 205 403 c 6
 203 403 l 5
 203 422 l 5
 213 437 l 5
 213 441 l 5
 139 512 176 526 147 526 c 6
 145 526 l 5
 145 554 l 5
 134 574 112 594 65 594 c 6
 64 594 l 5
 47 606 26 620 26 627 c 6
 26 632 l 6
 26 662 53 675 80 681 c 5
 100 677 113 676 121 676 c 4
 135 676 140 680 140 684 c 6
 140 688 l 5
 153 681 l 5
 168 681 l 6xdc
 180 681 195 677 207 677 c 0
 210 677 212 677 215 678 c 5
 210 686 l 5xbc
 262 664 290 644 305 636 c 5
 367 664 l 5
 361 681 l 5xdc
 372 686 409 713 430 713 c 0
 439 713 445 708 446 696 c 6
 447 686 l 5xbc
 551 676 l 5
 571 676 586 662 599 638 c 5
 599 622 l 6
 599 615 583 603 561 588 c 5
 525 599 l 5
 465 537 448 498 448 473 c 6
 448 471 l 5
 446 471 l 6
 435 471 416 447 387 383 c 5
 389 383 l 5
 392 382 402 380 402 370 c 6
 402 364 l 5
 385 353 371 342 370 335 c 5
 387 315 397 291 401 264 c 5
 412 257 429 203 443 156 c 5
 449 152 477 126 510 94 c 5
 517 91 521 90 524 90 c 6
 527 90 l 5
 522 64 l 5
 524 64 l 5
 541 75 547 80 548 82 c 5
 548 85 l 5
 568 78 584 67 584 40 c 6
 584 10 l 6
 584 3 576 -4 566 -9 c 5
 546 -5 533 -4 525 -4 c 5
 514 -11 503 -14 493 -14 c 6
 487 -14 l 5
 478 -7 472 -4 468 -4 c 5
 446 -14 l 5
 433 -6 424 -4 415 -4 c 6
 411 -4 l 5
 395 -14 l 5
 378 -14 l 5
 363 -4 341 13 339 32 c 5
 314 27 l 5
 308 37 307 42 307 46 c 5
 313 66 329 82 354 98 c 5
 354 102 l 5
 349 130 l 5
 352 130 l 6
 357 130 362 139 365 144 c 5
 365 150 366 156 366 161 c 0
 366 171 361 179 335 182 c 5
 335 184 l 6
 335 188 334 192 329 202 c 5
 333 203 l 5
 328 229 l 5
 331 229 l 6
 336 229 339 230 339 236 c 6
 339 244 l 5
 331 244 l 6
 318 244 297 229 265 169 c 5
 265 167 l 5
 271 166 272 160 271 150 c 6
 270 140 l 5
EndSplineSet
Validated: 1
EndChar

StartChar: Y
Encoding: 89 89 46
Width: 620
VWidth: 1380
Flags: W
HStem: 22 56<423 451.009> 516 21G<308 314.5> 602 98<39.0071 73.5 509.104 580.058> 617 34<323.188 342.918> 617 20<311.991 329.075> 690 20G<449.5 455 505.5 510>
VStem: 234 131<246.563 275.996 276.794 353.618> 308 20<522.712 536>
LayerCount: 2
Fore
SplineSet
161 73 m 2xe1
 161 93 162 115 233 122 c 1
 239 114 l 1
 239 125 l 1
 229 139 224 152 224 165 c 1
 231 165 234 168 234 175 c 2
 234 186 l 2
 234 202 229 212 219 220 c 1
 226 232 229 246 229 261 c 1
 226 271 222 276 219 276 c 1
 229 293 234 306 234 316 c 1
 220 327 212 349 209 382 c 1
 204 386 194 388 179 388 c 1
 179 392 l 1
 186 405 189 430 192 430 c 1
 190 447 179 456 157 456 c 1
 157 552 l 1
 152 552 l 2
 148 552 129 549 96 542 c 1
 96 549 94 552 91 552 c 1
 100 558 102 565 102 572 c 0
 102 575 101 579 101 582 c 2
 101 592 l 2
 101 596 94 602 81 612 c 1
 56 607 l 1
 51 607 l 2
 47 607 39 621 26 648 c 1
 26 658 l 2
 26 680 52 695 106 703 c 1
 266 702 l 2
 281 702 296 657 318 637 c 1
 323 637 l 1xca
 327 647 332 651 341 651 c 0
 353 651 335 698 366 698 c 1
 445 708 l 2
 447 708 448 710 451 710 c 0xd6
 459 710 472 705 488 705 c 0
 495 705 502 706 509 708 c 1
 511 701 527 700 543 700 c 0
 562 700 581 702 584 702 c 5
 599 696 604 688 604 680 c 0
 604 668 594 655 594 645 c 0
 594 634 581 621 546 602 c 1
 510 602 l 1
 449 515 416 426 406 372 c 1
 379 353 365 324 365 286 c 0xe2
 365 271 360 258 350 246 c 1
 359 217 366 202 370 200 c 1
 355 170 l 1
 357 164 358 159 358 154 c 0
 358 145 356 138 356 132 c 0
 356 123 359 116 377 104 c 1
 407 98 423 89 423 78 c 1
 458 78 l 1
 465 77 468 74 468 68 c 1
 453 38 431 22 403 22 c 2
 398 22 l 1
 367 38 l 2
 366 38 366 38 366 37 c 0
 366 36 367 34 367 32 c 0
 367 28 363 22 339 16 c 1
 333 16 323 19 308 26 c 1
 283 22 l 1
 258 26 l 1
 233 12 l 1
 164 25 161 42 161 68 c 2
 161 73 l 2xe1
303 597 m 1
 308 587 l 1
 308 580 305 576 298 576 c 2
 283 576 l 1
 258 582 l 1
 258 566 l 1
 271 566 279 550 283 516 c 1
 280 503 278 491 278 481 c 1
 293 470 l 1
 298 470 l 2
 326 470 343 501 349 562 c 1
 339 565 333 575 333 592 c 1
 340 592 343 595 343 602 c 2xe1
 343 617 l 1
 323 617 l 2
 320 617 313 610 303 597 c 1
318 536 m 2
 328 536 l 1
 328 532 l 2
 328 527 321 521 308 516 c 1
 308 526 l 1
 309 533 312 536 318 536 c 2
EndSplineSet
Validated: 1
EndChar

StartChar: Z
Encoding: 90 90 47
Width: 620
VWidth: -196
Flags: W
HStem: 22 90<310 345.538> 27 113<206.93 216 216.883 262 325.258 403.121> 301 19<338 357> 500 21G<445 447> 594 95<217.216 282 328 356.355> 604 85<282 292 292.88 328> 678 20G<208.5 229 401 407 424 471.5>
VStem: 92 90<434.603 504.056> 338 19<301 320> 424 123<225 282>
LayerCount: 2
Fore
SplineSet
216 698 m 1x33c0
 242 690 264 689 292 689 c 1x35c0
 292 698 l 1x33c0
 311 697 315 698 328 689 c 1x39c0
 345 689 343 689 357 698 c 1x33c0
 374 698 372 698 386 689 c 1
 394 695 398 697 404 697 c 0
 410 697 416 695 424 689 c 1x35c0
 462 698 l 1x33c0
 481 689 496 689 518 689 c 1x35c0
 520 679 522 668 522 658 c 0
 522 637 518 615 518 594 c 1
 507 583 504 579 500 566 c 1
 470 566 l 1
 462 509 l 1
 453 503 448 500 446 500 c 0
 444 500 441 503 432 509 c 1
 432 462 l 1
 419 443 410 427 404 405 c 1
 357 386 l 1
 352 362 347 353 328 339 c 1
 328 301 l 1
 319 287 315 279 310 263 c 1
 296 254 299 254 282 254 c 1
 300 216 l 1
 281 206 265 201 244 197 c 1
 253 183 254 186 254 169 c 1
 244 159 l 1
 216 159 l 1
 206 131 l 1
 225 137 241 139 262 140 c 1x79c0
 262 131 l 1
 300 131 l 1
 310 112 l 1
 320 112 l 1xb1c0
 332 127 338 130 357 140 c 1
 366 140 l 1
 382 131 385 131 404 131 c 1
 409 146 409 145 424 150 c 1
 415 164 414 161 414 178 c 1
 425 189 429 193 442 197 c 1
 424 225 l 1
 424 282 l 1
 440 278 438 279 442 263 c 1
 452 263 l 1
 456 297 479 302 506 302 c 0
 516 302 528 301 538 301 c 1
 547 292 l 1
 547 264 548 242 556 216 c 1
 551 201 553 202 538 197 c 1
 544 188 547 185 547 183 c 0
 547 181 544 178 538 169 c 1
 546 157 547 143 547 128 c 2
 547 102 l 1
 533 93 524 89 508 84 c 1
 520 63 527 52 528 27 c 1
 490 27 l 1x71c0
 490 17 l 1
 453 17 409 22 366 22 c 0xb1c0
 332 22 299 19 272 8 c 1
 262 8 l 1
 243 16 235 16 216 17 c 1
 216 27 l 1
 191 27 173 26 150 17 c 1
 140 17 l 1
 126 26 129 27 112 27 c 1
 98 36 99 36 82 36 c 1
 64 55 l 1
 68 74 69 80 82 93 c 1
 82 131 l 1
 92 140 l 1
 112 150 l 1
 120 159 l 1
 120 188 l 1
 130 197 l 1
 150 207 l 1
 158 216 l 1
 158 235 l 1
 178 244 l 1
 178 273 l 1
 189 284 193 288 206 292 c 1
 216 339 l 1
 230 348 227 348 244 348 c 1
 254 396 l 1
 265 407 269 411 282 415 c 1
 282 434 l 1
 292 443 l 1
 320 452 l 1
 322 474 322 477 338 490 c 1
 328 519 l 1
 345 532 357 539 376 547 c 1
 378 571 384 584 396 604 c 1x75c0
 373 597 352 594 328 594 c 1x39c0
 328 604 l 1
 282 604 l 1x35c0
 282 594 l 1
 224 594 l 1x39c0
 210 585 213 585 196 585 c 1
 205 571 206 574 206 557 c 1
 178 547 l 1
 188 509 l 1
 185 499 182 493 182 487 c 0
 182 480 185 474 188 462 c 1
 177 451 172 447 168 434 c 1
 147 433 131 430 112 424 c 1
 102 440 92 457 92 473 c 0
 92 482 95 491 102 500 c 1
 92 557 l 1
 92 566 l 1
 101 589 102 607 102 632 c 1
 113 643 116 648 120 661 c 1
 136 669 144 676 158 689 c 1x35c0
 196 680 l 1
 202 691 201 688 216 698 c 1x33c0
338 320 m 1
 357 320 l 1
 357 301 l 1
 338 301 l 1
 338 320 l 1
EndSplineSet
Validated: 1
EndChar

StartChar: backslash
Encoding: 92 92 49
Width: 620
VWidth: -218
Flags: W
VStem: 426 136<-124 -68.7947>
LayerCount: 2
Fore
SplineSet
152 746 m 5
 104 736 l 5
 86 727 l 5
 86 718 l 5
 69 718 72 717 58 708 c 5
 58 670 l 5
 68 655 65 657 76 651 c 5
 76 632 l 5
 86 632 l 5
 90 613 88 613 104 604 c 5
 106 582 108 579 124 566 c 5
 114 528 l 5
 128 519 125 519 142 519 c 5
 147 495 151 486 170 472 c 5
 172 450 174 447 190 434 c 5
 190 386 l 5
 206 377 210 377 228 377 c 5
 228 368 l 5
 209 360 210 360 208 339 c 5
 238 339 l 5
 246 330 l 5
 247 314 247 310 256 301 c 5
 256 254 l 5
 271 242 275 239 294 235 c 5
 284 188 l 5
 296 173 300 169 304 150 c 5
 342 122 l 5
 332 93 l 5
 346 84 343 84 360 84 c 5
 360 46 l 5
 388 36 l 5
 388 -11 l 5
 398 -11 l 5
 398 -58 l 5
 409 -69 413 -73 426 -77 c 5
 426 -124 l 5
 454 -162 l 5
 492 -162 l 5
 502 -143 l 5
 558 -143 l 5
 561 -132 562 -123 562 -114 c 4
 562 -99 559 -85 558 -68 c 5
 551 -61 552 -68 558 -49 c 5
 550 -30 l 5
 530 -20 l 5
 520 27 l 5
 512 27 l 5
 502 74 l 5
 488 83 491 84 474 84 c 5
 471 110 465 125 446 141 c 5
 446 169 l 5
 437 184 437 182 426 188 c 5
 426 207 l 5
 416 207 l 5
 412 225 414 225 398 235 c 5
 398 273 l 5
 384 282 387 282 370 282 c 5
 368 304 365 315 350 330 c 5
 350 368 l 5
 338 383 336 386 332 405 c 5
 304 415 l 5
 304 462 l 5
 293 473 287 477 274 481 c 5
 284 500 l 5
 270 513 262 519 246 528 c 5
 246 535 l 6
 246 546 247 548 238 557 c 5
 238 604 l 5
 224 617 216 623 200 632 c 5
 209 646 208 644 208 661 c 5
 180 689 l 5
 180 727 l 5
 167 731 163 735 152 746 c 5
EndSplineSet
Validated: 9
EndChar

StartChar: asciicircum
Encoding: 94 94 51
Width: 620
VWidth: 1650
Flags: W
HStem: 514 53<173.478 191 548 565.783> 526 25G<261 272 466 477> 538 90<233.03 251 487 507.915> 584 140<313.841 364.719 383.953 425.158>
LayerCount: 2
Fore
SplineSet
569 536 m 1x90
 565 530 547 514 532 514 c 0x90
 521 514 513 522 507 542 c 1
 505 542 l 2
 493 542 483 530 471 530 c 0
 461 530 449 539 431 569 c 1
 424 558 416 578 408 578 c 0
 393 578 384 607 380 614 c 1
 379 613 l 1
 378 614 377 614 376 616 c 1
 374 612 370 611 368 609 c 1
 367 610 l 1
 363 603 355 584 340 584 c 0
 333 584 320 563 312 563 c 0
 310 563 309 563 308 565 c 1
 290 535 277 526 267 526 c 0x50
 255 526 246 538 234 538 c 2
 232 538 l 1
 226 518 217 510 206 510 c 0
 191 510 173 526 169 532 c 1
 175 547 175 562 189 562 c 0
 190 562 190 563 191 563 c 2
 216 582 l 1
 238 613 247 628 250 628 c 0x20
 251 628 251 628 251 626 c 1
 262 630 263 633 263 635 c 2
 263 636 l 2
 263 637 263 639 265 641 c 1
 276 681 268 666 285 682 c 1
 286 681 287 680 288 680 c 0
 290 680 308 676 310 678 c 1
 313 706 l 1
 331 719 345 724 356 724 c 0
 359 724 362 724 365 723 c 1
 369 726 375 728 382 728 c 0
 393 728 408 723 426 710 c 1
 444 687 l 2
 446 685 448 684 450 684 c 0
 451 684 438 670 438 670 c 5
 444 665 446 664 448 664 c 2
 450 664 l 2
 452 664 452 662 458 640 c 1
 460 638 475 641 475 640 c 2
 475 639 l 2
 475 637 476 634 487 630 c 1
 487 632 487 632 488 632 c 0
 491 632 501 616 523 585 c 1
 548 566 l 2
 549 566 548 567 549 567 c 0
 563 567 563 551 569 536 c 1x90
EndSplineSet
Validated: 1
EndChar

StartChar: underscore
Encoding: 95 95 52
Width: 620
VWidth: -166
Flags: W
HStem: -184 168<459.45 565.818> -174 140<172.699 229.934 231 296.882> -27 20G<436 473.5>
LayerCount: 2
Fore
SplineSet
458 -7 m 5x20
 489 -15 516 -16 550 -16 c 5x80
 561 -30 568 -37 574 -53 c 5
 586 -34 l 5
 596 -34 l 5
 596 -44 l 6
 596 -72 608 -99 608 -128 c 5
 596 -128 l 5
 596 -174 l 5x40
 560 -183 525 -184 489 -184 c 6
 458 -184 l 5x80
 447 -193 447 -193 434 -193 c 6
 424 -193 l 5
 406 -184 409 -185 402 -174 c 5
 356 -174 l 5
 339 -186 321 -189 298 -193 c 5
 280 -184 283 -185 276 -174 c 5
 231 -174 l 5x40
 231 -184 l 5x80
 208 -184 201 -183 185 -174 c 5
 172 -174 l 5x40
 151 -184 l 5x80
 117 -174 l 5
 105 -187 99 -187 80 -193 c 5
 71 -174 l 5
 47 -174 l 5x40
 25 -155 l 5
 25 -134 27 -119 34 -99 c 5
 15 -90 18 -91 13 -72 c 5
 59 -53 l 5
 59 -35 60 -32 71 -16 c 5x80
 98 -18 101 -18 117 -34 c 5
 126 -34 l 5
 136 -24 145 -19 153 -19 c 4
 160 -19 166 -22 172 -34 c 5
 187 -31 196 -28 206 -28 c 4
 213 -28 223 -29 231 -34 c 5
 243 -34 l 5x40
 260 -22 274 -20 298 -16 c 5
 322 -44 l 5
 332 -16 l 5x80
 368 -34 l 5x40
 378 -16 l 5x80
 436 -25 l 5
 458 -7 l 5x20
EndSplineSet
Validated: 1
EndChar

StartChar: grave
Encoding: 96 96 53
Width: 622
VWidth: 1600
Flags: W
LayerCount: 2
Fore
SplineSet
211 789 m 5
 206 786 204 782 191 721 c 5
 205 703 l 5
 202 701 201 697 201 690 c 5
 205 685 214 680 228 675 c 5
 240 656 l 5
 239 644 l 6
 240 645 242 645 243 645 c 0
 251 645 261 635 274 615 c 5
 270 613 270 609 273 604 c 5
 296 591 293 572 299 566 c 5
 300 567 312 560 334 545 c 5
 346 555 l 5
 358 555 l 5
 366 559 l 5
 364 563 363 573 363 591 c 5
 351 607 l 5
 353 608 355 611 357 615 c 5
 346 627 l 6
 345 629 344 632 344 637 c 5
 338 641 l 5
 317 677 299 698 299 715 c 0
 299 719 300 722 302 726 c 5
 300 730 295 729 287 725 c 5
 282 741 l 5
 279 739 275 740 269 744 c 5
 277 764 l 5
 269 765 266 783 240 798 c 5
 225 786 l 5
 223 789 218 789 211 789 c 5
EndSplineSet
Validated: 41
EndChar

StartChar: a
Encoding: 97 97 54
Width: 620
VWidth: -189
Flags: W
HStem: 3 127<206.521 271.749> 414 113<328.838 376>
VStem: 178 10<156.519 177> 240 14<389.898 410.141> 292 19<348.267 366>
LayerCount: 2
Fore
SplineSet
224 215 m 5
 240 205 240 205 244 187 c 5
 225 195 226 194 224 215 c 5
311 234 m 5
 292 215 l 5
 262 225 l 5
 206 225 l 5
 191 213 187 210 168 206 c 5
 178 177 l 5
 168 182 163 184 158 184 c 4
 153 184 149 182 140 177 c 5
 150 149 l 5
 168 149 l 5
 177 163 178 160 178 177 c 5
 188 177 l 5
 188 139 l 5
 196 130 l 5
 272 130 l 5
 272 168 l 5
 285 164 289 160 300 149 c 5
 326 157 348 166 376 168 c 5
 386 225 l 5
 376 234 l 5
 358 234 l 5
 348 231 342 229 336 229 c 4
 329 229 323 231 311 234 c 5
244 414 m 5
 253 404 253 401 254 385 c 5
 244 392 240 394 240 399 c 4
 240 402 242 406 244 414 c 5
348 404 m 5
 358 395 l 5
 348 404 l 5
292 366 m 5
 311 366 l 5
 311 348 l 5
 334 350 339 353 358 366 c 5
 364 350 363 347 376 338 c 5
 384 354 385 357 386 376 c 5
 377 392 376 395 376 414 c 5
 356 414 346 415 328 423 c 5
 292 414 l 5
 279 423 273 422 254 423 c 5
 224 414 l 5
 216 348 l 5
 233 348 230 348 244 357 c 5
 253 341 253 342 272 338 c 5
 286 350 288 349 292 366 c 5
254 537 m 5
 284 528 312 527 342 527 c 4
 350 527 358 527 366 527 c 5
 380 518 388 513 404 508 c 5
 417 494 423 487 432 471 c 5
 456 466 464 460 480 442 c 5
 480 376 l 5
 491 370 490 372 500 357 c 5
 500 291 l 5
 491 277 490 279 490 262 c 5
 503 252 502 250 508 234 c 5
 494 225 497 225 480 225 c 5
 489 206 503 193 518 177 c 5
 518 194 519 192 528 206 c 5
 544 201 552 196 566 187 c 5
 572 166 583 149 594 130 c 5
 566 121 l 5
 566 73 l 5
 561 58 561 59 546 54 c 5
 556 16 l 5
 546 7 l 5
 529 7 532 7 518 16 c 5
 509 7 507 7 496 7 c 6
 490 7 l 5
 480 10 474 12 468 12 c 4
 461 12 454 10 442 7 c 5
 427 21 422 26 414 45 c 5
 402 31 403 30 386 26 c 5
 381 40 376 46 370 46 c 4
 360 46 349 31 338 16 c 5
 300 35 l 5
 297 12 275 3 252 3 c 4
 235 3 217 8 206 16 c 5
 178 7 l 5
 169 21 168 18 168 35 c 5
 151 35 154 35 140 26 c 5
 130 26 l 5
 116 35 119 35 102 35 c 5
 74 54 l 5
 46 111 l 5
 45 129 44 133 36 149 c 5
 46 177 l 5
 26 187 l 5
 31 211 35 220 54 234 c 5
 54 253 l 5
 74 272 l 5
 88 281 85 281 102 281 c 5
 74 329 l 5
 74 376 l 5
 65 384 64 387 64 398 c 6
 64 414 l 5
 82 423 l 5
 82 461 l 5
 102 461 l 5
 112 480 l 5
 127 485 125 484 130 499 c 5
 168 499 l 5
 172 512 177 516 188 527 c 5
 213 527 232 528 254 537 c 5
EndSplineSet
Validated: 5
EndChar

StartChar: b
Encoding: 98 98 55
Width: 620
VWidth: -222
Flags: W
HStem: 222 38<120 130> 270 28<303.008 320.119> 326 10<376 404> 402 104<297.228 337.356> 412 113<320.42 376> 563 123<112 188> 591 85<46 91.2587> 675 20G<97.7143 125>
VStem: 130 128<260 294.252 298.308 344.439> 152 96<497.655 570.874> 300 28<277.964 295.3> 362 14<274.705 294.195> 376 28<326 336> 414 132<184 240.218 355.741 388.959> 574 10<166 198.457>
LayerCount: 2
Fore
SplineSet
366 128 m 5xe03e
 376 118 l 5
 366 128 l 5xe03e
404 326 m 5
 376 326 l 5
 376 336 l 5
 404 336 l 5
 404 326 l 5
310 298 m 5
 326 288 324 288 328 270 c 5
 309 274 309 273 300 289 c 5
 310 298 l 5
366 298 m 5
 375 288 375 286 376 270 c 5
 366 277 362 278 362 283 c 4
 362 286 364 290 366 298 c 5
574 203 m 5
 583 190 584 185 584 166 c 5
 574 166 l 5
 574 203 l 5
578 140 m 4
 581 143 582 140 582 137 c 4
 582 128 577 139 578 140 c 4
338 412 m 5xe83e
 324 403 327 402 310 402 c 5
 297 383 294 378 292 355 c 5
 275 355 276 354 262 345 c 5
 258 333 256 323 256 316 c 4
 256 306 262 300 282 298 c 5
 273 282 258 266 258 255 c 4xf0be
 258 248 265 243 282 241 c 5
 277 226 277 227 262 222 c 5
 266 203 266 203 282 194 c 5
 282 156 l 5
 303 154 311 148 328 137 c 5
 342 164 346 184 376 194 c 5
 358 147 l 5
 372 138 369 137 386 137 c 5
 386 156 l 5
 414 147 l 5
 412 157 412 164 412 172 c 4
 412 179 412 185 414 194 c 5
 414 213 l 5
 405 227 404 224 404 241 c 5
 422 243 436 250 436 260 c 4
 436 265 432 272 424 279 c 5
 424 289 l 5
 439 294 437 292 442 307 c 5
 414 317 l 5
 424 355 l 5
 415 371 414 374 414 393 c 5
 376 412 l 5
 338 412 l 5xe83e
112 695 m 5xe17e
 138 690 162 686 188 686 c 5
 196 667 l 5
 216 667 l 5
 227 656 231 652 244 648 c 5
 243 628 242 619 234 601 c 5
 245 595 244 597 254 582 c 5
 251 564 248 550 248 535 c 4
 248 523 250 511 254 497 c 5
 277 506 295 506 320 506 c 5xf47e
 329 515 336 518 348 525 c 5
 386 525 l 5xe87e
 386 516 l 5
 414 516 l 5
 428 507 425 506 442 506 c 5
 455 492 461 484 470 468 c 5
 487 468 486 468 500 459 c 5
 518 430 l 5
 518 393 l 5
 533 384 535 378 546 364 c 5
 546 317 l 5
 556 317 l 5
 556 289 l 5
 565 279 565 276 566 260 c 5
 566 251 l 5
 546 241 l 5
 546 184 l 5
 556 184 l 5
 556 147 l 5
 545 136 541 132 528 128 c 5
 518 90 l 5
 508 80 l 5
 480 71 l 5
 470 62 l 5
 470 33 l 5
 452 14 l 5
 429 12 423 8 404 -5 c 5
 366 5 l 5
 354 -4 343 -5 328 -5 c 6
 320 -5 l 5
 320 14 l 5
 272 14 l 5
 272 24 l 5
 251 24 235 27 216 33 c 5
 207 22 196 17 186 17 c 4
 163 17 139 42 120 62 c 5
 126 78 127 80 140 90 c 5
 140 107 139 104 130 118 c 5
 130 128 l 5
 138 144 139 147 140 166 c 5
 130 166 l 5
 130 222 l 5
 120 222 l 5
 120 260 l 5
 130 260 l 5
 130 345 l 5xf0be
 137 357 140 365 150 374 c 5
 149 393 148 402 140 421 c 5
 140 430 l 5
 148 449 152 472 152 495 c 4
 152 522 147 548 140 572 c 5
 126 563 129 563 112 563 c 5xf47e
 102 591 l 5
 46 591 l 5
 36 601 l 5
 36 629 41 651 54 676 c 5xe27e
 72 675 76 675 92 667 c 5
 112 695 l 5xe17e
EndSplineSet
Validated: 9
EndChar

StartChar: c
Encoding: 99 99 56
Width: 620
VWidth: -192
Flags: W
HStem: 412 95<280 299.539 300.697 318>
VStem: 72 132<204.691 269.303>
LayerCount: 2
Fore
SplineSet
352 409 m 4
 348 405 359 405 360 406 c 4
 364 410 353 410 352 409 c 4
262 507 m 5
 280 507 l 5
 291 501 290 503 300 488 c 5
 315 506 321 506 346 507 c 5
 346 497 l 5
 384 497 l 5
 384 488 l 5
 412 488 l 5
 426 479 425 479 442 479 c 5
 478 441 l 5
 478 422 l 5
 491 418 497 414 508 403 c 5
 526 327 l 5
 508 308 l 5
 491 308 492 308 478 299 c 5
 432 299 l 5
 423 290 421 289 410 289 c 4
 408 289 406 289 404 289 c 5
 384 308 l 5
 384 325 383 323 374 337 c 5
 374 393 l 5
 318 393 l 5
 318 412 l 5
 280 412 l 5
 280 395 279 398 270 384 c 5
 234 384 l 5
 224 374 l 5
 224 337 l 5
 210 328 213 327 196 327 c 5
 186 270 l 5
 204 255 203 248 204 223 c 5
 219 218 219 219 224 204 c 5
 186 185 l 5
 214 170 227 157 242 129 c 5
 260 129 264 129 280 138 c 5
 290 138 l 5
 302 131 309 128 318 119 c 5
 338 119 l 5
 350 127 361 129 376 129 c 6
 394 129 l 5
 398 148 402 159 412 176 c 5
 422 185 l 5
 442 185 l 5
 446 198 449 203 460 214 c 5
 488 214 511 213 536 204 c 5
 534 192 532 182 532 171 c 4
 532 160 534 150 536 138 c 5
 522 119 519 117 498 110 c 5
 495 79 482 65 460 43 c 5
 404 34 l 5
 393 15 384 9 366 -4 c 5
 349 -4 352 -3 338 6 c 5
 328 -13 l 5
 308 -13 l 5
 284 4 262 6 234 15 c 5
 225 29 224 26 224 43 c 5
 176 53 l 5
 165 64 161 68 148 72 c 5
 128 119 l 5
 112 124 106 129 92 138 c 5
 97 154 101 162 110 176 c 5
 97 180 93 184 82 195 c 5
 81 214 80 223 72 242 c 5
 72 251 l 5
 81 274 82 293 82 318 c 5
 92 318 l 5
 92 356 l 5
 105 374 109 382 128 393 c 5
 130 417 136 430 148 450 c 5
 158 460 l 5
 176 460 l 5
 180 473 185 477 196 488 c 5
 242 488 l 5
 248 499 247 497 262 507 c 5
EndSplineSet
Validated: 1
EndChar

StartChar: d
Encoding: 100 100 57
Width: 620
VWidth: -239
Flags: W
HStem: 15 113<300.644 310 518 556> 289 19<329.27 358> 411 86<242.001 277.964> 496 20G<299 314.5> 601 67<234 292> 611 57<234 290.877> 666 20G<294 338>
VStem: 348 123<165.071 208.126 308.74 365> 414 37<5 15>
LayerCount: 2
Fore
SplineSet
272 157 m 5xc0
 282 147 l 5
 272 157 l 5xc0
216 412 m 5
 207 395 205 393 188 384 c 5
 187 365 186 362 178 346 c 5
 178 327 179 324 188 308 c 5
 172 303 164 298 150 289 c 5
 150 280 l 5
 164 271 161 270 178 270 c 5
 168 213 l 5
 188 204 l 5
 178 176 l 5
 196 147 l 5
 234 119 l 5
 272 119 l 5
 272 128 l 5
 310 128 l 5
 338 147 l 5
 347 162 352 171 352 182 c 4
 352 188 351 195 348 204 c 5
 363 209 361 208 366 223 c 5
 366 236 l 2
 366 255 365 270 358 289 c 5
 341 289 342 289 328 280 c 5
 327 287 328 293 328 299 c 4
 328 305 327 311 328 318 c 5
 342 309 341 308 358 308 c 5
 357 324 357 326 348 336 c 5
 348 374 l 5
 320 393 l 5
 301 392 298 392 282 384 c 5
 275 395 257 411 248 411 c 4xe1
 244 411 242 408 242 401 c 4
 242 399 243 396 244 393 c 5
 216 412 l 5
300 686 m 5xc280
 328 686 l 5
 348 678 369 677 390 677 c 4
 398 677 406 677 414 677 c 5
 451 649 l 5xc280
 455 630 459 626 471 611 c 5
 471 573 l 5xc5
 461 558 462 560 451 554 c 5
 451 535 453 532 462 516 c 5
 451 469 l 5xd480
 471 450 l 5xd5
 467 434 467 435 451 431 c 5xd480
 460 408 462 390 462 365 c 5
 471 365 l 5
 471 280 l 5xd5
 480 270 l 5
 480 251 l 5
 473 239 471 232 462 223 c 5
 462 213 l 5
 467 206 468 201 468 195 c 4
 468 187 465 178 462 166 c 5
 479 152 483 141 490 119 c 5
 556 128 l 5
 574 109 l 5
 567 85 566 64 566 40 c 2
 566 24 l 5
 556 15 l 5
 518 15 l 5
 518 5 l 5
 490 5 l 5
 474 13 469 14 451 15 c 5
 451 5 l 5
 414 5 l 5
 414 15 l 5
 376 15 l 5
 366 43 l 5
 350 34 342 28 328 15 c 5
 311 15 314 14 300 5 c 5
 262 5 l 5
 262 15 l 5
 243 14 240 13 224 5 c 5
 216 5 l 5
 202 14 205 15 188 15 c 5
 178 34 l 5
 158 34 l 5
 139 50 134 56 112 62 c 5
 74 128 l 5
 74 176 l 5
 54 185 l 5
 54 289 l 5
 46 289 l 5
 46 327 l 5
 55 341 59 349 64 365 c 5
 75 376 79 380 92 384 c 5
 102 431 l 5
 130 441 l 5
 130 459 l 5
 140 469 l 5
 156 474 164 479 178 488 c 5
 224 488 l 5
 224 497 l 5
 272 497 l 5xe080
 285 513 288 514 310 516 c 5xd080
 319 502 323 494 328 478 c 5
 347 477 357 477 376 469 c 5
 373 481 370 489 370 497 c 4xe080
 370 503 371 509 376 516 c 5
 376 526 l 5
 366 545 l 5
 376 573 l 5
 360 578 352 583 338 592 c 5
 325 576 322 575 300 573 c 5
 291 587 292 584 292 601 c 5xd880
 268 601 247 604 224 611 c 5xc480
 216 649 l 5
 234 668 l 5
 272 668 l 5xc880
 281 677 288 679 300 686 c 5xc280
EndSplineSet
Validated: 1
EndChar

StartChar: e
Encoding: 101 101 58
Width: 620
VWidth: -204
Flags: W
HStem: 231 104<305.785 336.355 346.645 373.783> 345 19<333.444 356> 354 10<327 346> 505 20G<223.5 236>
VStem: 327 29<354 363.727>
LayerCount: 2
Fore
SplineSet
327 364 m 5xb8
 346 364 l 5
 358 358 356 363 356 345 c 5xd8
 327 354 l 5
 327 364 l 5xb8
308 411 m 5
 299 383 l 5
 252 402 l 5
 242 373 l 5
 230 378 224 380 218 380 c 4
 212 380 207 378 195 373 c 5
 196 365 196 359 196 353 c 4
 196 347 196 342 195 335 c 5
 261 326 l 5
 272 337 276 341 280 354 c 5
 289 354 l 5xb8
 299 335 l 5
 326 335 349 334 375 326 c 5
 383 344 383 353 384 373 c 5
 356 402 l 5
 337 392 l 5
 327 411 l 5
 308 411 l 5
289 534 m 5
 318 534 l 5
 334 525 337 525 356 525 c 5
 367 514 371 509 375 496 c 5
 412 496 l 5
 427 480 439 468 450 449 c 5
 479 439 l 5
 498 373 l 5
 526 364 l 5
 530 344 535 333 545 316 c 5
 545 298 l 5
 535 281 530 269 526 250 c 5
 493 241 474 224 446 224 c 4
 436 224 425 226 412 231 c 5
 411 212 411 209 403 193 c 5
 384 193 l 5
 375 209 375 212 375 231 c 5
 358 231 360 231 346 222 c 5
 337 222 l 5
 323 231 325 231 308 231 c 5
 307 212 307 209 299 193 c 5
 271 199 264 203 261 231 c 5
 214 222 l 5
 200 231 192 236 176 241 c 5
 184 224 189 216 189 204 c 4
 189 199 187 192 185 184 c 5
 197 178 195 183 195 165 c 5
 204 156 l 5
 223 156 l 5
 233 137 l 5
 280 127 l 5
 271 165 l 5
 280 165 l 5
 288 149 288 145 289 127 c 5
 337 137 l 5
 344 144 343 137 337 156 c 5
 360 158 365 162 384 175 c 5
 412 175 l 5
 421 190 427 192 441 203 c 5
 462 202 478 199 498 193 c 5
 503 208 501 207 516 212 c 5
 535 175 l 5
 534 154 532 137 526 118 c 5
 507 118 l 5
 498 108 l 5
 493 93 494 94 479 89 c 5
 469 80 l 5
 469 61 l 5
 441 33 l 5
 422 42 l 5
 418 29 414 25 403 14 c 5
 386 14 389 14 375 23 c 5
 369 12 371 13 356 4 c 5
 299 4 l 5
 290 -13 288 -15 271 -24 c 5
 262 -10 261 -13 261 4 c 5
 195 23 l 5
 185 52 l 5
 148 52 l 5
 129 71 l 5
 120 87 119 89 119 108 c 5
 100 116 89 124 72 137 c 5
 72 154 72 151 81 165 c 5
 53 184 l 5
 62 231 l 5
 53 242 52 258 52 274 c 4
 52 285 53 296 53 307 c 5
 58 322 57 321 72 326 c 5
 69 335 67 342 67 348 c 4
 67 361 75 370 91 383 c 5
 91 411 l 5
 129 468 l 5
 195 487 l 5
 206 505 214 512 233 525 c 5
 239 524 244 524 249 524 c 4
 263 524 273 526 289 534 c 5
EndSplineSet
Validated: 1
EndChar

StartChar: f
Encoding: 102 102 59
Width: 620
VWidth: -220
Flags: W
HStem: 6 110<134.468 191.394 350.222 399.583 400.644 428> 34 73<98.1094 133.394> 487 20G<112 164 372 419.474> 583 104<335 410>
VStem: 224 100<261.888 318> 240 95<263.173 316.973 318 383.859> 410 132<519.296 583> 448 57<488 507>
LayerCount: 2
Fore
SplineSet
335 687 m 5xb4
 438 687 l 5
 438 677 l 5
 476 677 l 5
 514 649 l 5
 542 611 l 5
 542 517 l 5xb6
 526 508 523 507 505 507 c 5
 505 488 l 5
 448 469 l 5xb1
 440 487 438 497 438 517 c 5
 425 521 421 525 410 536 c 5
 410 583 l 5
 335 583 l 5xb6
 330 568 329 569 314 564 c 5
 314 517 l 5
 324 507 l 5xb8
 343 507 358 507 372 498 c 5
 410 507 l 5
 428 469 l 5
 428 422 l 5
 408 416 393 413 372 413 c 5
 361 392 357 383 335 375 c 5
 335 318 l 5xb6
 324 318 l 5xb8
 324 296 326 280 335 261 c 5xb4
 335 244 333 247 324 233 c 5
 344 214 l 5
 338 198 337 195 324 186 c 5
 344 110 l 5
 367 117 386 120 410 120 c 5
 424 129 421 129 438 129 c 5
 456 110 l 5
 456 93 457 95 466 81 c 5
 466 63 l 5
 457 49 456 51 456 34 c 5x7a
 428 6 l 5
 411 6 414 6 400 15 c 5
 391 6 389 6 378 6 c 4
 376 6 374 6 372 6 c 6
 344 15 l 5
 331 2 325 0 306 -4 c 5
 284 12 264 15 240 25 c 5
 230 25 l 5
 220 6 l 5
 203 6 206 6 192 15 c 5
 180 6 169 6 154 6 c 6
 144 6 l 5xb6
 122 22 105 29 78 34 c 5
 80 56 82 59 98 72 c 5
 98 81 l 5
 83 86 83 85 78 100 c 5
 89 104 96 107 104 107 c 4x76
 113 107 121 104 134 100 c 5
 144 112 153 116 162 116 c 4
 170 116 179 114 192 110 c 5
 205 126 208 127 230 129 c 5
 230 156 229 170 210 186 c 5
 212 208 214 210 230 223 c 5
 226 233 224 247 224 262 c 4xb8
 224 287 230 313 240 327 c 5
 240 337 l 5
 231 349 230 360 230 375 c 4
 230 378 230 381 230 384 c 5
 214 388 214 387 210 403 c 5
 164 403 l 5
 164 413 l 5
 106 413 l 5
 103 425 102 434 102 444 c 4
 102 465 108 483 116 507 c 5
 164 498 l 5
 179 516 185 516 210 517 c 5
 210 554 l 5
 220 554 l 5
 220 602 l 5
 237 615 249 622 268 630 c 5
 276 658 l 5
 286 668 l 5
 335 687 l 5xb4
EndSplineSet
Validated: 1
EndChar

StartChar: g
Encoding: 103 103 60
Width: 619
VWidth: -93
Flags: W
HStem: 48 104<338.74 413.725> 57 92<262.666 309.77> 152 38<35 44.8072> 334 158<489.691 545.72> 407 85<215.782 280.441> 491 20G<275 319 445 496.5>
VStem: 92 104<284.881 341> 92 95<275.538 321.396 332.371 341>
LayerCount: 2
Fore
SplineSet
291 417 m 5x29
 272 409 262 407 243 407 c 5
 229 398 232 398 215 398 c 5
 187 360 l 5
 187 353 l 6x29
 187 342 187 340 196 332 c 5
 196 322 l 5x2a
 187 309 187 303 187 284 c 5
 201 275 198 275 215 275 c 5
 215 258 215 260 224 246 c 5
 272 246 l 5
 272 256 l 5
 319 256 l 5
 328 270 328 267 328 284 c 5
 357 294 l 5
 353 307 349 311 338 322 c 5
 366 332 l 5
 347 379 l 5
 333 388 336 388 319 388 c 5
 319 405 319 403 310 417 c 5
 291 417 l 5x29
158 190 m 5
 177 133 l 5
 243 152 l 5
 242 160 242 166 242 172 c 4
 242 178 242 183 243 190 c 5
 224 184 231 183 224 190 c 5
 158 190 l 5
319 -75 m 5
 355 -57 359 -77 376 -47 c 5
 423 -47 l 5
 442 1 l 5
 429 18 422 29 414 48 c 5
 366 48 l 5xa2
 356 57 354 56 338 57 c 5
 328 70 326 70 310 76 c 5
 305 61 306 62 291 57 c 5x62
 270 57 253 61 234 67 c 5
 223 56 219 51 215 38 c 5
 168 48 l 5
 177 19 l 5
 162 14 163 16 158 1 c 5
 142 9 138 9 120 10 c 5
 122 -14 127 -28 139 -47 c 5
 160 -47 176 -43 196 -37 c 5xa2
 224 -66 l 5
 272 -56 l 5
 310 -75 l 5
 319 -75 l 5
455 4 m 4
 454 3 454 -7 458 -3 c 4
 459 -2 459 8 455 4 c 4
281 511 m 5x26
 319 502 l 5
 319 492 l 5
 335 491 337 492 347 483 c 5
 357 483 l 5
 369 491 383 493 398 493 c 4
 406 493 414 492 423 492 c 5x2a
 432 501 439 504 451 511 c 5
 489 511 l 5x26
 504 501 502 503 508 492 c 5x32
 546 492 l 5x2a
 574 464 l 5
 565 426 l 5
 582 426 579 426 593 417 c 5
 579 394 572 386 546 379 c 5
 555 351 l 5
 539 342 527 334 516 334 c 4
 507 334 498 339 489 351 c 5
 442 341 l 5
 442 332 l 5
 453 327 457 322 457 316 c 4
 457 309 451 303 442 294 c 5
 441 273 438 256 432 237 c 5
 395 228 l 5
 385 218 l 5
 385 199 l 5
 376 190 l 5
 356 184 340 180 319 180 c 5
 300 161 l 5
 262 171 l 5
 276 153 303 149 330 149 c 4x72
 353 149 376 152 395 152 c 5xa2
 410 142 408 144 414 133 c 5
 461 133 l 5
 472 122 476 118 480 105 c 5
 502 103 512 101 527 86 c 5
 565 86 l 5
 603 38 l 5
 601 15 598 -2 584 -18 c 5
 584 -56 l 5
 575 -70 574 -68 574 -85 c 5
 555 -104 l 5
 537 -104 l 5
 533 -117 529 -121 518 -132 c 5
 480 -132 l 5
 451 -160 l 5
 404 -160 l 5
 404 -170 l 5
 366 -170 l 5
 347 -189 l 5
 311 -182 279 -179 243 -179 c 5
 228 -170 230 -171 224 -160 c 5
 218 -160 212 -161 207 -161 c 4
 193 -161 184 -158 177 -141 c 5
 139 -151 l 5
 130 -137 130 -139 130 -122 c 5
 73 -122 l 5
 45 -94 l 5
 41 -76 42 -76 26 -66 c 5
 26 -9 l 5
 17 5 16 2 16 19 c 5
 29 37 35 46 54 57 c 5
 54 114 l 5
 45 114 l 5
 45 152 l 5
 35 152 l 5
 35 190 l 5
 57 197 60 199 73 218 c 5
 92 218 l 5x61
 99 240 101 243 120 256 c 5
 107 269 101 278 92 294 c 5
 92 341 l 5
 101 341 l 5
 101 379 l 5
 120 388 l 5
 120 426 l 5
 130 436 l 5
 149 445 l 5
 158 473 l 5
 196 473 l 5
 202 484 200 482 215 492 c 5
 253 492 l 5x6a
 262 501 269 504 281 511 c 5x26
EndSplineSet
Validated: 1
EndChar

StartChar: h
Encoding: 104 104 61
Width: 620
VWidth: -202
Flags: W
HStem: 8 114<40 59.3546 248.644 276 344 399.067> 18 113<522.408 580> 18 47<286 313.398> 74 43<296.562 314> 188 19<352 380> 237.639 4.36069<302 308> 273 28<248 267> 415 38<106 116> 508 20G<334 361 408.5 448> 595 75<30 77.1159>
VStem: 106 114<131.783 187.356 188.421 206.891 207 234.356> 116 85<482.279 517.925> 248 19<186.434 207 273 301> 352 28<188 207> 390 132<178.645 225.309> 406 116<226.465 264> 410 104<264 310.443 339.645 404.122>
LayerCount: 2
Fore
SplineSet
286 65 m 5x3fcc
 314 65 l 5
 314 74 l 5
 286 74 l 5
 286 65 l 5x3fcc
362 396 m 5
 372 387 l 5
 362 396 l 5
318 342 m 4
 322 346 321 337 320 336 c 4
 316 332 317 341 318 342 c 4
248 301 m 5
 267 301 l 5
 267 273 l 5
 248 273 l 5
 248 301 l 5
362 292 m 5
 372 283 l 5
 362 292 l 5
302 242 m 4
 303 243 312 242 308 238 c 4
 307 237 298 238 302 242 c 4
248 207 m 5
 267 207 l 5
 263 188 264 187 248 178 c 5
 248 207 l 5
352 207 m 5
 380 207 l 5
 380 188 l 5
 352 188 l 5
 352 207 l 5
286 150 m 5
 302 158 305 159 324 160 c 5
 323 141 322 138 314 122 c 5x8fcc
 297 131 295 133 286 150 c 5
334 415 m 5
 319 403 315 400 296 396 c 5
 276 377 l 5
 276 358 l 5
 267 349 l 5
 251 344 244 339 230 330 c 5
 226 310 219 300 210 283 c 5
 210 264 l 5
 219 249 219 251 230 245 c 5
 225 233 220 223 220 213 c 4
 220 205 224 197 230 188 c 5
 221 174 220 177 220 160 c 5
 229 146 230 148 230 131 c 5x4fec80
 238 122 l 5x8fec80
 251 120 262 117 272 117 c 4x1fec80
 279 117 286 119 296 122 c 5
 308 113 319 112 334 112 c 6
 344 112 l 5
 344 122 l 5x8fec80
 366 122 380 122 400 131 c 5
 400 178 l 5
 391 192 390 190 390 207 c 5x4fee
 401 213 400 211 410 226 c 5x4fcc80
 407 236 406 241 406 246 c 4x4fcd
 406 250 407 255 410 264 c 5
 410 273 l 5x4fcc80
 408 281 406 285 406 289 c 4x4fcd
 406 295 409 299 418 311 c 5
 412 327 413 329 400 339 c 5
 409 353 410 351 410 368 c 5x4fcc80
 401 384 400 386 400 405 c 5
 377 412 358 415 334 415 c 5
262 494 m 4
 266 498 265 488 264 487 c 4
 260 483 261 493 262 494 c 4
192 500 m 5
 201 491 l 5x0fdc
 192 500 l 5
418 -11 m 5
 400 -11 l 5
 384 8 371 8 344 8 c 5x8fcc80
 333 19 328 24 324 37 c 5
 314 37 l 5
 301 21 298 20 276 18 c 5x2fcc80
 276 8 l 5
 259 8 262 8 248 -1 c 5
 238 -1 l 5
 220 8 l 5
 210 8 l 5x8fec80
 204 -4 210 -1 192 -1 c 5
 177 4 177 3 172 18 c 5
 161 14 154 11 146 11 c 4
 137 11 129 14 116 18 c 5x2fdc
 98 -1 l 5
 78 5 61 7 40 8 c 5x8fdc
 12 27 l 5
 12 34 l 6
 12 45 13 46 22 55 c 5
 22 65 l 5x2fdc
 13 73 12 76 12 87 c 4
 12 89 12 91 12 93 c 5
 30 122 l 5x8fdc
 47 122 46 122 60 131 c 5
 98 131 l 5
 98 134 98 137 98 140 c 0
 98 152 99 158 106 169 c 5
 106 178 l 5
 97 186 98 189 98 200 c 6
 98 207 l 5
 106 207 l 5x4fec
 106 224 107 221 98 235 c 5
 98 254 l 5
 105 266 106 274 116 283 c 5
 116 320 l 5x4fdc
 106 330 l 5
 106 349 l 5x4fec
 115 372 116 390 116 415 c 5x4fdc
 106 415 l 5
 106 453 l 5x4fec
 116 453 l 5x4fdc
 116 478 115 496 106 519 c 5x4fec
 116 557 l 5x4fdc
 106 566 l 5x4fec
 88 566 l 5
 79 580 78 578 78 595 c 5
 30 595 l 5
 12 623 l 5
 12 642 l 5
 30 670 l 5
 49 669 59 669 78 661 c 5
 78 663 78 665 78 667 c 4
 78 678 79 680 88 689 c 5
 106 685 106 686 116 670 c 5x4fdc
 164 680 l 5
 178 671 175 670 192 670 c 5
 220 642 l 5
 220 566 l 5x4fec
 229 552 230 555 230 538 c 5
 219 524 216 519 201 510 c 5
 201 500 l 5
 211 491 214 488 214 482 c 4
 214 478 212 471 210 462 c 5
 258 462 l 5
 264 474 257 472 276 472 c 5
 286 481 l 5
 286 498 287 496 296 510 c 5
 334 510 l 5
 352 528 l 5
 370 524 370 526 380 510 c 5
 396 518 399 518 418 519 c 5
 448 500 l 5
 448 472 l 5
 456 462 l 5
 479 460 485 456 504 443 c 5
 504 426 505 429 514 415 c 5
 514 358 l 5
 527 348 526 346 532 330 c 5
 515 306 514 292 514 264 c 5x4fdc80
 522 264 l 5x4fcd
 522 188 l 5x4fce
 514 160 l 5
 527 150 526 147 532 131 c 5
 580 131 l 5x4fcc80
 608 112 l 5
 607 96 607 93 598 84 c 5
 598 74 l 5
 606 62 608 51 608 36 c 4
 608 30 608 24 608 18 c 5x3fcc80
 598 8 l 5
 590 8 l 6x8fcc80
 575 8 564 9 552 18 c 5
 542 18 l 5x4fcc80
 528 8 506 5 484 5 c 4
 461 5 437 8 418 8 c 5x8fcc80
 418 -11 l 5
EndSplineSet
Validated: 9
EndChar

StartChar: i
Encoding: 105 105 62
Width: 620
VWidth: -204
Flags: W
HStem: 4 114<159.117 168 224.276 245.456 365.5 395.58> 23 95<178 243.309> 505 20G<74 130 158.5 168 216 252 282 346.207> 525 21G<300 364.5>
VStem: 244 133<184.606 250> 254 123<364.42 382.252 383.371 418.316>
LayerCount: 2
Fore
SplineSet
282 714 m 5x38
 320 714 l 5
 337 704 346 699 366 695 c 5
 377 685 l 5
 377 657 l 5x34
 394 653 392 652 404 638 c 5
 400 618 398 605 386 591 c 5
 404 581 l 5
 404 572 l 5
 377 563 371 550 358 525 c 5
 300 534 l 5
 300 543 l 5
 262 543 l 5
 234 553 l 5
 227 576 224 595 224 619 c 5
 208 628 210 628 206 647 c 5
 234 657 l 5
 244 676 l 5
 258 685 255 685 272 685 c 5
 272 702 273 700 282 714 c 5x38
92 525 m 5
 130 515 l 5
 143 524 149 524 168 525 c 5
 168 515 l 5
 216 515 l 5
 224 525 l 5
 244 525 l 5x78
 260 516 263 515 282 515 c 5
 282 525 l 5
 320 525 l 5
 358 496 l 5
 358 468 l 5
 366 468 l 5
 366 451 368 453 377 439 c 5
 377 392 l 5x74
 370 380 367 373 358 364 c 5
 366 326 l 5
 360 317 358 313 358 311 c 4
 358 309 360 306 366 297 c 5
 358 260 l 5
 377 250 l 5
 377 241 l 5x78
 357 213 361 186 348 156 c 5
 365 144 368 137 377 118 c 5xb4
 394 118 390 118 404 127 c 5
 432 127 l 5
 432 137 l 5
 462 137 l 5
 508 118 l 5
 518 137 l 5
 528 137 l 5
 538 118 l 5
 546 118 l 5x74
 546 108 l 5
 556 108 l 5
 574 89 l 5
 574 42 l 5
 566 14 l 5
 557 16 551 16 546 16 c 4
 537 16 532 13 518 4 c 5
 480 14 l 5
 472 8 464 5 456 5 c 4
 448 5 440 8 432 14 c 5
 396 4 l 5
 387 6 381 7 374 7 c 4
 366 7 358 6 348 4 c 5xb4
 333 9 333 8 328 23 c 5x74
 308 14 294 14 272 14 c 5
 263 5 261 4 250 4 c 6
 244 4 l 5xb8
 229 13 230 12 224 23 c 5
 178 23 l 5x78
 168 4 l 5xb8
 149 4 143 5 130 14 c 5
 102 14 l 5
 88 23 91 23 74 23 c 5
 61 40 54 51 46 70 c 5
 60 83 66 90 82 99 c 5
 82 117 83 121 92 137 c 5
 130 127 l 5
 139 136 142 136 158 137 c 5
 182 120 195 118 224 118 c 5
 237 137 240 139 262 146 c 5
 257 162 253 170 244 184 c 5
 246 197 248 206 248 216 c 4
 248 223 247 231 244 241 c 5
 244 250 l 5x78
 254 269 l 5
 254 279 l 5x74
 242 285 244 278 244 297 c 5x78
 249 312 247 311 262 316 c 5
 258 325 258 333 258 341 c 4
 258 354 261 367 262 383 c 5
 253 391 254 393 254 404 c 6
 254 411 l 5
 235 415 233 414 224 430 c 5
 178 420 l 5
 178 411 l 5
 161 411 164 411 150 402 c 5
 140 402 l 5
 120 410 104 411 82 411 c 5
 74 420 l 5
 74 439 l 5
 46 449 l 5
 48 471 48 474 64 487 c 5
 64 496 l 5
 74 496 l 5
 74 506 l 5
 92 525 l 5
EndSplineSet
Validated: 1
EndChar

StartChar: j
Encoding: 106 106 63
Width: 620
VWidth: -164
Flags: W
HStem: -202 113<296.644 351.725> -41 38<276.784 297.842> -22 9<336.129 342.937> 370 109<192.603 267.116> 517 104<400.859 447.675> 526 21G<454 456> 536 85<334 364.195>
VStem: 324 142<527.024 602> 372 94<195.691 213.488 214.783 279.112 280.741 281.556> 380 106<167.644 176 176.141 213.725> 380 86<195.691 242.355>
LayerCount: 2
Fore
SplineSet
390 649 m 1x9280
 407 640 409 638 418 621 c 1x9880
 448 621 l 1x9280
 466 602 l 1
 466 555 l 1
 457 541 456 543 456 526 c 1x95
 452 527 450 527 448 527 c 0
 441 527 439 524 428 517 c 1
 410 517 l 1
 400 501 398 502 380 498 c 1x9820
 365 519 347 524 324 536 c 1
 324 611 l 1x93
 334 621 l 1
 372 621 l 1
 376 634 379 638 390 649 c 1x9280
268 489 m 1
 286 489 l 1
 300 480 307 476 318 476 c 0
 324 476 333 477 344 479 c 1
 359 474 357 475 362 460 c 1
 371 465 375 467 380 467 c 0
 385 467 390 465 400 460 c 1
 413 473 418 475 438 479 c 1
 456 441 l 1
 456 394 l 1
 466 394 l 1
 466 375 467 372 476 356 c 1
 475 340 475 337 466 328 c 1
 466 309 l 1xd020
 475 299 475 296 476 280 c 1
 468 261 466 245 466 226 c 0xd080
 466 222 466 218 466 214 c 1xd020
 477 208 476 210 486 195 c 1
 486 178 485 181 476 167 c 1
 494 148 l 1
 486 110 l 1
 492 102 494 97 494 91 c 0
 494 85 492 80 486 72 c 1
 486 53 l 1
 495 38 495 16 504 -3 c 1xd040
 504 -13 l 1
 495 -29 494 -33 494 -51 c 1
 486 -51 l 1
 486 -79 l 1xb040
 476 -79 l 1
 476 -107 l 1
 467 -121 466 -119 466 -136 c 1
 418 -145 l 1
 410 -155 l 1
 410 -172 409 -169 400 -183 c 1
 352 -183 l 1
 346 -194 349 -193 334 -202 c 1
 258 -202 l 1
 244 -211 247 -211 230 -211 c 1
 217 -197 210 -190 202 -174 c 1
 164 -174 l 1
 136 -117 l 1
 132 -98 128 -94 116 -79 c 1
 116 -76 116 -73 116 -70 c 0
 116 -55 117 -44 126 -32 c 1
 117 -18 116 -20 116 -3 c 1
 130 10 138 16 154 25 c 1
 164 72 l 1
 192 91 l 1
 220 86 246 82 276 82 c 1
 296 34 l 1
 285 23 280 19 276 6 c 1
 293 6 292 6 306 -3 c 1
 296 -41 l 1
 258 -32 l 1
 252 -44 258 -41 240 -41 c 1xd020
 240 -70 l 1
 296 -79 l 1
 310 -88 307 -89 324 -89 c 1
 337 -76 342 -74 362 -70 c 1
 362 -22 l 1
 356 -22 l 2
 345 -22 342 -22 334 -13 c 1xb1
 350 -5 353 -4 372 -3 c 1
 372 22 l 2xd080
 372 37 372 51 380 63 c 1xd020
 372 101 l 1xd080
 379 121 380 140 380 161 c 0xd020
 380 166 380 171 380 176 c 1xd040
 372 176 l 1
 372 179 372 182 372 185 c 0xd080
 372 197 373 203 380 214 c 1xd020
 380 231 381 229 372 243 c 1
 372 252 l 1
 390 328 l 1
 362 337 l 1
 362 355 363 359 372 375 c 1
 296 394 l 1
 292 381 287 377 276 366 c 1
 265 369 256 370 248 370 c 0
 240 370 231 369 220 366 c 1
 206 379 198 385 182 394 c 1
 192 460 l 1
 205 464 209 468 220 479 c 1
 239 479 249 481 268 489 c 1
EndSplineSet
Validated: 1
EndChar

StartChar: k
Encoding: 107 107 64
Width: 620
VWidth: -194
Flags: W
HStem: 14 104<254 299.117 501.029 573.218> 24 70<46 71.6726> 33 61<46.7824 71.6726 86.2337 110> 402 114<470.691 517.583> 421 68<566.234 594> 440 38<244 269.501> 666 20G<54 168>
VStem: 82 19<108.096 128>
LayerCount: 2
Fore
SplineSet
8 128 m 1x83
 16 118 l 1
 8 128 l 1x83
82 128 m 1
 101 128 l 1
 101 100 l 1
 85 109 86 109 82 128 c 1
272 204 m 1
 234 147 l 1
 234 137 l 1
 254 118 l 1
 273 118 281 120 300 128 c 1
 310 100 l 1
 358 118 l 1
 345 141 327 159 320 185 c 1
 292 204 l 1
 272 204 l 1
54 677 m 1
 82 686 l 1
 168 686 l 1
 168 677 l 1
 224 677 l 1
 234 667 l 1
 234 648 235 645 244 629 c 1
 244 612 243 615 234 601 c 1
 245 595 244 597 254 582 c 1
 244 478 l 1
 282 478 l 1
 279 449 272 443 244 440 c 1x87
 243 420 242 411 234 393 c 1
 249 388 249 389 254 374 c 1
 310 374 l 1
 300 412 l 1
 309 418 312 421 314 421 c 0x0b
 316 421 319 418 328 412 c 1
 322 433 309 449 300 468 c 1
 313 472 317 476 328 487 c 1
 348 487 l 1
 352 500 355 505 366 516 c 1
 385 512 391 510 404 497 c 1
 422 505 432 505 452 506 c 1
 452 516 l 1
 518 516 l 1
 525 509 519 510 538 516 c 1x13
 552 505 557 502 566 487 c 1
 571 488 576 489 580 489 c 0x0b
 604 489 610 470 612 440 c 1x07
 594 421 l 1
 546 421 l 1x0b
 546 412 l 1
 518 412 l 1
 509 403 507 402 496 402 c 2
 490 402 l 1
 484 391 485 392 470 383 c 1
 432 383 l 1
 421 362 415 349 396 336 c 1
 395 315 392 298 386 279 c 1
 401 268 411 256 424 241 c 1
 424 204 l 1
 432 194 l 1
 452 185 l 1
 462 175 l 1
 462 156 l 1
 480 137 l 1
 496 131 498 131 508 118 c 1
 546 118 l 1x93
 560 127 557 128 574 128 c 1
 604 90 l 1
 604 33 l 1x23
 574 14 l 1x83
 569 15 566 15 562 15 c 0
 541 15 522 9 500 5 c 1
 459 33 401 7 366 33 c 1
 356 30 349 29 342 29 c 0
 332 29 323 31 310 33 c 1x23
 301 23 294 21 282 14 c 1
 196 14 l 1x83
 196 24 l 1x43
 172 24 153 21 130 14 c 1x83
 109 29 100 32 74 33 c 1x23
 60 24 63 24 46 24 c 1
 16 52 l 1
 16 90 l 1
 17 90 18 90 19 90 c 0
 33 90 43 94 52 94 c 0x43
 59 94 65 91 72 80 c 1
 86 88 l 1
 91 103 95 89 110 94 c 5x23
 112 118 l 1
 123 129 127 133 140 137 c 1
 140 147 l 1
 132 155 128 160 128 165 c 0
 128 170 132 177 140 185 c 1
 137 195 136 205 136 217 c 0
 136 240 140 266 140 289 c 1
 131 303 130 300 130 317 c 1
 145 341 137 364 150 383 c 1
 150 393 l 1
 131 419 139 471 130 506 c 1
 139 521 139 519 150 525 c 1
 130 591 l 1
 101 582 l 1
 85 590 82 590 64 591 c 1
 36 601 l 1
 36 648 l 1
 46 667 l 1
 54 677 l 1
EndSplineSet
Validated: 1
EndChar

StartChar: l
Encoding: 108 108 65
Width: 620
VWidth: -215
Flags: W
HStem: 10 116<442.89 500> 12 104<178.419 206 424.614 441.31 508 529.228> 12 85<168 199.627> 577 98<64.8928 167.688 188 195.334> 599 86<129.266 178 206.519 243.123> 599 76<129.266 167.688 188 243.123>
VStem: 244 132<164 242.403> 244 123<164 191.259 533.561 570> 254 113<504.892 570> 262 97<268.418 304.356> 262 38<12 22>
LayerCount: 2
Fore
SplineSet
158 684 m 5x05
 178 684 l 5
 188 675 l 5x11
 206 675 l 5x05
 217 684 232 685 248 685 c 4x09
 259 685 271 684 282 684 c 5
 282 675 l 5
 328 675 l 5
 348 637 l 5
 348 580 l 5
 367 570 l 5x05
 366 544 364 523 348 504 c 5
 348 485 l 5
 361 466 358 441 367 419 c 5
 358 381 l 5
 364 373 366 368 366 362 c 4
 366 356 364 351 358 343 c 5
 367 305 l 5x0480
 362 295 359 291 359 286 c 4x0440
 359 281 362 277 367 268 c 5x0480
 362 253 363 254 348 249 c 5
 364 233 367 220 376 201 c 5
 376 192 l 5x06
 367 176 367 172 367 154 c 5
 358 154 l 5
 367 97 l 5x2480
 388 112 398 115 424 116 c 5x4080
 430 127 427 125 442 135 c 5
 461 129 479 126 500 126 c 5x8080
 508 116 l 5
 528 116 l 5x4080
 537 125 540 125 556 126 c 5x8080
 549 104 550 104 528 97 c 5
 536 81 543 74 556 60 c 5
 556 31 l 5
 538 12 l 5x2080
 521 12 499 10 478 10 c 4x8080
 457 10 437 13 424 22 c 5
 386 12 l 5
 365 20 345 22 324 22 c 4
 316 22 308 22 300 22 c 5
 300 12 l 5
 262 12 l 5x2020
 262 22 l 5
 206 22 l 5
 206 12 l 5x4020
 168 12 l 5
 168 3 l 5
 130 3 l 5
 113 16 101 23 82 31 c 5
 82 50 l 5
 96 59 95 60 112 60 c 5
 92 107 l 5
 140 97 l 5x2020
 150 116 l 5
 158 116 l 5x4020
 168 97 l 5
 178 97 l 5
 187 108 192 112 200 112 c 4
 206 112 213 110 224 107 c 5
 232 126 240 128 262 135 c 5x2020
 244 164 l 5
 244 220 l 5x22
 252 239 251 262 262 277 c 5x2040
 262 294 263 291 254 305 c 5x2080
 254 322 253 320 262 334 c 5
 262 343 l 5x2020
 244 353 l 5x21
 254 410 l 5x2080
 259 425 257 423 272 428 c 5
 263 447 261 454 244 466 c 5x21
 247 485 244 500 254 514 c 5
 254 533 l 5x2080
 245 545 244 555 244 570 c 6
 244 580 l 5
 225 584 225 583 216 599 c 5x29
 196 599 l 5x05
 182 581 155 577 128 577 c 4x11
 105 577 83 580 64 580 c 5
 64 599 65 605 74 618 c 5
 74 627 l 5
 65 639 64 650 64 665 c 6
 64 675 l 5
 75 675 85 674 96 674 c 4
 117 674 138 676 158 684 c 5x05
EndSplineSet
Validated: 1
EndChar

StartChar: m
Encoding: 109 109 66
Width: 620
VWidth: -186
Flags: W
HStem: 83 37<216.25 234> 140 19<395.215 422.733> 338 19<206 225> 414 90<36.6439 63.9794> 508 20G<94.5 111.5 159.5 172.5 214 300 371.5 404 427.5 435 492 506.5>
VStem: 62 127<178.567 224.532 263 272> 74 115<168.515 224.532> 206 19<338 357> 262 133<176.444 224.07 225 239.1 338 385.484> 480 85<282.743 319 329.74 374.749>
LayerCount: 2
Fore
SplineSet
424 92 m 5xf9c0
 429 77 427 78 442 73 c 5
 437 88 439 87 424 92 c 5xf9c0
216 83 m 5
 225 67 225 68 244 64 c 5
 234 83 l 5
 216 83 l 5
206 357 m 5
 225 357 l 5
 225 338 l 5
 206 338 l 5
 206 357 l 5
424 414 m 5
 411 401 404 392 395 376 c 5
 395 338 l 5
 386 338 l 5
 386 318 387 309 395 291 c 5
 380 286 381 287 376 272 c 5
 383 250 383 222 395 206 c 5
 386 168 l 5
 404 160 412 159 432 159 c 5
 424 130 l 5
 410 139 412 140 395 140 c 5
 404 118 419 118 442 111 c 5
 462 130 l 5
 452 149 l 5
 470 159 l 5
 462 215 l 5
 470 215 l 5
 470 253 l 5
 500 263 l 5
 500 272 l 5
 462 282 l 5
 467 298 471 305 480 319 c 5
 480 367 l 5
 464 375 460 375 442 376 c 5
 432 386 l 5
 431 402 433 404 424 414 c 5
225 386 m 5
 210 374 207 371 188 367 c 5
 187 348 186 345 178 329 c 5
 178 319 l 5
 186 299 188 285 188 263 c 5
 216 234 l 5
 199 234 202 234 188 225 c 5
 190 215 189 206 189 198 c 4xfdc0
 189 189 190 179 188 168 c 5
 210 156 217 153 225 130 c 5
 211 139 213 140 196 140 c 5
 202 125 213 120 225 120 c 4
 237 120 249 125 262 130 c 5
 262 178 l 5
 254 196 254 205 254 225 c 5
 262 225 l 5
 272 272 l 5
 254 291 l 5
 254 314 258 334 258 354 c 4
 258 364 257 375 254 386 c 5
 225 386 l 5
196 490 m 5
 199 515 203 518 225 528 c 5
 272 528 l 5
 300 518 l 5
 310 490 l 5
 366 480 l 5
 366 498 367 502 376 518 c 5
 404 509 l 5
 413 520 423 526 432 526 c 4
 438 526 444 524 452 518 c 5
 470 518 l 5
 479 527 484 527 500 528 c 5
 513 509 516 503 518 480 c 5
 535 480 532 480 546 471 c 5
 565 442 l 5
 565 423 565 421 574 405 c 5
 573 389 574 385 565 376 c 5
 565 357 l 5
 574 347 573 345 574 329 c 5
 565 319 l 5
 565 291 l 5
 556 263 l 5
 571 258 569 259 574 244 c 5
 574 225 577 231 565 225 c 5
 574 187 l 5
 556 178 l 5
 556 168 l 5
 572 155 581 139 594 121 c 5
 594 102 593 96 584 83 c 5
 590 64 592 45 594 26 c 5
 565 7 l 5
 518 17 l 5
 518 26 l 5
 499 25 496 25 480 17 c 5
 462 17 l 5
 395 36 l 5
 380 18 369 17 348 17 c 6
 338 17 l 5
 329 8 327 7 316 7 c 4
 314 7 312 7 310 7 c 5
 271 35 230 17 188 36 c 5
 168 7 l 5
 144 7 125 5 102 -2 c 5
 87 7 88 6 82 17 c 5
 46 17 l 5
 46 64 l 5
 36 76 31 86 26 102 c 5
 40 118 45 123 64 130 c 5
 64 137 l 6
 64 148 65 150 74 159 c 5
 74 178 l 5xfbc0
 65 190 62 208 62 226 c 4xfdc0
 62 242 64 258 64 272 c 5
 54 282 l 5
 54 300 l 5
 74 367 l 5xfbc0
 63 373 63 371 54 386 c 5
 64 414 l 5
 47 414 50 414 36 423 c 5
 36 499 l 5
 48 502 53 504 60 504 c 4
 66 504 72 502 82 499 c 5
 88 510 87 508 102 518 c 5
 121 517 127 518 140 509 c 5
 154 518 151 518 168 518 c 5
 177 504 181 499 196 490 c 5
EndSplineSet
Validated: 1
EndChar

StartChar: n
Encoding: 110 110 67
Width: 620
VWidth: -188
Flags: W
HStem: 412 123<22.7824 88> 412 113<18.1645 49.3561 50.2812 88>
VStem: 106 133<251.612 289 289.141 327>
LayerCount: 2
Fore
SplineSet
352 412 m 5x60
 337 402 340 404 334 393 c 5
 314 403 l 5
 300 391 300 391 296 374 c 5
 258 384 l 5
 249 364 248 349 248 327 c 5
 239 327 l 5
 239 300 l 6
 239 281 237 264 220 251 c 5
 222 229 223 226 239 213 c 5
 230 199 230 202 230 185 c 5
 238 166 238 157 239 138 c 5
 258 145 259 146 268 166 c 5
 276 166 l 5
 281 150 287 142 296 128 c 5
 314 128 l 5
 324 138 l 5
 314 175 l 5
 332 163 342 146 362 138 c 5
 362 175 l 5
 380 175 384 176 400 185 c 5
 400 194 l 5
 386 203 378 208 362 213 c 5
 374 235 377 243 400 251 c 5
 401 265 404 277 404 287 c 4
 404 303 398 314 372 317 c 5
 372 327 l 5
 393 334 396 336 410 355 c 5
 400 393 l 5
 390 403 l 5
 352 412 l 5x60
306 100 m 5
 314 90 l 5
 306 100 l 5
50 535 m 5xa0
 68 535 l 5xa0
 90 526 109 525 134 525 c 6
 136 525 l 5x60
 136 516 l 5
 182 516 l 5
 182 497 l 5
 248 488 l 5
 259 500 271 506 286 516 c 5
 305 520 309 523 324 535 c 5xa0
 340 534 342 534 352 525 c 5
 362 525 l 5x60
 375 534 381 534 400 535 c 5xa0
 400 525 l 5
 438 525 l 5x60
 448 507 l 5
 456 507 l 5
 456 497 l 5
 466 497 l 5
 486 478 l 5
 486 459 l 5
 504 450 l 5
 514 431 l 5
 514 421 l 5
 494 393 l 5
 509 388 509 389 514 374 c 5
 514 355 516 361 504 355 c 5
 504 346 l 5
 514 327 l 5
 504 298 l 5
 515 292 512 295 522 280 c 5
 521 261 522 258 514 242 c 5
 514 213 l 5
 504 204 l 5
 504 185 l 5
 513 173 517 163 522 147 c 5
 560 147 l 5
 598 119 l 5
 598 102 599 104 608 90 c 5
 618 43 l 5
 595 29 579 24 552 24 c 5
 548 11 543 7 532 -4 c 5
 522 -4 l 5
 511 7 508 11 504 24 c 5
 482 15 463 15 438 15 c 5
 428 5 l 5
 410 5 l 5
 390 13 374 15 352 15 c 6
 314 15 l 5
 314 34 l 5
 298 29 290 24 276 15 c 5
 259 15 262 15 248 24 c 5
 235 15 229 15 210 15 c 5
 202 24 l 5
 182 24 l 5
 170 15 159 15 144 15 c 6
 136 15 l 5
 136 5 l 5
 68 5 l 5
 54 14 57 15 40 15 c 5
 33 38 30 57 30 81 c 5
 22 81 l 5
 22 119 l 5
 50 147 l 5
 78 147 l 5
 83 162 83 161 98 166 c 5
 88 213 l 5
 95 225 96 233 106 242 c 5
 106 289 l 5
 98 289 l 5
 98 292 98 295 98 298 c 0
 98 310 99 316 106 327 c 5
 106 336 l 5
 99 346 98 355 98 366 c 2
 98 384 l 5
 89 398 88 395 88 412 c 5
 30 412 l 5xa0
 26 425 23 429 12 440 c 5
 12 478 l 5
 3 486 2 489 2 500 c 6
 2 507 l 5
 17 512 17 510 22 525 c 5x60
 39 525 36 526 50 535 c 5xa0
EndSplineSet
Validated: 9
EndChar

StartChar: o
Encoding: 111 111 68
Width: 620
VWidth: -194
Flags: W
HStem: 198 29<361.661 380.553> 293 19<366.096 386> 425 90<244.419 291.486> 509 20G<314 328>
VStem: 74 104<236 282.676> 82 123<337.355 405.127> 358 28<198.645 227>
LayerCount: 2
Fore
SplineSet
358 312 m 5xc2
 376 312 l 5
 388 306 386 311 386 293 c 5
 367 297 367 296 358 312 c 5xc2
316 261 m 4
 317 262 326 262 322 258 c 4
 321 257 312 257 316 261 c 4
358 227 m 5
 386 227 l 5
 386 210 385 212 376 198 c 5
 366 198 l 5
 357 212 358 210 358 227 c 5
216 170 m 5
 224 160 l 5
 216 170 l 5
262 425 m 5xe6
 248 416 251 416 234 416 c 5
 225 401 219 396 205 387 c 5
 205 350 l 5xe6
 188 346 190 345 178 331 c 5
 168 283 l 5
 178 276 182 275 182 270 c 4
 182 267 180 263 178 255 c 5
 178 236 l 5xea
 186 217 187 208 188 189 c 5
 200 174 201 170 205 151 c 5
 234 141 l 5
 282 141 l 5
 282 132 l 5
 338 132 l 5
 348 141 l 5
 348 179 l 5
 396 179 l 5
 414 198 l 5
 414 206 l 6
 414 223 420 236 424 255 c 5
 411 253 408 252 396 255 c 5
 424 283 l 5
 423 292 422 302 422 311 c 4
 422 320 423 330 424 340 c 5
 358 406 l 5
 348 406 l 5
 333 396 334 398 328 387 c 5
 320 387 l 5
 311 401 305 409 300 425 c 5
 262 425 l 5xe6
320 529 m 5xd6
 336 523 338 523 348 510 c 5
 404 510 l 5
 452 482 l 5
 452 463 l 5
 462 454 l 5
 475 450 479 446 490 435 c 6
 500 425 l 5
 500 397 l 5
 513 393 517 389 528 378 c 5
 528 321 l 5
 546 312 l 5
 546 274 l 5
 556 274 l 5
 556 246 l 5
 547 232 546 234 546 217 c 5
 538 217 l 5
 537 201 537 198 528 189 c 5
 528 151 l 5
 517 140 513 136 500 132 c 5
 500 94 l 5
 485 82 481 79 462 75 c 5
 452 66 l 5
 452 47 l 5
 442 37 l 5
 419 30 400 28 376 28 c 5
 348 0 l 5
 300 0 l 5
 285 9 288 8 282 19 c 5
 244 19 l 5
 244 28 l 5
 196 28 l 5
 187 42 188 39 188 56 c 5
 168 56 l 5
 158 66 l 5
 158 75 l 5
 150 85 l 5
 130 85 l 5
 102 113 l 5
 102 141 l 5
 82 151 l 5xe6
 78 170 73 181 64 198 c 5
 64 236 l 5
 74 236 l 5
 74 293 l 5xea
 64 293 l 5
 64 331 l 5
 73 346 71 344 82 350 c 5
 82 378 l 5
 91 395 98 405 102 425 c 5
 116 438 124 445 140 454 c 5
 140 473 l 5
 150 482 l 5
 168 482 l 5
 168 491 l 5
 188 491 l 5
 194 502 190 500 205 510 c 5
 223 509 228 509 244 501 c 5
 253 512 258 515 266 515 c 4xe6
 272 515 281 513 292 510 c 5
 301 519 308 522 320 529 c 5xd6
EndSplineSet
Validated: 1
EndChar

StartChar: p
Encoding: 112 112 69
Width: 620
VWidth: -178
Flags: W
HStem: -157 113<80 117.396 118.783 127.116> 174 19<315.434 336> 429 85<62.0262 136.937> 429 76<61 127.844>
VStem: 147 94<-6 32 231.697 278> 147 85<278 306 316.881 362.291> 421 123<183.698 239.441> 440 113<316 399.643> 449 114<233.296 277.356>
LayerCount: 2
Fore
SplineSet
260 335 m 5xc0
 270 325 l 5
 260 335 l 5xc0
260 287 m 5
 275 282 274 284 279 269 c 5
 260 269 l 5
 260 287 l 5
307 193 m 5
 326 193 l 5
 338 187 336 192 336 174 c 5
 317 178 316 177 307 193 c 5
326 410 m 5
 298 420 l 5
 283 410 285 412 279 401 c 5
 260 401 l 5
 241 391 l 5xd9
 251 363 l 5
 240 348 240 325 232 306 c 5
 232 278 l 5xd4
 241 278 l 5
 241 253 241 246 260 231 c 5
 251 215 251 211 251 193 c 5
 273 186 272 186 279 164 c 5
 298 151 303 148 326 146 c 5
 336 108 l 5
 353 117 355 119 364 136 c 5
 383 140 394 145 411 155 c 5
 402 183 l 5
 420 198 420 206 421 231 c 5xda
 434 235 438 239 449 250 c 5xd080
 449 267 449 264 440 278 c 5xd1
 449 291 449 297 449 316 c 5xd080
 440 316 l 5
 440 346 438 372 430 401 c 5
 417 405 413 409 402 420 c 5
 336 429 l 5xd1
 324 423 326 428 326 410 c 5
364 543 m 5
 381 534 384 531 393 514 c 5
 440 514 l 5xe9
 451 503 455 499 459 486 c 5
 476 486 473 486 487 477 c 5
 497 439 l 5
 516 429 l 5
 525 415 525 418 525 401 c 5
 542 401 539 400 553 391 c 5
 553 316 l 5xd9
 563 316 l 5xd080
 553 297 l 5xd1
 561 285 563 273 563 258 c 4
 563 252 563 246 563 240 c 5xd080
 556 228 553 221 544 212 c 5
 544 136 l 5xd2
 525 136 l 5
 525 98 l 5
 487 89 l 5
 478 70 l 5
 468 60 l 5
 449 60 l 5xd080
 440 45 435 41 421 32 c 5
 383 32 l 5
 383 15 383 18 374 4 c 5
 336 4 l 5
 327 31 316 35 288 41 c 5
 288 51 l 5
 286 51 284 51 282 51 c 4
 271 51 268 51 260 60 c 5
 241 60 l 5xda
 232 51 l 5xd4
 238 31 240 15 241 -6 c 5xd8
 258 -6 256 -6 270 -15 c 5
 260 -44 l 5
 298 -34 l 5
 364 -53 l 5
 360 -69 361 -68 345 -72 c 5
 345 -81 l 5
 356 -87 354 -85 364 -100 c 5
 355 -148 l 5
 344 -147 333 -146 322 -146 c 4
 301 -146 280 -149 260 -157 c 4
 258 -157 256 -157 254 -157 c 4
 243 -157 240 -157 232 -148 c 5
 222 -148 l 5
 214 -154 209 -156 203 -156 c 4
 197 -156 192 -154 184 -148 c 5
 167 -148 170 -148 156 -157 c 5
 147 -157 l 5xd4
 133 -148 135 -148 118 -148 c 5
 105 -157 99 -157 80 -157 c 5
 61 -119 l 5
 61 -81 l 5
 80 -44 l 5
 99 -45 109 -45 128 -53 c 5
 137 -25 147 -1 147 32 c 5xd8
 156 32 l 5
 156 89 l 5
 137 108 l 5
 147 193 l 5
 128 212 l 5
 130 240 136 271 147 297 c 5
 147 306 l 5
 128 316 l 5
 132 335 134 341 147 354 c 5
 147 401 l 5
 131 410 132 410 128 429 c 5
 71 429 l 5xe4
 57 452 52 468 52 496 c 5
 61 505 l 5xd4
 83 505 98 505 118 514 c 5
 128 514 l 5xe4
 144 505 147 505 166 505 c 5xd4
 175 514 l 5
 194 514 l 5xe4
 208 505 205 505 222 505 c 5
 232 486 l 5xd4
 241 486 l 5
 245 499 249 503 260 514 c 5
 326 533 l 5
 336 514 l 5
 345 514 l 5xe8
 349 527 353 532 364 543 c 5
EndSplineSet
Validated: 1
EndChar

StartChar: q
Encoding: 113 113 70
Width: 620
VWidth: -178
Flags: W
HStem: -161 113<494.884 503.217 504.604 542> 170 19<286 306.566> 510 12G<275 296 447 465.5>
VStem: 59 114<229.296 273.356> 69 113<312 395.643> 78 123<179.698 235.441> 381 94<-10 28 227.697 274> 390 85<274 293 302 302 312.881 358.291>
LayerCount: 2
Fore
SplineSet
362 331 m 5xe0
 352 321 l 5
 362 331 l 5xe0
362 283 m 5
 347 278 348 280 343 265 c 5
 362 265 l 5
 362 283 l 5
315 189 m 5
 296 189 l 5
 284 183 286 188 286 170 c 5
 305 174 306 173 315 189 c 5
296 406 m 5
 324 416 l 5
 339 406 337 408 343 397 c 5
 362 397 l 5
 381 387 l 5xea
 371 359 l 5
 382 344 382 321 390 302 c 5
 390 274 l 5xe1
 381 274 l 5
 381 249 381 242 362 227 c 5
 371 211 371 207 371 189 c 5
 349 182 350 182 343 160 c 5
 324 147 319 144 296 142 c 5
 286 104 l 5
 269 113 267 115 258 132 c 5
 239 136 228 141 211 151 c 5
 220 179 l 5
 202 194 202 202 201 227 c 5xe6
 188 231 184 235 173 246 c 5xf0
 173 263 173 260 182 274 c 5xe8
 173 287 173 293 173 312 c 5xf0
 182 312 l 5xe8
 182 342 184 368 192 397 c 5
 205 401 209 405 220 416 c 5
 286 425 l 5
 298 419 296 424 296 406 c 5
258 569 m 1
 241 560 238 527 229 510 c 5
 182 510 l 5
 171 499 167 495 163 482 c 5
 146 482 149 482 135 473 c 5
 125 435 l 5
 106 425 l 5
 97 411 97 414 97 397 c 5
 80 397 83 396 69 387 c 5
 69 312 l 5xea
 59 312 l 5xf0
 69 293 l 5xe8
 61 281 59 269 59 254 c 4
 59 248 59 242 59 236 c 5xf0
 66 224 69 217 78 208 c 5
 78 132 l 5xe4
 97 132 l 5
 97 94 l 5
 135 85 l 5
 144 66 l 5
 154 56 l 5
 173 56 l 5xf0
 182 41 187 37 201 28 c 5
 239 28 l 5
 239 11 239 14 248 0 c 5
 286 0 l 5
 295 27 306 31 334 37 c 5
 334 47 l 5
 336 47 338 47 340 47 c 4
 351 47 354 47 362 56 c 5
 381 56 l 5xe6
 390 47 l 5xe1
 384 27 382 11 381 -10 c 5xe2
 364 -10 366 -10 352 -19 c 5
 362 -48 l 5
 324 -38 l 5
 258 -57 l 5
 262 -73 261 -72 277 -76 c 5
 277 -85 l 5
 266 -91 268 -89 258 -104 c 5
 267 -152 l 5
 278 -151 289 -150 300 -150 c 4
 321 -150 342 -153 362 -161 c 4
 364 -161 366 -161 368 -161 c 4
 379 -161 382 -161 390 -152 c 5
 400 -152 l 5
 408 -158 413 -160 419 -160 c 4
 425 -160 430 -158 438 -152 c 5
 455 -152 452 -152 466 -161 c 5
 475 -161 l 5xe1
 489 -152 487 -152 504 -152 c 5
 517 -161 523 -161 542 -161 c 5
 561 -123 l 5
 561 -85 l 5
 542 -48 l 5
 523 -49 513 -49 494 -57 c 5
 485 -29 475 -5 475 28 c 5xe2
 466 28 l 5
 466 85 l 5
 485 104 l 5
 475 189 l 5
 494 208 l 5
 492 236 486 267 475 293 c 5
 475 302 l 5
 494 312 l 5
 490 331 488 337 475 350 c 5
 475 397 l 5
 491 406 490 406 494 425 c 5
 509 423 l 5
 523 446 528 462 528 490 c 5
 519 499 l 5
 497 499 524 501 504 510 c 5
 494 510 l 5
 478 501 475 501 456 501 c 5
 447 510 l 5
 428 510 l 5
 414 501 417 501 400 501 c 5
 390 482 l 5xe1
 381 482 l 5
 377 495 373 499 362 510 c 5
 296 529 l 5
 286 510 l 5
 277 510 l 5
 273 523 269 558 258 569 c 1
EndSplineSet
Validated: 9
EndChar

StartChar: r
Encoding: 114 114 71
Width: 620
VWidth: -198
Flags: W
HStem: 28 104<178 187.01 320 327.441 338.56 366.396> 28 38<46 64> 103 29<54.0031 73.7487> 308 8<416.084 419.953> 416 104<82 111.536 348 404> 510 20G<178 221.5 254 268.5 461.5 490>
VStem: 358 9<350 369> 367 27<114.874 168.875> 416 4<309 315.999>
LayerCount: 2
Fore
SplineSet
196 530 m 5x1780
 216 530 l 5x1780
 227 519 230 514 234 501 c 5
 242 501 250 502 258 502 c 4
 279 502 299 500 320 492 c 5
 348 520 l 5
 404 520 l 5x1b80
 404 530 l 5x1780
 423 530 429 529 442 520 c 5x1b80
 456 529 453 530 470 530 c 5x1780
 490 520 l 5
 490 511 l 5
 508 511 502 513 508 501 c 5
 538 501 l 5
 566 482 l 5
 566 445 l 5
 594 435 l 5
 590 415 587 410 574 397 c 5
 584 350 l 5
 574 341 l 5
 556 331 l 5
 546 322 l 5
 546 303 l 5
 528 284 l 5
 480 293 l 5
 471 287 464 285 458 285 c 4
 451 285 443 288 432 293 c 5
 432 300 l 6
 432 311 433 313 442 322 c 5
 442 331 l 5
 432 344 429 359 424 378 c 5
 442 397 l 5
 423 401 423 400 414 416 c 5
 396 416 l 5
 382 399 367 397 348 397 c 6
 328 397 l 5
 320 359 l 5
 304 363 304 362 300 378 c 5
 292 378 l 5
 282 331 l 5
 310 322 l 5
 310 303 l 5
 282 293 l 5
 282 246 l 5
 300 236 l 5
 300 226 l 2
 300 212 299 200 292 189 c 5
 300 151 l 5
 289 140 286 136 282 123 c 5
 299 123 296 123 310 114 c 5
 320 132 l 5x9b80
 338 132 l 5
 349 121 354 118 367 114 c 5
 367 161 l 5
 381 170 379 170 396 170 c 5
 395 166 394 163 394 159 c 4
 394 140 400 124 404 104 c 5
 414 95 l 5
 432 85 l 5
 440 69 441 65 442 47 c 5
 426 42 418 37 404 28 c 5
 367 28 l 5
 358 18 350 16 338 9 c 5
 328 9 l 5
 316 16 309 18 300 28 c 5
 282 28 l 5x7380
 269 18 252 14 234 9 c 5
 213 24 204 27 178 28 c 5x9380
 178 19 l 5
 140 19 l 5
 120 0 l 5
 92 9 l 5
 92 19 l 5
 46 28 l 5
 36 38 l 5
 36 57 l 5
 50 66 47 66 64 66 c 5
 74 104 l 5
 70 103 66 103 64 103 c 4
 55 103 54 108 54 118 c 6
 54 132 l 5
 71 132 68 132 82 123 c 5
 98 142 112 142 140 142 c 5
 140 132 l 5
 188 132 l 5
 178 170 l 5
 188 189 l 5
 168 208 l 5
 176 234 178 256 178 284 c 5
 188 284 l 5
 188 287 186 290 186 293 c 4
 186 308 187 319 196 331 c 5
 196 341 l 5
 187 353 186 363 186 378 c 4
 186 381 188 385 188 388 c 5
 179 402 178 399 178 416 c 5
 130 407 l 5
 111 415 101 415 82 416 c 5
 82 426 l 5
 54 426 l 5
 40 435 43 435 26 435 c 5
 32 462 38 471 64 482 c 5
 69 498 73 506 82 520 c 5x7b80
 98 519 102 520 112 511 c 5
 130 511 l 5
 137 516 144 517 150 517 c 4
 158 517 166 514 178 511 c 5
 196 530 l 5x1780
367 369 m 5
 367 350 l 5
 358 350 l 5
 358 378 l 5
 367 369 l 5
358 322 m 5
 367 312 l 5
 358 322 l 5
418 316 m 4
 419 316 420 314 420 312 c 6
 420 309 l 5
 419 308 418 308 418 308 c 6
 417 308 416 311 416 313 c 4
 416 316 416 316 418 316 c 4
EndSplineSet
Validated: 1
EndChar

StartChar: s
Encoding: 115 115 72
Width: 620
VWidth: -190
Flags: W
HStem: -3 106<286.614 303.766 304.234 351.583 352.644 400> 213 98<286.89 333.535> 406 102<248.513 305.485> 481 20G<465 482.5>
VStem: 78 104<164.605 207> 88 76<9 36.1136> 438 19<273 283>
LayerCount: 2
Fore
SplineSet
306 179 m 1xc2
 314 198 313 196 334 198 c 1
 324 182 324 183 306 179 c 1xc2
396 147 m 0
 397 148 408 148 404 144 c 0
 403 143 392 143 396 147 c 0
248 406 m 1xe2
 235 387 232 385 210 378 c 1
 230 321 l 1
 257 321 270 321 286 302 c 1
 305 308 323 310 344 311 c 1
 357 299 371 291 390 283 c 1
 399 300 401 302 418 311 c 1
 416 303 416 297 416 292 c 0
 416 282 421 279 438 273 c 1
 438 311 l 1
 424 320 427 321 410 321 c 1
 400 330 l 1
 390 378 l 1
 374 383 366 387 352 396 c 1
 314 387 l 1
 309 402 311 401 296 406 c 1
 248 406 l 1xe2
182 255 m 1xca
 192 245 l 1
 182 255 l 1xca
182 236 m 1
 182 179 l 1
 197 167 201 164 220 160 c 1
 230 151 l 1
 234 132 236 128 248 113 c 1
 265 113 262 112 276 103 c 1
 286 103 l 1
 295 108 299 110 304 110 c 0
 309 110 314 108 324 103 c 0
 326 103 328 103 330 103 c 0
 341 103 343 104 352 113 c 1
 366 104 363 103 380 103 c 1
 394 112 402 117 418 122 c 1
 428 132 l 1
 448 179 l 1
 428 183 417 188 400 198 c 1
 352 188 l 1
 348 205 348 205 334 217 c 1
 324 214 319 213 314 213 c 0
 309 213 304 214 296 217 c 1
 276 217 l 1
 262 208 265 207 248 207 c 1
 231 228 209 231 182 236 c 1
220 510 m 1
 238 506 238 507 248 491 c 1
 259 502 267 508 276 508 c 0xea
 285 508 295 502 306 491 c 1
 321 509 327 509 352 510 c 1
 352 472 l 1
 374 472 390 473 410 482 c 1
 438 472 l 1
 451 491 454 494 476 501 c 1
 489 485 492 484 514 482 c 1
 528 459 531 442 532 415 c 1
 504 378 l 1
 504 359 l 1
 513 346 513 340 514 321 c 1
 502 306 498 302 494 283 c 1
 457 283 l 1
 457 273 l 1
 484 273 l 1
 494 264 l 1
 501 238 509 231 532 217 c 1
 542 188 l 1
 531 177 526 173 522 160 c 1
 542 151 l 1
 538 131 534 117 522 103 c 1
 522 65 l 1
 503 55 487 50 466 46 c 1
 465 27 465 25 457 9 c 1
 400 9 l 1
 400 -1 l 1
 383 -1 361 -3 340 -3 c 0
 319 -3 299 0 286 9 c 1
 240 -1 l 1
 226 8 218 13 202 18 c 1
 191 29 185 33 172 37 c 1
 171 18 172 15 164 -1 c 1
 98 -1 l 1
 88 9 l 1xd6
 88 37 87 59 78 84 c 1
 78 94 l 1xda
 86 112 87 121 88 141 c 1xd6
 78 141 l 1
 78 207 l 1xda
 106 245 l 1
 123 241 122 240 134 226 c 1
 141 248 142 248 164 255 c 1
 164 264 l 1xd6
 116 273 l 1
 116 311 l 1
 106 311 l 1
 106 359 l 1
 97 373 98 370 98 387 c 1
 112 400 118 406 134 415 c 1
 134 453 l 1
 153 465 169 472 182 491 c 1
 204 493 207 494 220 510 c 1
EndSplineSet
Validated: 9
EndChar

StartChar: t
Encoding: 116 116 73
Width: 620
VWidth: -239
Flags: W
HStem: 395 113<386.661 441.303 442.831 490>
VStem: 226 122<177 223.438 234.325 253> 234 113<168.938 177 177.141 247.813 301.17 375.781> 234 104<301.17 376>
LayerCount: 2
Fore
SplineSet
348 120 m 1xc0
 358 111 l 1
 348 120 l 1xc0
272 678 m 1
 292 678 l 1
 303 667 306 663 310 650 c 1
 328 650 l 1
 348 631 l 1xc0
 342 611 337 589 328 574 c 1
 328 557 329 560 338 546 c 1
 328 508 l 1
 386 489 l 1
 400 506 421 510 444 510 c 0
 459 510 475 508 490 508 c 1
 500 499 l 1
 500 451 l 1
 519 438 521 436 528 414 c 1
 508 402 494 397 470 395 c 1
 460 379 460 380 442 376 c 1
 427 394 421 394 396 395 c 1
 382 404 383 404 366 404 c 1
 363 380 362 379 338 376 c 1
 338 362 l 2x90
 338 340 339 321 348 300 c 1
 348 291 l 1
 328 281 l 1
 348 253 l 1xc0
 348 245 347 237 347 229 c 0xa0
 347 208 346 188 338 168 c 1x90
 357 164 361 161 376 149 c 1
 366 111 l 1
 382 119 385 119 404 120 c 1
 401 130 400 135 400 140 c 0
 400 144 401 149 404 158 c 1
 395 166 396 169 396 180 c 2
 396 187 l 1
 387 195 386 197 386 208 c 2
 386 215 l 1
 432 215 l 1
 440 237 447 238 470 243 c 1
 483 259 486 260 508 262 c 1
 518 243 l 1
 518 224 l 1
 529 218 528 220 538 205 c 1
 537 185 536 176 528 158 c 1
 546 149 l 1
 546 130 l 1
 535 119 531 115 518 111 c 1
 518 73 l 1
 480 62 471 38 452 7 c 1
 404 7 l 1
 404 -3 l 1
 348 -3 l 1xc0
 334 6 329 11 320 26 c 1
 300 26 l 1
 287 40 280 48 272 64 c 1
 244 73 l 1
 244 120 l 1
 234 120 l 1x90
 234 177 l 1
 224 177 l 1
 224 180 224 183 224 186 c 0
 224 201 225 212 234 224 c 1
 234 234 l 1xa0
 229 241 226 244 226 248 c 0xc0
 226 252 229 255 234 262 c 1
 224 300 l 1
 233 325 234 348 234 376 c 1
 178 376 l 1
 163 385 164 384 158 395 c 1
 112 385 l 1
 82 404 l 1
 74 414 l 1
 74 433 l 1
 85 444 89 447 102 451 c 1
 102 469 103 473 112 489 c 1
 130 488 134 488 150 480 c 1
 159 495 164 497 178 508 c 1
 195 508 192 508 206 499 c 1
 215 515 215 514 234 518 c 1
 224 546 l 1
 244 555 l 1
 224 584 l 1
 234 641 l 1x90
 272 678 l 1
508 489 m 1
 528 489 l 1
 528 470 l 1
 513 475 513 474 508 489 c 1
EndSplineSet
Validated: 9
EndChar

StartChar: u
Encoding: 117 117 74
Width: 620
VWidth: -202
Flags: W
HStem: 14 123<220 247.562 248 258 504 541.486> 43 28<355.008 372.119> 147 9<220 241.288> 397 28<202.371 229.541> 431 79<296 371.875> 497 20G<31 106 415 422.5 482 485.974>
VStem: 78 113<232.561 251 251.438 288.579 345.424 411.309> 80 102<336 411.309> 352 28<50.9638 68.3> 396 89<345.373 382.535>
LayerCount: 2
Fore
SplineSet
362 71 m 1x70c0
 378 61 376 61 380 43 c 1
 361 47 361 46 352 62 c 1
 362 71 l 1x70c0
220 147 m 1
 220 137 l 1
 258 137 l 1xb0c0
 258 147 l 1
 220 147 l 1
33 517 m 1xb6c0
 106 506 l 1
 115 515 118 515 134 516 c 1
 153 503 159 499 182 497 c 1xb5c0
 198 471 202 451 202 421 c 1
 210 424 213 425 218 425 c 0
 223 425 220 423 230 420 c 1
 232 406 l 1
 223 402 225 397 220 397 c 0
 212 397 205 402 191 412 c 1xb6c0
 189 404 190 396 190 388 c 0
 190 385 190 382 190 379 c 0
 190 366 189 354 182 345 c 1
 182 336 l 1xb5c0
 191 317 l 1xb6c0
 182 289 l 1xb5c0
 188 280 191 272 191 264 c 0xb6c0
 191 254 187 244 182 232 c 1xb5c0
 202 213 l 1
 191 185 l 1
 220 156 l 1
 240 156 l 1
 244 169 247 174 258 185 c 1
 276 181 276 182 286 166 c 1
 302 174 305 174 324 175 c 1
 332 194 331 192 352 194 c 1
 343 208 344 205 344 222 c 1
 372 232 l 1
 362 279 l 1
 388 298 384 323 400 345 c 1
 397 353 396 358 396 363 c 0
 396 368 397 373 400 383 c 1
 386 395 381 404 372 421 c 1
 364 421 l 2
 353 421 352 422 344 431 c 1
 296 431 l 1
 296 440 l 1
 281 451 l 1
 290 479 279 491 304 510 c 1x3ac0
 335 515 l 1
 362 516 l 1
 372 516 l 1
 386 508 386 518 398 518 c 0
 402 518 412 521 418 521 c 1
 427 517 440 516 452 516 c 0
 464 516 477 517 487 517 c 1
 485 478 l 2
 485 461 485 463 494 449 c 1
 494 402 l 1
 485 381 485 362 485 340 c 2
 485 326 l 1
 494 326 l 1
 494 298 l 1
 485 282 485 278 485 260 c 1
 494 260 l 1
 494 204 l 1
 485 204 l 1
 485 156 l 1
 500 149 494 153 485 137 c 1
 496 134 506 133 514 133 c 0
 522 133 531 134 542 137 c 1
 556 128 564 123 580 118 c 1
 580 99 579 94 570 81 c 1
 580 52 l 1
 569 41 564 37 560 24 c 1
 541 23 538 22 522 14 c 1
 504 14 l 1
 494 24 l 1
 466 24 l 1
 452 15 455 14 438 14 c 1xb6c0
 427 25 422 30 418 43 c 1
 409 37 406 34 404 34 c 0
 402 34 399 37 390 43 c 1x72c0
 397 62 400 70 400 90 c 1
 381 82 371 81 352 81 c 1
 343 58 331 43 314 24 c 1
 297 24 300 23 286 14 c 1
 248 14 l 1
 248 5 l 1
 220 5 l 1
 210 8 203 9 196 9 c 0
 186 9 177 7 164 5 c 1
 155 19 154 16 154 33 c 1
 116 33 l 1
 109 61 93 85 78 109 c 1
 78 126 77 123 68 137 c 1
 68 175 l 1
 78 175 l 1
 78 251 l 1xb2c0
 68 251 l 1
 68 279 l 1
 77 299 80 322 80 345 c 0xb1c0
 80 361 78 377 78 393 c 1
 67 399 69 397 60 412 c 1
 27 422 l 2
 24 423 24 425 24 428 c 0
 24 434 29 444 29 453 c 0
 29 456 29 459 27 462 c 2
 23 473 l 5
 32 490 29 497 33 517 c 1xb6c0
EndSplineSet
Validated: 1
EndChar

StartChar: v
Encoding: 118 118 75
Width: 620
VWidth: 1283
Flags: W
HStem: 214 28<291.45 305> 398 52<103.004 120.998> 412 19<310 320.489> 468 34<253.469 277> 500 20G<84 107.5 199 230 250.5 258 296 329 506.5 511.5>
VStem: 343 90<205.209 275> 501 83<468 496.586>
LayerCount: 2
Fore
SplineSet
149 334 m 1x96
 149 355 127 398 121 398 c 2
 117 398 l 2
 108 398 103 396 103 393 c 1
 79 398 l 1
 74 398 l 1
 41 393 l 1
 35 403 31 411 31 416 c 2
 36 445 l 1
 31 478 l 1
 34 497 39 506 45 506 c 2
 74 502 l 1xd6
 76 515 80 520 88 520 c 2
 103 520 l 1x8e
 112 507 120 502 126 502 c 1
 153 476 l 1
 178 502 l 1x96
 181 502 191 507 207 520 c 1
 211 520 l 1x8e
 230 506 l 1
 235 506 l 2
 242 506 248 508 253 511 c 1
 263 505 273 502 282 502 c 2
 296 502 l 1
 310 511 l 1
 329 497 l 1
 334 497 l 1
 399 466 l 1
 433 502 l 1
 466 506 l 1
 476 500 492 468 501 468 c 1
 506 481 504 516 509 516 c 0
 514 516 521 509 532 497 c 1
 575 502 l 1
 581 492 584 484 584 478 c 1
 581 461 579 448 579 440 c 1
 581 439 582 437 582 436 c 2
 583 424 l 1
 583 414 l 1
 579 406 l 1
 577 407 576 407 576 408 c 2
 589 416 l 1
 570 402 l 1
 551 408 l 1
 513 408 487 387 475 346 c 1
 448 262 l 2
 438 231 433 215 433 214 c 4
 429 209 421 160 398 122 c 5
 388 89 393 46 354 31 c 1
 341 13 326 1 310 1 c 0
 290 1 270 41 259 66 c 1
 260 69 261 72 261 76 c 0
 261 89 254 103 239 119 c 1
 225 143 238 138 223 148 c 1
 215 185 l 1
 192 192 183 221 178 262 c 1
 172 279 165 298 159 318 c 1
 149 334 l 1x96
253 468 m 1
 253 454 l 1
 277 450 l 1
 277 454 l 2
 277 459 272 463 263 468 c 1
 253 468 l 1
103 454 m 2
 103 450 l 1
 112 450 l 2
 118 450 121 453 121 459 c 1
 112 464 l 1
 106 463 103 459 103 454 c 2
301 464 m 1
 296 440 l 1
 310 431 l 1
 315 431 l 2xa6
 321 431 325 434 325 440 c 2
 325 445 l 2
 325 450 318 456 305 464 c 1
 301 464 l 1
273 412 m 1
 273 393 269 384 263 384 c 2
 235 384 l 1
 263 304 l 1
 263 298 l 1
 281 260 295 242 305 242 c 1
 311 239 316 237 319 237 c 1
 319 214 l 1
 320 208 324 204 329 204 c 1
 339 230 343 243 343 246 c 2
 339 275 l 1
 344 275 348 280 353 289 c 1
 353 304 l 1
 348 336 l 1
 367 339 377 344 377 350 c 2
 377 364 l 1
 359 375 343 391 329 412 c 1
 326 412 313 411 291 408 c 1
 285 411 280 412 273 412 c 1
291 214 m 1
 291 200 l 1
 305 200 l 1
 305 204 l 2
 305 210 302 214 296 214 c 2
 291 214 l 1
EndSplineSet
Validated: 5
EndChar

StartChar: w
Encoding: 119 119 76
Width: 620
VWidth: -198
Flags: W
HStem: 88 29<296.031 352> 420 85<40 77.0193> 420 47<400 417.538> 476 29<182 192.923> 494 20G<70 86.5 134.5 151.5 268 303 344 359.5 372 426.5 478 489.5 560.5 598>
LayerCount: 2
Fore
SplineSet
210 429 m 5x80
 192 410 l 5
 192 393 193 396 202 382 c 5
 198 376 196 370 196 364 c 4
 196 355 200 346 202 334 c 5
 192 334 l 5
 192 306 l 5
 210 259 l 5
 220 259 l 5
 222 282 227 287 240 306 c 5
 238 319 234 328 234 336 c 4
 234 345 237 353 248 363 c 5
 240 410 l 5
 210 429 l 5x80
400 420 m 5xa0
 400 410 l 5
 428 401 l 5
 426 390 426 383 426 375 c 4
 426 369 426 362 428 353 c 5
 443 358 443 357 448 372 c 5
 447 379 446 385 446 391 c 4
 446 397 447 403 448 410 c 5
 429 418 419 419 400 420 c 5xa0
428 344 m 5
 418 325 l 5
 438 325 l 5
 438 343 440 338 428 344 c 5
312 265 m 4
 308 261 317 261 318 262 c 4
 322 266 313 266 312 265 c 4
306 249 m 5
 296 221 l 5
 305 206 303 208 314 202 c 5
 314 193 l 5
 302 184 295 176 286 164 c 5
 294 151 296 144 296 134 c 6
 296 117 l 5
 352 117 l 5
 352 126 l 5
 314 145 l 5
 314 155 l 5
 333 168 337 171 344 193 c 5
 336 200 332 205 332 210 c 4
 332 218 339 226 344 240 c 5
 306 249 l 5
78 514 m 5x88
 95 514 92 514 106 505 c 5x90
 119 514 125 513 144 514 c 5x88
 159 509 159 510 164 495 c 5
 202 505 l 5
 198 486 198 485 182 476 c 5
 182 457 l 5
 195 453 199 449 210 438 c 5
 240 505 l 5x90
 258 505 260 505 276 514 c 5
 296 514 l 5x88
 310 505 307 505 324 505 c 5x90
 333 514 336 513 352 514 c 5
 367 509 367 510 372 495 c 5
 428 514 l 5x88
 425 485 418 479 390 476 c 5x90
 390 467 l 5
 408 463 408 464 418 448 c 5
 448 457 l 5
 445 466 442 473 442 479 c 4
 442 490 447 499 456 514 c 5xa8
 465 514 474 515 482 515 c 4
 497 515 510 513 522 505 c 5
 532 505 l 5x90
 545 514 551 513 570 514 c 5x88
 598 495 l 5
 590 448 l 5
 599 438 597 436 598 420 c 5
 583 408 579 405 560 401 c 5
 559 385 561 381 552 372 c 5
 552 325 l 5
 542 325 l 5
 542 319 542 313 542 307 c 4
 542 292 540 280 532 268 c 5
 541 254 542 257 542 240 c 5
 522 221 l 5
 522 193 l 5
 517 178 519 179 504 174 c 5
 512 158 513 154 514 136 c 5
 504 136 l 5
 514 88 l 5
 503 77 497 74 484 70 c 5
 476 13 l 5
 457 12 454 11 438 3 c 5
 418 3 l 5
 404 12 407 13 390 13 c 5
 372 32 l 5
 372 70 l 5
 357 75 357 73 352 88 c 5
 306 88 l 5
 297 79 295 79 284 79 c 6
 276 79 l 5
 248 13 l 5
 164 13 l 5
 154 22 l 5
 154 60 l 5
 139 72 135 79 126 98 c 5
 126 107 l 5
 134 125 133 135 134 155 c 5
 134 164 l 5
 116 174 l 5
 116 249 l 5
 106 258 105 266 98 278 c 5
 98 316 l 5
 87 322 87 319 78 334 c 5
 78 353 l 5
 98 353 l 5
 78 401 l 5
 57 405 41 410 22 420 c 5
 22 476 l 5xb0
 40 505 l 5xc0
 58 505 62 505 78 514 c 5x88
EndSplineSet
Validated: 1
EndChar

